<?xml version="1.0" standalone="no"?>
<!DOCTYPE svg PUBLIC "-//W3C//DTD SVG 20010904//EN"
 "http://www.w3.org/TR/2001/REC-SVG-20010904/DTD/svg10.dtd">
<svg version="1.0" xmlns="http://www.w3.org/2000/svg"
 width="1280.000000pt" height="733.000000pt" viewBox="0 0 1280.000000 733.000000"
 preserveAspectRatio="xMidYMid meet">
<g transform="translate(0.000000,733.000000) scale(0.100000,-0.100000)"
fill="#000000" stroke="none">
<path d="M3169 7311 c-49 -27 -62 -46 -55 -77 12 -47 48 -71 132 -89 43 -10
135 -36 204 -58 115 -37 134 -40 230 -40 58 1 134 6 170 12 50 8 67 8 76 -2 6
-6 125 -396 263 -865 260 -883 260 -882 212 -882 -10 0 -24 -6 -33 -12 -14
-12 -15 -18 -1 -62 l14 -48 44 6 c49 8 43 18 86 -141 l22 -83 -49 -52 c-27
-29 -163 -176 -303 -325 -166 -179 -260 -273 -273 -273 -11 0 -41 22 -67 49
-29 31 -62 53 -85 59 -21 6 -57 29 -81 51 -28 25 -57 42 -82 47 -21 3 -51 19
-68 34 -40 37 -67 50 -104 50 -16 0 -42 10 -58 24 -43 35 -68 46 -109 46 -25
0 -51 9 -76 26 -27 19 -57 29 -101 33 -37 4 -76 15 -93 26 -21 14 -45 19 -89
18 -37 -1 -71 5 -90 15 -29 15 -70 19 -280 26 -49 2 -106 6 -125 10 -23 5 -50
3 -77 -7 -32 -11 -54 -12 -86 -5 -34 7 -54 5 -88 -8 -25 -9 -69 -15 -104 -15
-43 1 -71 -4 -100 -19 -24 -12 -59 -20 -90 -20 -36 0 -61 -7 -90 -25 -26 -16
-55 -24 -83 -25 -45 0 -89 -18 -111 -44 -8 -9 -26 -16 -41 -16 -43 0 -92 -20
-125 -51 -17 -16 -41 -29 -52 -29 -36 0 -76 -19 -113 -54 -19 -18 -55 -38 -79
-45 -27 -8 -56 -26 -75 -47 -16 -19 -54 -45 -82 -58 -33 -15 -61 -37 -75 -59
-13 -19 -41 -43 -63 -53 -23 -11 -56 -39 -75 -64 -18 -25 -45 -51 -60 -59 -43
-22 -63 -44 -83 -88 -10 -24 -23 -43 -28 -43 -20 0 -79 -63 -90 -95 -6 -19
-29 -48 -50 -65 -25 -20 -45 -47 -56 -78 -9 -26 -32 -63 -49 -82 -39 -41 -55
-71 -55 -99 0 -11 -13 -35 -29 -53 -37 -43 -47 -64 -56 -115 -3 -23 -13 -47
-21 -54 -24 -20 -41 -60 -49 -113 -4 -27 -18 -65 -31 -84 -17 -25 -24 -49 -24
-85 0 -34 -7 -61 -22 -85 -16 -27 -23 -53 -24 -102 -1 -36 -9 -82 -18 -104
-13 -28 -15 -52 -11 -90 5 -37 2 -62 -10 -90 -15 -34 -15 -48 -5 -96 10 -49
10 -61 -4 -88 -20 -40 -20 -50 3 -98 16 -33 17 -46 8 -90 -8 -42 -7 -58 6 -93
9 -23 17 -68 17 -102 0 -39 7 -73 19 -97 12 -23 19 -56 18 -89 -1 -40 5 -60
26 -92 19 -28 27 -54 27 -84 0 -32 8 -56 30 -88 16 -24 30 -56 30 -71 0 -39
17 -77 50 -115 17 -19 30 -45 30 -59 0 -32 21 -73 54 -104 15 -13 32 -44 38
-69 8 -30 25 -57 53 -85 23 -23 48 -58 54 -79 8 -23 30 -52 61 -78 27 -22 51
-50 54 -62 8 -30 36 -61 76 -85 18 -11 42 -38 54 -59 12 -21 37 -47 55 -58 19
-11 59 -46 90 -77 31 -31 68 -59 83 -63 14 -4 40 -24 57 -45 20 -25 47 -44 78
-55 26 -10 59 -30 73 -45 29 -32 80 -60 109 -60 11 0 35 -13 53 -29 43 -37 64
-47 115 -56 23 -3 47 -13 54 -21 20 -24 60 -41 113 -49 27 -4 65 -18 84 -31
25 -17 49 -24 83 -24 33 0 63 -8 96 -26 39 -21 57 -25 95 -20 34 4 56 0 85
-15 30 -16 49 -19 93 -14 39 4 70 1 100 -10 38 -14 54 -14 101 -5 48 10 61 10
87 -4 40 -20 50 -20 98 3 35 17 47 18 83 9 35 -9 53 -8 95 6 29 9 79 16 112
16 41 0 69 6 91 19 22 14 48 19 86 18 44 -1 63 4 96 26 28 19 54 27 84 27 32
0 56 8 88 30 24 16 56 30 71 30 39 0 77 17 115 50 19 17 45 30 59 30 32 0 73
21 104 54 13 15 44 32 69 38 30 8 57 25 85 53 23 23 58 48 78 54 24 8 52 29
74 56 19 24 55 54 80 65 28 14 52 36 68 62 13 22 41 50 63 62 21 12 47 37 58
55 11 19 46 59 77 90 31 31 59 68 63 83 4 14 24 40 45 57 24 19 45 48 56 78 9
26 34 65 55 85 25 25 40 51 45 75 4 24 17 47 35 63 22 19 33 42 45 95 10 39
25 79 34 90 27 31 37 56 45 109 4 27 18 65 31 84 17 25 24 49 24 83 0 32 8 64
25 95 14 26 25 55 25 65 0 13 7 19 23 19 32 0 57 -30 57 -69 0 -19 6 -34 15
-37 8 -4 15 -18 15 -33 0 -16 10 -37 25 -51 14 -13 25 -31 25 -41 0 -9 11 -24
25 -33 14 -9 25 -25 25 -36 0 -13 10 -24 25 -30 14 -5 30 -21 35 -35 6 -15 17
-25 30 -25 11 0 27 -11 36 -25 9 -14 25 -25 35 -25 10 0 30 -11 44 -24 15 -14
33 -22 41 -19 8 3 26 -5 39 -17 15 -14 30 -20 41 -16 11 4 25 -1 38 -13 12
-12 36 -20 56 -21 131 -2 175 2 285 25 27 6 98 36 135 57 8 4 26 14 40 20 45
22 180 137 180 154 0 6 11 21 25 34 14 13 25 30 25 38 0 8 11 28 25 44 14 16
23 34 20 39 -3 5 4 22 16 38 12 16 19 37 16 45 -19 49 185 81 496 78 238 -2
271 4 302 52 20 31 14 85 -13 109 -43 39 -86 47 -265 47 -156 0 -319 14 -455
40 -48 9 -72 30 -72 64 0 18 -30 92 -51 126 -5 8 -14 26 -21 40 -7 14 -18 32
-25 41 -12 15 119 180 1094 1376 l1108 1360 133 103 c74 56 141 103 150 104
13 1 27 -27 56 -114 21 -63 40 -116 41 -118 2 -2 40 -12 86 -23 170 -40 151
-28 213 -142 30 -56 63 -107 73 -113 12 -7 48 -85 92 -199 l74 -187 -19 -25
c-11 -14 -43 -33 -73 -43 -34 -11 -62 -29 -78 -48 -13 -17 -48 -42 -78 -56
-34 -15 -62 -37 -76 -59 -13 -19 -41 -43 -63 -53 -23 -11 -56 -39 -75 -64 -18
-25 -45 -51 -60 -59 -43 -22 -63 -44 -83 -88 -10 -24 -23 -43 -28 -43 -20 0
-79 -63 -90 -95 -6 -19 -29 -48 -50 -65 -25 -20 -45 -47 -56 -78 -9 -26 -32
-63 -49 -82 -39 -41 -55 -71 -55 -99 0 -11 -13 -35 -29 -53 -37 -43 -47 -64
-56 -115 -3 -23 -13 -47 -21 -54 -24 -20 -41 -60 -49 -113 -4 -27 -18 -65 -31
-84 -17 -25 -24 -49 -24 -85 0 -34 -7 -61 -22 -86 -17 -26 -23 -52 -23 -96 -1
-34 -9 -77 -19 -100 -13 -29 -16 -54 -12 -89 3 -31 0 -69 -10 -102 -12 -42
-13 -61 -4 -94 9 -32 8 -54 -1 -91 -11 -41 -10 -57 2 -97 11 -35 13 -57 6 -86
-7 -29 -6 -52 7 -91 9 -28 16 -77 16 -109 0 -37 7 -70 19 -95 13 -24 20 -56
19 -89 -1 -40 5 -60 25 -91 19 -28 27 -54 27 -84 0 -32 8 -56 30 -88 16 -24
30 -56 30 -71 0 -39 17 -77 50 -115 17 -19 30 -45 30 -59 0 -32 21 -73 54
-104 15 -13 32 -44 38 -69 8 -30 25 -57 53 -85 23 -23 48 -58 55 -79 7 -23 29
-52 56 -75 24 -20 54 -56 65 -79 13 -27 35 -52 61 -67 22 -13 50 -41 62 -63
12 -21 37 -47 55 -58 19 -11 59 -46 90 -77 31 -31 68 -59 83 -63 14 -4 40 -24
57 -45 20 -25 47 -44 78 -55 26 -10 59 -30 73 -45 29 -32 80 -60 109 -60 11 0
35 -13 53 -29 42 -36 64 -47 113 -56 21 -3 52 -17 67 -30 29 -25 86 -45 125
-45 12 0 39 -11 59 -25 27 -18 50 -25 87 -25 34 0 61 -7 86 -22 26 -16 53 -23
96 -24 34 0 77 -8 100 -18 29 -13 52 -16 88 -12 34 5 64 2 99 -10 41 -13 57
-14 95 -5 38 10 54 9 93 -5 46 -17 49 -17 92 4 39 18 51 19 88 10 34 -9 52 -8
94 6 29 9 79 16 112 16 41 0 69 6 91 19 22 14 48 19 86 18 44 -1 63 4 96 26
28 19 54 27 84 27 32 0 56 8 88 30 24 16 56 30 71 30 39 0 77 17 115 50 19 17
45 30 59 30 32 0 73 21 104 54 13 15 44 32 69 38 30 7 57 25 84 52 22 23 58
48 80 56 27 10 52 30 72 57 16 23 44 47 61 53 35 12 90 63 99 91 4 11 21 26
38 35 46 23 66 44 88 87 11 20 35 47 54 60 22 13 45 42 60 72 13 28 39 62 58
77 22 17 42 45 52 75 10 26 30 59 45 73 32 29 60 80 60 109 0 11 13 35 29 53
37 43 47 64 56 115 3 23 13 47 21 54 24 20 41 60 49 113 4 27 18 65 31 84 17
25 24 49 24 83 0 33 8 63 26 96 21 39 25 57 20 95 -4 34 0 56 15 85 16 30 19
49 14 92 -4 37 0 69 11 103 14 42 14 57 4 93 -11 38 -10 51 5 92 16 46 16 50
-3 94 -17 39 -18 53 -9 92 8 37 7 54 -6 89 -10 24 -17 72 -17 108 0 46 -6 74
-19 97 -14 22 -19 48 -18 86 1 45 -4 62 -26 94 -20 28 -27 51 -27 85 0 33 -8
56 -30 89 -16 24 -30 56 -30 71 0 39 -17 77 -50 115 -17 19 -30 45 -30 59 0
33 -15 61 -55 104 -19 21 -35 51 -39 73 -5 27 -20 50 -51 79 -24 23 -46 53
-50 67 -9 36 -41 78 -75 98 -17 9 -35 32 -41 50 -5 17 -27 46 -47 62 -54 44
-71 62 -95 100 -12 19 -41 44 -65 56 -24 12 -52 35 -62 52 -21 35 -67 73 -87
73 -8 0 -36 22 -62 49 -29 31 -62 53 -85 59 -21 6 -57 29 -81 51 -28 25 -57
42 -82 47 -21 3 -51 19 -68 34 -40 37 -67 50 -104 50 -16 0 -42 10 -58 24 -43
35 -68 46 -109 46 -25 0 -51 9 -76 26 -27 19 -57 29 -101 33 -37 4 -76 15 -93
26 -21 14 -45 19 -89 18 -37 -1 -71 5 -90 15 -29 15 -70 19 -280 26 -49 2
-106 6 -125 10 -23 5 -50 2 -80 -8 -34 -12 -53 -13 -85 -5 -33 8 -50 7 -85 -6
-26 -10 -70 -16 -105 -16 -43 1 -71 -4 -100 -19 -24 -12 -59 -20 -90 -20 -36
0 -61 -7 -90 -25 -27 -16 -55 -24 -85 -25 -42 0 -62 -9 -122 -52 -11 -8 -21
-9 -27 -3 -17 19 -151 373 -146 387 5 12 -19 86 -97 301 l-10 27 -107 0 -107
0 -35 43 c-40 47 -77 134 -63 146 5 4 41 18 79 30 235 74 370 201 419 393 35
138 44 527 15 642 -14 51 -3 60 51 41 30 -10 47 -12 54 -5 24 24 122 -5 224
-68 l50 -30 28 30 29 30 -40 35 c-46 40 -98 68 -170 93 -32 11 -51 23 -54 35
-2 10 -19 42 -38 71 l-35 52 32 44 c29 39 31 49 28 101 -3 46 -10 63 -33 87
-55 58 -129 63 -201 13 -150 -101 -248 -152 -557 -287 -322 -140 -340 -147
-357 -131 -23 21 -92 14 -157 -17 -73 -34 -73 -29 -9 -228 50 -158 57 -189 55
-253 -1 -41 4 -90 11 -111 6 -21 10 -40 6 -43 -5 -6 -220 -59 -2303 -577 -700
-174 -1277 -316 -1282 -316 -12 0 -34 67 -28 84 3 8 28 21 55 30 49 17 49 17
55 68 4 28 4 54 2 58 -3 5 -39 -1 -80 -13 -55 -15 -79 -17 -87 -9 -6 6 -120
385 -254 844 -204 699 -240 835 -229 847 22 23 562 28 680 7 253 -46 285 -46
285 -1 0 17 -11 32 -37 50 -104 71 -305 95 -786 95 -355 0 -511 10 -787 50
-74 11 -182 22 -240 25 -92 5 -109 3 -141 -14z m5797 -662 c4 -7 24 -9 53 -6
43 5 50 2 111 -43 58 -43 73 -49 133 -55 l69 -8 39 39 c21 21 42 35 46 31 15
-16 24 -256 13 -400 -11 -156 -35 -268 -70 -338 -29 -56 -100 -130 -167 -175
-60 -40 -197 -98 -256 -109 -36 -7 -38 -6 -53 30 -21 51 -13 65 38 65 66 0
177 27 234 56 64 33 143 109 177 173 63 114 60 319 -5 429 -33 56 -252 291
-262 281 -3 -3 45 -57 108 -119 138 -141 172 -197 187 -310 34 -249 -94 -434
-336 -485 -87 -18 -150 -19 -167 -2 -7 8 -62 144 -122 303 -62 164 -124 311
-143 340 -24 35 -35 64 -36 94 l-2 43 185 88 c188 89 213 98 226 78z m-861
-1002 c0 -9 -526 -665 -1170 -1457 l-1170 -1439 -41 0 c-22 -1 -45 4 -51 10
-7 7 -59 12 -133 14 -66 1 -125 6 -130 11 -17 18 -572 2076 -562 2086 9 9
2388 609 2847 718 354 84 410 92 410 57z m-3497 -936 c7 -31 6 -50 -9 -93 -36
-105 -26 -156 65 -317 42 -74 86 -174 125 -280 55 -155 347 -1172 354 -1237 2
-16 9 -39 15 -51 18 -33 15 -64 -8 -70 -10 -3 -26 -16 -35 -29 -8 -13 -24 -24
-35 -24 -10 0 -21 -9 -25 -20 -3 -11 -19 -29 -36 -40 -16 -12 -29 -28 -29 -35
0 -8 -11 -22 -25 -31 -15 -10 -25 -26 -25 -40 0 -13 -9 -29 -20 -36 -12 -8
-20 -24 -20 -39 0 -15 -7 -32 -15 -39 -8 -7 -15 -28 -15 -47 0 -28 -4 -34 -17
-31 -11 2 -17 12 -16 23 1 11 -2 37 -8 58 -7 26 -6 55 2 96 11 51 10 65 -3
100 -12 31 -14 49 -6 79 7 27 6 55 -2 93 -6 30 -15 83 -18 119 -4 36 -15 78
-24 92 -11 17 -17 45 -17 83 1 44 -4 64 -25 95 -18 28 -26 53 -26 83 0 32 -8
56 -30 88 -16 24 -30 56 -30 71 0 39 -17 77 -50 115 -17 19 -30 45 -30 59 0
33 -15 61 -55 104 -19 21 -35 51 -39 73 -5 27 -20 50 -51 79 -24 23 -46 53
-50 67 -9 36 -41 78 -75 98 -17 9 -34 31 -40 48 -11 33 -50 75 -87 94 -13 6
-32 29 -43 50 -11 22 -31 48 -46 60 -14 11 -24 26 -21 33 17 42 494 538 517
538 12 0 21 -12 28 -39z m74 -267 c48 -170 55 -204 40 -204 -8 0 -63 91 -101
167 -12 24 -24 62 -27 86 -7 50 12 130 29 124 7 -2 33 -80 59 -173z m-1939
-159 c48 -9 100 -21 115 -27 15 -6 41 -12 57 -13 47 -5 259 -83 271 -100 6 -8
13 -12 16 -9 11 10 260 -125 276 -150 4 -6 21 -18 37 -26 17 -9 30 -23 30 -32
0 -22 -214 -255 -242 -263 -12 -4 -38 -31 -58 -61 -19 -30 -133 -159 -252
-287 -313 -337 -365 -388 -378 -377 -8 7 -16 1 -24 -18 -7 -15 -19 -37 -27
-50 -15 -22 -17 -23 -40 -8 -20 14 -27 14 -44 4 -18 -11 -23 -10 -36 6 -8 11
-14 31 -15 45 0 14 -4 35 -9 46 -7 16 -9 13 -9 -17 -1 -20 -5 -48 -11 -62 -9
-24 -13 -26 -49 -20 -23 4 -41 2 -45 -5 -4 -6 -19 -8 -34 -5 -22 4 -30 0 -45
-27 -12 -22 -23 -30 -36 -26 -23 6 -51 -9 -51 -28 0 -7 -10 -15 -22 -17 -17
-2 -24 -11 -26 -31 -3 -22 -12 -32 -38 -43 -19 -8 -32 -19 -29 -24 3 -5 -1
-24 -9 -42 -8 -18 -16 -46 -18 -63 -3 -29 -5 -30 -61 -33 -46 -2 -58 -6 -53
-17 3 -10 -14 -29 -48 -54 -64 -48 -108 -99 -137 -160 -18 -40 -20 -58 -16
-151 3 -83 9 -114 27 -147 22 -43 163 -183 183 -183 6 0 18 -6 26 -14 9 -7 57
-21 106 -30 50 -10 101 -20 115 -23 32 -7 61 -7 80 0 36 13 182 16 201 4 17
-10 22 -9 30 5 8 15 95 30 194 32 25 1 31 6 33 29 2 19 9 27 23 27 23 0 24
-18 3 -48 -13 -19 -13 -22 0 -22 10 0 15 -9 15 -27 0 -16 3 -43 7 -60 4 -22 2
-33 -5 -33 -6 0 -21 -10 -32 -21 -25 -25 -174 -119 -188 -119 -6 0 -27 -11
-47 -25 -20 -14 -41 -22 -46 -19 -5 3 -19 -3 -31 -14 -33 -30 -66 -44 -87 -37
-27 9 -94 -11 -114 -34 -13 -15 -29 -19 -67 -17 -27 2 -49 2 -49 0 0 -1 9 -23
20 -49 11 -26 20 -53 20 -60 0 -14 28 -51 73 -96 16 -16 53 -35 85 -45 31 -9
65 -20 74 -25 22 -11 46 -2 52 19 2 10 4 43 4 75 0 32 6 65 13 73 9 12 9 20
-1 38 -18 35 -5 61 43 81 23 9 49 21 57 26 8 5 35 20 60 33 25 14 65 39 90 55
25 17 50 31 56 31 6 0 18 7 25 17 8 9 28 22 44 30 17 7 50 29 75 49 25 19 64
49 87 67 25 19 42 40 43 52 0 11 7 30 15 41 13 19 12 25 -4 56 -19 38 -75 98
-92 98 -17 0 -102 69 -121 98 -10 15 -27 29 -40 32 -30 7 -34 28 -7 32 16 2
25 13 31 33 5 21 17 34 38 42 19 7 28 16 25 25 -3 7 1 22 9 33 14 19 19 19
362 -18 192 -20 371 -44 399 -52 30 -10 66 -13 90 -9 37 5 319 -20 348 -32 12
-5 47 -72 47 -92 0 -18 111 -46 132 -33 10 6 22 11 27 11 28 0 -12 -168 -74
-307 -75 -171 -198 -374 -250 -415 -14 -11 -25 -26 -25 -34 0 -31 -306 -325
-349 -336 -7 -2 -25 -15 -40 -29 -31 -30 -211 -138 -237 -142 -11 -1 -30 -10
-44 -20 -35 -25 -224 -97 -253 -97 -13 0 -37 -6 -53 -14 -30 -15 -224 -55
-278 -58 -17 -1 -121 -2 -231 -2 -199 0 -367 19 -420 47 -11 6 -27 10 -36 9
-20 -3 -181 49 -256 83 -32 15 -74 33 -93 42 -63 27 -221 124 -227 139 -3 7
-9 12 -13 9 -27 -16 -364 299 -434 405 -17 25 -38 54 -47 65 -37 42 -139 220
-139 242 0 13 -4 23 -9 23 -15 0 -108 226 -114 278 -2 15 -9 39 -15 54 -13 31
-52 227 -54 272 -1 17 -2 119 -2 226 0 195 20 376 47 425 6 11 10 26 9 33 -4
18 54 191 90 272 65 144 153 300 169 300 5 0 9 6 9 14 0 55 388 456 442 456 7
0 19 9 25 20 14 21 204 137 242 147 14 3 40 16 58 29 38 25 191 83 243 91 19
3 40 10 46 14 16 13 199 50 268 54 32 3 61 7 65 11 11 12 394 -5 484 -21z
m7950 0 c48 -9 100 -21 115 -27 15 -6 41 -12 57 -13 47 -5 259 -83 271 -100 6
-8 13 -12 16 -9 11 10 260 -125 276 -150 4 -6 18 -16 32 -22 75 -33 344 -290
423 -405 90 -129 127 -188 152 -244 15 -33 32 -67 36 -75 36 -62 52 -98 82
-187 20 -56 33 -104 30 -107 -3 -3 -1 -12 6 -19 14 -18 49 -176 59 -266 14
-131 7 -450 -12 -556 -10 -55 -23 -109 -29 -120 -6 -11 -10 -27 -9 -36 3 -20
-50 -183 -82 -251 -13 -29 -31 -70 -40 -91 -23 -57 -125 -227 -136 -227 -6 0
-10 -6 -10 -14 0 -45 -301 -368 -410 -441 -25 -16 -58 -40 -74 -53 -41 -33
-210 -131 -232 -135 -11 -1 -30 -10 -44 -20 -35 -25 -224 -97 -253 -97 -13 0
-37 -6 -53 -14 -30 -15 -223 -55 -278 -58 -17 -1 -125 -1 -241 -1 -214 1 -217
1 -452 53 -210 46 -499 193 -706 358 -79 64 -273 264 -312 322 -16 25 -40 58
-53 74 -37 46 -133 214 -135 236 -1 11 -4 20 -8 20 -14 0 -107 230 -112 278
-2 15 -9 39 -15 54 -15 37 -42 170 -50 248 -14 133 -7 450 12 555 10 55 23
109 29 120 6 11 10 26 9 33 -4 18 53 190 90 272 59 134 153 300 169 300 5 0 9
6 9 14 0 21 97 143 195 245 91 94 225 211 243 211 5 0 26 16 46 35 21 19 45
35 55 35 13 0 36 -48 99 -205 45 -113 82 -217 82 -232 0 -14 13 -47 29 -72 37
-58 154 -349 147 -367 -3 -7 2 -21 11 -30 10 -9 50 -98 90 -197 54 -132 70
-183 62 -193 -8 -9 -5 -15 9 -23 20 -11 72 -126 72 -161 0 -10 5 -22 10 -25 6
-3 10 -13 10 -22 0 -9 7 -24 15 -33 8 -9 16 -27 17 -41 2 -13 9 -30 16 -38 7
-7 11 -19 8 -27 -3 -7 2 -18 10 -24 8 -7 14 -23 14 -36 0 -13 5 -24 10 -24 6
0 10 -11 10 -25 0 -14 9 -31 23 -39 20 -14 27 -13 75 11 39 19 56 23 64 15 8
-8 8 -15 -1 -26 -8 -10 -9 -16 -1 -21 5 -3 10 0 10 8 0 8 8 25 18 37 16 20 29
23 102 25 54 1 85 5 88 13 2 7 9 12 16 12 7 0 26 16 42 35 23 28 36 35 64 35
l35 1 -27 17 c-25 15 -28 23 -28 69 0 28 -5 55 -10 58 -6 4 -8 10 -6 14 7 10
-31 52 -74 81 -29 21 -47 25 -104 25 l-69 0 -44 115 c-24 63 -41 124 -39 134
3 10 -6 40 -19 66 -13 26 -29 69 -36 95 -7 26 -20 54 -30 64 -16 15 -412 1036
-420 1086 -5 23 22 38 96 56 28 6 58 16 68 21 29 14 207 49 270 53 32 2 61 6
65 10 12 13 392 -3 485 -20z m-6993 -483 c0 -20 -256 -307 -364 -407 -228
-213 -196 -164 106 162 209 226 258 272 258 245z m82 -69 c51 -49 131 -145
203 -247 50 -69 135 -227 129 -237 -2 -4 0 -10 6 -14 6 -3 19 -23 29 -44 20
-37 87 -228 87 -246 0 -5 6 -23 12 -39 7 -16 17 -61 23 -100 6 -39 15 -85 20
-103 11 -35 11 -34 13 -253 l1 -155 -110 2 c-60 1 -375 29 -700 62 -576 60
-591 62 -615 86 -22 22 -23 27 -9 40 8 8 35 21 59 29 l45 15 -45 -1 c-64 -2
-93 16 -85 52 3 16 2 31 -4 35 -21 12 -11 34 24 51 20 9 40 25 45 35 10 17 8
17 -33 2 -29 -11 -56 -14 -80 -9 -32 6 -38 11 -48 49 -15 55 -3 74 102 160
174 142 378 337 555 531 101 111 208 223 239 249 30 27 55 56 55 66 0 19 8 31
22 31 5 0 32 -21 60 -47z m-1798 -1263 c4 -5 1 -18 -7 -30 -14 -20 -14 -25 -1
-45 18 -28 7 -39 -57 -59 l-44 -14 52 -1 c55 -1 89 -22 78 -49 -6 -17 15 -72
29 -72 4 0 6 -6 3 -14 -4 -9 7 -22 28 -35 20 -11 35 -29 37 -43 2 -15 11 -24
26 -26 12 -2 22 -9 22 -17 0 -15 27 -29 52 -26 26 3 30 -15 14 -76 -8 -32 -16
-88 -17 -125 l-2 -68 -35 -6 c-42 -8 -163 12 -189 31 -10 8 -26 15 -35 15 -10
0 -18 4 -18 8 0 4 -15 13 -34 20 -42 15 -136 106 -136 131 0 11 -7 21 -15 25
-8 3 -15 12 -15 20 0 7 -7 27 -15 42 -25 49 -14 214 15 214 4 0 12 19 18 43
13 50 74 113 146 151 47 25 77 27 100 6z m435 -675 c13 -14 -22 -25 -105 -31
-94 -7 -119 1 -94 31 8 10 33 12 102 9 50 -2 94 -6 97 -9z m139 5 c-24 -15
-108 -25 -108 -13 0 19 14 23 69 23 41 -1 52 -3 39 -10z"/>
<path d="M2411 3063 c1 -34 2 -35 9 -13 11 36 11 50 0 50 -5 0 -10 -17 -9 -37z"/>
<path d="M2180 3048 c1 -7 7 -24 15 -38 15 -26 19 -12 9 28 -7 23 -24 31 -24
10z"/>
<path d="M2630 3048 c0 -7 -3 -24 -6 -38 l-5 -25 15 25 c18 29 20 50 6 50 -5
0 -10 -6 -10 -12z"/>
<path d="M1980 2932 c0 -5 11 -19 25 -32 29 -27 32 -21 9 15 -16 24 -34 33
-34 17z"/>
<path d="M2231 2925 c1 -32 14 -61 23 -47 4 6 0 24 -8 39 -13 23 -15 24 -15 8z"/>
<path d="M2060 2845 c1 -18 38 -60 46 -52 4 4 -4 20 -19 35 -15 14 -27 22 -27
17z"/>
<path d="M1830 2752 c0 -10 44 -32 63 -32 7 0 -1 9 -18 20 -32 22 -45 25 -45
12z"/>
<path d="M1963 2675 c16 -14 33 -23 38 -19 15 9 2 21 -33 33 l-33 11 28 -25z"/>
<path d="M1750 2530 c0 -5 17 -10 38 -10 27 0 33 3 22 10 -20 13 -60 13 -60 0z"/>
<path d="M2845 2191 c-6 -10 53 -46 62 -38 2 3 -9 14 -26 26 -17 12 -32 17
-36 12z"/>
<path d="M2973 2110 c26 -21 47 -26 47 -12 0 9 -44 32 -62 32 -6 0 1 -9 15
-20z"/>
<path d="M3604 1251 c10 -10 27 -21 39 -24 20 -5 19 -3 -6 19 -33 28 -58 32
-33 5z"/>
<path d="M3300 1220 c11 -20 30 -28 30 -12 0 11 -22 32 -32 32 -5 0 -4 -9 2
-20z"/>
<path d="M2980 1207 c0 -8 7 -20 15 -27 12 -10 15 -10 15 3 0 8 -7 20 -15 27
-12 10 -15 10 -15 -3z"/>
<path d="M2790 1186 c0 -8 5 -18 10 -21 6 -3 10 3 10 14 0 12 -4 21 -10 21 -5
0 -10 -6 -10 -14z"/>
<path d="M2520 1161 c0 -11 5 -23 10 -26 6 -3 10 3 10 14 0 11 -4 23 -10 26
-5 3 -10 -3 -10 -14z"/>
<path d="M10360 3058 c0 -49 5 -47 14 5 4 23 3 37 -4 37 -5 0 -10 -19 -10 -42z"/>
<path d="M10576 3028 c-9 -43 -3 -44 17 -3 13 28 14 35 3 35 -7 0 -16 -14 -20
-32z"/>
<path d="M10361 2953 c-1 -24 4 -43 9 -43 12 0 12 24 0 60 -7 21 -8 19 -9 -17z"/>
<path d="M10542 2925 c-14 -31 -15 -45 -3 -45 8 0 24 60 18 67 -2 2 -9 -8 -15
-22z"/>
<path d="M10776 2928 c-9 -12 -13 -24 -11 -27 6 -5 45 29 45 41 0 15 -19 8
-34 -14z"/>
<path d="M10702 2837 c-24 -25 -28 -37 -12 -37 5 0 16 14 25 30 19 36 16 38
-13 7z"/>
<path d="M10915 2755 c-16 -13 -26 -24 -22 -25 15 0 67 31 67 40 0 16 -13 12
-45 -15z"/>
<path d="M9780 2752 c0 -9 44 -32 58 -32 10 1 -38 40 -49 40 -5 0 -9 -4 -9 -8z"/>
<path d="M10408 2673 c-5 -36 -3 -52 6 -42 8 10 14 79 6 79 -4 0 -10 -17 -12
-37z"/>
<path d="M10813 2698 c-13 -6 -23 -15 -23 -20 0 -15 27 -8 45 12 20 22 12 25
-22 8z"/>
<path d="M10316 2685 c4 -8 8 -15 10 -15 2 0 4 7 4 15 0 8 -4 15 -10 15 -5 0
-7 -7 -4 -15z"/>
<path d="M10500 2659 c0 -5 5 -7 10 -4 6 3 10 8 10 11 0 2 -4 4 -10 4 -5 0
-10 -5 -10 -11z"/>
<path d="M10331 2644 c0 -11 3 -14 6 -6 3 7 2 16 -1 19 -3 4 -6 -2 -5 -13z"/>
<path d="M10481 2626 c-7 -8 -8 -17 -3 -20 6 -3 12 3 15 14 6 24 4 25 -12 6z"/>
<path d="M10557 2589 c-16 -16 -25 -29 -20 -29 14 1 55 39 51 49 -1 5 -16 -4
-31 -20z"/>
<path d="M10995 2550 c-17 -7 -15 -9 13 -9 17 -1 32 4 32 9 0 12 -17 12 -45 0z"/>
<path d="M9700 2530 c0 -5 17 -10 38 -10 27 0 33 3 22 10 -20 13 -60 13 -60 0z"/>
<path d="M10615 2520 c-3 -5 1 -10 9 -10 9 0 16 5 16 10 0 6 -4 10 -9 10 -6 0
-13 -4 -16 -10z"/>
<path d="M10850 2520 c0 -12 27 -12 55 0 16 7 13 9 -17 9 -21 1 -38 -3 -38 -9z"/>
<path d="M9836 2511 c5 -5 23 -12 39 -16 29 -6 29 -6 11 9 -21 17 -67 23 -50
7z"/>
<path d="M10568 2498 c9 -9 15 -9 24 0 9 9 7 12 -12 12 -19 0 -21 -3 -12 -12z"/>
<path d="M10580 2430 c0 -5 10 -10 23 -10 18 0 19 2 7 10 -19 13 -30 13 -30 0z"/>
<path d="M10635 2430 c-3 -5 1 -10 9 -10 9 0 16 5 16 10 0 6 -4 10 -9 10 -6 0
-13 -4 -16 -10z"/>
<path d="M10852 2348 c3 -7 22 -14 44 -16 42 -2 31 10 -19 22 -21 5 -28 3 -25
-6z"/>
<path d="M9845 2330 c-16 -7 -13 -9 18 -9 20 -1 37 4 37 9 0 12 -27 12 -55 0z"/>
<path d="M10625 2330 c4 -6 11 -8 16 -5 14 9 11 15 -7 15 -8 0 -12 -5 -9 -10z"/>
<path d="M10998 2317 c24 -7 36 -7 44 1 9 9 1 12 -32 11 l-45 -1 33 -11z"/>
<path d="M9705 2300 c8 -13 35 -13 55 0 11 7 5 10 -23 10 -23 0 -36 -4 -32
-10z"/>
<path d="M10536 2291 c-3 -5 1 -11 9 -15 8 -3 15 -1 15 4 0 13 -18 22 -24 11z"/>
<path d="M10572 2258 c5 -15 28 -23 28 -10 0 5 -7 13 -16 16 -10 4 -14 1 -12
-6z"/>
<path d="M10480 2241 c0 -5 5 -13 10 -16 6 -3 10 -2 10 4 0 5 -4 13 -10 16 -5
3 -10 2 -10 -4z"/>
<path d="M10328 2183 c-5 -36 -3 -52 6 -42 8 10 14 79 6 79 -4 0 -10 -17 -12
-37z"/>
<path d="M10411 2204 c0 -11 3 -14 6 -6 3 7 2 16 -1 19 -3 4 -6 -2 -5 -13z"/>
<path d="M10500 2202 c0 -12 19 -26 26 -19 2 2 -2 10 -11 17 -9 8 -15 8 -15 2z"/>
<path d="M10800 2182 c0 -9 44 -32 58 -32 10 1 -38 40 -49 40 -5 0 -9 -4 -9
-8z"/>
<path d="M9919 2160 c-13 -10 -21 -19 -17 -20 14 0 58 23 58 32 0 14 -16 9
-41 -12z"/>
<path d="M10420 2165 c0 -8 4 -15 10 -15 5 0 7 7 4 15 -4 8 -8 15 -10 15 -2 0
-4 -7 -4 -15z"/>
<path d="M10923 2110 c26 -21 47 -26 47 -12 0 9 -44 32 -62 32 -6 0 1 -9 15
-20z"/>
<path d="M9823 2105 c-18 -8 -33 -19 -33 -25 0 -17 17 -12 47 15 32 28 30 30
-14 10z"/>
<path d="M10690 2052 c0 -5 11 -19 25 -32 29 -27 32 -21 9 15 -16 24 -34 33
-34 17z"/>
<path d="M10034 2018 l-17 -33 27 24 c27 25 33 41 16 41 -5 0 -17 -15 -26 -32z"/>
<path d="M10200 1958 c0 -7 -3 -24 -6 -38 -6 -24 -6 -25 9 -5 18 22 22 55 7
55 -5 0 -10 -6 -10 -12z"/>
<path d="M10540 1963 c1 -5 7 -19 15 -33 10 -18 14 -20 15 -8 0 23 -11 48 -21
48 -5 0 -9 -3 -9 -7z"/>
<path d="M10770 1965 c1 -18 38 -60 46 -52 4 4 -4 20 -19 35 -15 14 -27 22
-27 17z"/>
<path d="M9966 1935 c-29 -27 -32 -35 -13 -35 7 0 21 14 30 30 22 36 18 38
-17 5z"/>
<path d="M10370 1918 c0 -13 5 -30 10 -38 7 -11 10 -5 10 23 0 20 -4 37 -10
37 -5 0 -10 -10 -10 -22z"/>
<path d="M10162 1835 c-14 -31 -16 -63 -3 -49 9 10 25 74 18 74 -2 0 -9 -11
-15 -25z"/>
<path d="M10595 1831 c6 -38 12 -48 22 -38 3 4 -1 22 -11 40 l-17 32 6 -34z"/>
<path d="M10379 1790 c-7 -35 -4 -48 7 -38 3 4 4 21 2 40 l-3 33 -6 -35z"/>
<path d="M2965 2755 c-16 -13 -26 -24 -22 -25 15 0 67 31 67 40 0 16 -13 12
-45 -15z"/>
<path d="M3555 2718 c-52 -12 -199 -60 -160 -52 107 22 154 34 185 47 40 17
33 19 -25 5z"/>
<path d="M3045 2550 c-17 -7 -15 -9 13 -9 17 -1 32 4 32 9 0 12 -17 12 -45 0z"/>
<path d="M1755 2300 c8 -13 35 -13 55 0 11 7 5 10 -23 10 -23 0 -36 -4 -32
-10z"/>
<path d="M1969 2160 c-13 -10 -21 -19 -17 -20 14 0 58 23 58 32 0 14 -16 9
-41 -12z"/>
<path d="M1873 2105 c-18 -8 -33 -19 -33 -25 0 -17 17 -12 47 15 32 28 30 30
-14 10z"/>
<path d="M2084 2018 l-17 -33 27 24 c27 25 33 41 16 41 -5 0 -17 -15 -26 -32z"/>
<path d="M2016 1935 c-29 -27 -32 -35 -13 -35 7 0 21 14 30 30 22 36 18 38
-17 5z"/>
</g>
</svg>
