<?xml version="1.0" standalone="no"?>
<!DOCTYPE svg PUBLIC "-//W3C//DTD SVG 20010904//EN"
 "http://www.w3.org/TR/2001/REC-SVG-20010904/DTD/svg10.dtd">
<svg version="1.0" xmlns="http://www.w3.org/2000/svg"
 width="1280.000000pt" height="714.000000pt" viewBox="0 0 1280.000000 714.000000"
 preserveAspectRatio="xMidYMid meet">
<metadata>
Created by potrace 1.15, written by Peter Selinger 2001-2017
</metadata>
<g transform="translate(0.000000,714.000000) scale(0.100000,-0.100000)"
fill="#000000" stroke="none">
<path d="M2920 7134 c-93 -31 -150 -94 -150 -166 0 -114 127 -199 250 -168 25
6 55 14 66 17 16 4 63 -28 198 -134 151 -118 175 -142 173 -163 -1 -14 -7 -24
-14 -23 -13 3 -11 10 -155 -631 -90 -404 -99 -451 -84 -461 14 -11 13 -25 -10
-161 -15 -82 -31 -153 -36 -159 -7 -7 -9 2 -6 27 4 36 3 37 -37 47 -64 16
-311 49 -422 56 l-103 7 0 -32 c0 -17 -6 -32 -12 -35 -7 -2 -73 -6 -145 -8
-118 -4 -133 -3 -133 12 -1 42 -12 45 -121 26 -127 -21 -236 -46 -352 -82
l-89 -27 6 -30 6 -31 -118 -47 c-64 -26 -125 -50 -134 -53 -13 -5 -19 0 -24
19 -3 14 -9 26 -12 26 -17 0 -233 -123 -327 -186 -167 -112 -162 -107 -142
-137 16 -24 15 -25 -36 -68 -29 -24 -76 -66 -105 -93 l-53 -50 -21 21 -21 21
-61 -65 c-81 -87 -183 -215 -247 -310 l-52 -76 23 -17 23 -17 -40 -69 c-23
-38 -53 -93 -67 -122 -19 -37 -32 -52 -42 -48 -8 3 -20 8 -27 11 -7 3 -17 -6
-24 -22 -6 -16 -32 -79 -58 -142 -43 -105 -115 -335 -115 -366 0 -8 10 -15 23
-17 12 -2 21 -9 19 -17 -1 -7 -12 -69 -24 -137 -20 -115 -23 -124 -44 -124
-12 0 -25 -8 -29 -17 -10 -29 -17 -381 -8 -473 l8 -85 28 3 c24 2 27 0 27 -27
0 -17 9 -78 20 -136 21 -107 20 -125 -6 -125 -21 0 -18 -26 20 -157 33 -116
72 -221 123 -335 22 -49 28 -56 44 -48 28 16 36 12 50 -22 7 -18 36 -73 63
-122 l49 -89 -22 -16 -22 -16 62 -90 c72 -107 190 -253 252 -313 38 -38 45
-41 57 -27 20 24 32 19 85 -35 28 -28 73 -69 102 -92 50 -40 51 -42 35 -65
-15 -23 -14 -26 14 -49 93 -77 418 -274 452 -274 6 0 14 9 17 21 5 13 13 19
23 16 21 -7 246 -98 250 -102 1 -1 -2 -14 -7 -28 l-10 -27 112 -35 c98 -30
275 -70 403 -90 40 -6 41 -5 48 25 6 31 6 31 58 26 29 -3 92 -8 141 -12 l87
-6 0 -30 0 -30 113 7 c106 6 340 36 417 53 31 7 35 12 34 38 l-2 30 132 37
c148 42 146 42 146 25 1 -41 16 -40 128 6 136 55 361 169 401 202 2 2 -3 14
-12 28 -16 23 -15 24 41 61 31 21 83 58 116 83 l59 45 17 -23 18 -24 37 29
c63 47 234 215 307 300 l68 80 -22 18 c-15 13 -19 22 -12 32 5 7 40 57 78 111
38 55 71 100 72 102 1 2 12 -2 24 -8 15 -8 25 -8 34 -1 32 27 236 459 236 501
0 5 -11 12 -24 16 l-23 5 28 92 c15 51 33 112 39 136 10 38 14 43 36 38 13 -2
26 -1 29 2 16 27 65 412 65 518 0 38 -3 42 -27 46 l-28 4 29 2 29 1 -7 118
c-7 116 -27 279 -47 380 -10 48 -13 52 -38 52 -26 0 -28 4 -62 123 -19 67 -35
127 -37 133 -2 7 8 14 22 18 l25 6 -29 83 c-39 106 -199 427 -216 434 -8 3
-22 -1 -30 -8 -14 -12 -19 -11 -31 6 -8 11 -45 64 -83 118 l-69 97 24 16 25
16 -61 74 c-67 80 -280 291 -324 320 -27 18 -28 18 -46 -5 l-18 -22 -63 48
c-35 26 -86 63 -115 81 -52 34 -52 34 -36 59 16 24 16 26 -5 42 -43 32 -264
144 -380 192 l-117 48 -9 -27 c-11 -33 -12 -35 -24 -28 -7 4 39 287 63 383 5
20 76 -40 579 -485 315 -279 1016 -898 1558 -1377 954 -844 984 -871 983 -904
0 -19 -6 -36 -13 -39 -7 -2 -10 -13 -6 -28 4 -14 1 -31 -6 -39 -10 -12 -10
-18 0 -30 10 -12 10 -18 1 -29 -9 -11 -9 -19 0 -34 10 -17 10 -23 -1 -37 -11
-13 -10 -18 6 -29 15 -11 16 -17 6 -29 -10 -11 -9 -17 3 -27 8 -7 15 -25 15
-41 0 -20 5 -29 16 -29 11 0 14 -6 9 -21 -5 -15 -1 -25 14 -36 15 -10 20 -21
16 -34 -5 -15 -1 -19 14 -19 16 0 21 -6 21 -25 0 -16 6 -25 15 -25 9 0 21 -11
27 -25 6 -14 19 -25 30 -25 11 0 18 -7 18 -19 0 -11 7 -21 15 -23 11 -2 -6
-40 -64 -148 l-78 -145 -114 -3 c-100 -2 -116 -5 -136 -24 -34 -31 -32 -93 4
-130 l27 -28 246 0 246 0 27 28 c20 21 27 38 27 68 0 55 -31 84 -89 84 l-42 0
53 101 c37 70 61 104 77 110 19 8 27 6 33 -6 6 -10 17 -13 34 -9 14 4 31 1 39
-6 12 -10 18 -10 30 0 12 10 18 10 29 1 10 -9 20 -9 33 -3 12 7 25 7 36 0 14
-7 22 -6 32 8 10 15 16 16 28 6 11 -10 17 -9 28 4 8 9 22 14 37 11 18 -3 26 0
29 14 4 14 11 17 29 13 17 -4 26 -1 30 10 3 9 17 16 30 16 17 0 24 6 24 20 0
15 7 20 25 20 16 0 25 6 25 15 0 9 11 20 25 25 16 6 25 17 25 31 0 18 4 20 30
14 23 -5 30 -3 30 9 0 9 -4 16 -10 16 -19 0 -10 29 11 35 15 5 19 13 16 27 -4
14 0 22 14 25 15 4 19 11 15 28 -5 20 18 56 28 44 9 -12 26 -133 20 -151 -3
-11 -1 -24 5 -27 6 -4 14 -21 17 -39 5 -25 3 -32 -10 -32 -23 0 -20 -24 20
-157 41 -137 62 -197 111 -310 31 -73 38 -82 57 -77 18 4 26 -6 58 -68 21 -40
50 -95 65 -122 25 -44 26 -49 10 -60 -15 -12 -11 -21 44 -102 73 -107 190
-252 253 -313 38 -37 48 -42 60 -32 13 11 28 2 93 -57 43 -38 91 -81 108 -95
26 -22 28 -27 15 -42 -13 -16 -11 -20 15 -42 57 -46 251 -172 350 -226 99 -54
100 -55 116 -34 l17 20 83 -35 c46 -20 106 -43 132 -53 36 -14 46 -22 42 -34
-4 -9 -7 -20 -8 -25 -4 -20 340 -110 499 -131 50 -6 52 -6 58 21 7 27 7 27 74
20 37 -3 100 -6 140 -6 l72 0 0 -32 0 -31 123 7 c124 7 283 27 392 49 58 12
60 13 57 42 l-3 30 123 35 c68 19 129 36 135 38 7 2 13 -2 13 -10 1 -39 16
-41 97 -10 158 61 433 201 433 220 0 4 -7 17 -15 29 -15 21 -12 24 67 78 46
31 96 66 111 78 19 14 30 18 35 11 4 -6 17 -15 30 -18 19 -6 35 3 90 51 95 83
198 186 271 272 l63 74 -25 21 -26 21 74 103 c40 56 75 108 78 115 3 9 12 8
35 -6 l30 -17 51 89 c76 133 191 390 191 427 0 7 -12 15 -26 18 -30 8 -31 1
17 164 l33 114 32 -6 31 -6 16 87 c36 197 42 272 41 498 -1 222 -11 340 -45
493 -11 53 -11 54 -43 48 l-32 -6 -35 122 c-19 68 -35 129 -37 136 -2 7 10 17
27 23 17 6 31 12 31 14 0 31 -194 446 -235 502 -12 16 -14 16 -40 -1 -15 -10
-30 -14 -35 -9 -4 4 -36 50 -71 101 -35 51 -68 99 -73 107 -7 9 -1 20 18 36
l27 24 -79 90 c-80 91 -268 275 -309 303 -22 13 -25 13 -44 -12 l-21 -27 -35
27 c-19 14 -70 51 -114 81 l-79 54 17 30 c16 28 16 29 -2 43 -81 60 -450 236
-495 236 -5 0 -11 -14 -15 -30 -4 -17 -9 -30 -12 -30 -3 0 -47 13 -97 29 -50
16 -110 34 -133 40 -41 11 -41 12 -32 44 5 17 9 32 9 33 0 0 -24 6 -52 12
-114 25 -259 44 -386 50 l-132 7 0 -32 c0 -33 -1 -33 -47 -33 -27 0 -92 -3
-145 -7 l-98 -6 0 26 c0 14 -4 28 -9 31 -22 14 -361 -57 -491 -102 -51 -18
-55 -22 -53 -49 3 -28 -1 -30 -115 -77 -64 -26 -123 -50 -129 -53 -7 -3 -18 7
-24 21 -7 14 -15 26 -18 26 -4 0 -60 -30 -125 -66 -98 -54 -121 -63 -131 -52
-6 7 -90 114 -186 238 -276 359 -610 784 -624 796 -11 8 -11 21 -3 59 8 36 7
50 -1 53 -17 6 -15 16 49 320 33 156 60 285 60 287 0 2 28 2 63 -2 56 -5 76
-1 185 36 387 132 433 218 147 280 -322 70 -896 133 -1235 135 -205 1 -277
-10 -322 -51 -41 -37 -23 -58 102 -126 142 -76 395 -150 710 -208 69 -12 129
-26 134 -30 6 -6 -91 -517 -110 -578 -2 -7 -11 -10 -20 -7 -11 4 -18 -1 -21
-14 -5 -20 -10 -21 -97 -14 -50 3 -974 68 -2053 143 -1079 75 -1965 140 -1969
143 -3 4 3 47 14 97 15 69 17 91 7 95 -9 3 -10 19 -3 61 35 223 -130 416 -437
511 -67 20 -100 37 -131 65 -54 49 -137 71 -194 53z m2769 -1335 c1108 -77
2016 -141 2018 -143 3 -3 -40 -204 -357 -1641 -66 -297 -140 -634 -165 -749
-49 -225 -62 -253 -105 -226 -10 6 -20 4 -32 -7 -14 -12 -21 -13 -31 -4 -11 9
-17 8 -27 -4 -7 -8 -23 -15 -37 -15 -13 0 -26 -7 -29 -15 -4 -10 -14 -13 -29
-9 -18 4 -25 1 -30 -15 -4 -14 -15 -21 -31 -21 -15 0 -24 -6 -24 -15 0 -9 -9
-15 -24 -15 -14 0 -26 -7 -28 -16 -2 -10 -550 469 -1583 1381 -869 768 -1593
1409 -1608 1424 l-28 27 21 94 c12 52 23 100 25 106 2 7 20 10 47 7 24 -2 949
-67 2057 -144z m2608 -744 c175 -225 328 -429 339 -452 l21 -43 -31 -24 c-17
-13 -65 -53 -106 -90 -70 -62 -75 -65 -92 -49 -17 15 -21 14 -54 -18 -57 -55
-194 -223 -262 -322 -62 -90 -62 -92 -43 -108 20 -16 20 -16 -3 -50 -13 -19
-44 -73 -70 -121 -43 -79 -50 -87 -67 -77 -17 9 -23 3 -49 -56 -59 -132 -130
-340 -154 -451 -6 -26 -4 -32 13 -37 17 -4 19 -9 11 -35 -4 -17 -16 -78 -26
-136 -14 -87 -20 -106 -34 -106 -21 0 -30 -28 -30 -92 0 -27 -4 -48 -10 -48
-5 0 -10 11 -10 25 0 18 -5 25 -20 25 -13 0 -20 7 -20 20 0 24 -53 80 -75 80
-8 0 -15 9 -15 20 0 15 -7 20 -24 20 -16 0 -27 7 -31 20 -5 15 -12 19 -31 14
-13 -3 -24 -4 -24 0 0 3 43 198 95 433 80 365 264 1199 418 1900 32 146 45
189 53 180 7 -7 155 -196 331 -422z m-5797 -453 c0 -153 2 -537 5 -853 3 -316
3 -569 0 -564 -2 6 -27 240 -55 520 -28 281 -52 517 -54 525 -10 44 -3 -66 24
-349 92 -974 100 -1074 86 -1060 -2 2 -43 173 -89 379 -47 206 -118 520 -158
698 -41 178 -75 319 -77 314 -2 -7 31 -162 242 -1128 36 -165 66 -307 66 -315
-1 -14 -120 310 -385 1049 -81 227 -150 411 -151 409 -2 -2 109 -325 246 -717
138 -392 249 -715 247 -717 -8 -8 -34 42 -372 712 -191 380 -352 695 -358 700
-7 7 -8 7 -4 0 34 -64 666 -1349 664 -1351 -12 -13 -123 143 -458 641 -210
314 -388 577 -396 585 -15 15 118 -189 520 -798 114 -172 207 -315 207 -318 0
-3 -49 37 -109 88 -85 71 -184 178 -431 463 -177 204 -334 381 -348 395 l-27
25 26 -30 c237 -275 567 -663 573 -673 4 -6 -229 187 -518 430 -288 244 -525
448 -525 454 -1 15 189 201 274 269 267 212 632 382 965 449 126 26 249 42
328 45 l42 1 0 -278z m285 268 c140 -15 325 -52 325 -65 0 -15 -62 -331 -99
-500 -27 -128 -93 -363 -295 -1055 -41 -140 -75 -250 -75 -245 -1 6 37 278 84
605 47 327 84 602 82 610 -1 8 -17 -82 -34 -200 -77 -519 -134 -886 -137 -895
-3 -5 -5 387 -5 873 l-1 882 33 0 c17 0 73 -5 122 -10z m7803 -78 c63 -11 115
-22 117 -24 2 -1 -23 -113 -55 -248 -31 -135 -80 -344 -109 -465 -152 -657
-240 -1036 -252 -1088 -7 -31 -14 -56 -16 -54 -1 2 40 302 92 668 53 365 94
671 93 678 -2 8 -23 -115 -47 -275 -121 -809 -162 -1068 -166 -1072 -15 -15
-16 77 -6 535 6 280 13 636 15 793 4 277 4 279 -4 75 -4 -115 -13 -394 -19
-620 -17 -648 -22 -729 -37 -713 -8 8 -19 69 -29 153 -21 199 -115 1127 -116
1156 -1 15 -3 18 -6 7 -4 -15 10 -174 77 -883 17 -170 30 -323 30 -340 l0 -30
-26 39 c-27 39 -27 39 -240 984 -27 117 -50 209 -52 204 -2 -7 104 -502 207
-967 16 -71 28 -131 27 -132 -1 -1 -28 33 -59 77 -60 84 -57 78 -319 813 -39
109 -72 196 -75 194 -2 -2 64 -197 147 -432 82 -235 150 -430 150 -433 0 -3
-14 14 -32 39 -18 24 -87 118 -153 209 -90 123 -143 207 -205 328 -45 89 -85
161 -87 158 -2 -2 23 -59 57 -127 33 -68 52 -113 43 -100 -10 13 -116 154
-236 312 -120 159 -219 292 -220 296 -3 10 152 91 263 138 391 166 836 218
1248 147z m-7123 -99 c255 -110 523 -291 703 -475 l52 -54 -277 -249 c-153
-138 -282 -252 -288 -254 -5 -2 31 39 80 91 50 52 11 15 -85 -82 -141 -142
-375 -357 -684 -629 -27 -23 -26 -20 10 29 39 56 667 913 688 939 6 8 7 12 1
9 -5 -4 -174 -227 -375 -496 -201 -270 -366 -490 -366 -489 -1 1 20 67 46 147
43 131 65 176 222 455 213 380 264 473 251 460 -6 -5 -99 -166 -207 -357 -109
-192 -199 -348 -200 -348 -2 0 12 55 30 123 18 67 59 228 90 357 31 129 62
250 70 268 8 19 9 30 3 26 -7 -4 -9 0 -6 12 15 52 30 118 72 325 25 125 45
230 45 234 0 9 32 -2 125 -42z m7620 -47 c458 -189 857 -549 1095 -986 l49
-90 -47 -24 c-26 -13 -423 -207 -882 -431 -459 -224 -848 -414 -865 -422 -71
-36 25 26 618 396 345 216 627 395 627 397 0 6 88 59 -630 -381 -338 -208
-626 -385 -640 -393 l-25 -15 20 20 c11 11 286 237 610 503 325 265 601 494
615 507 14 14 -85 -63 -220 -171 -852 -685 -1041 -835 -1009 -800 20 21 154
165 300 319 145 154 380 404 523 555 144 152 195 210 115 130 -80 -80 -261
-266 -404 -415 -397 -414 -568 -588 -564 -576 2 6 203 282 446 613 501 684
511 697 495 683 -6 -6 -216 -284 -467 -620 -250 -335 -455 -601 -455 -591 0
11 158 303 351 650 397 712 365 653 354 644 -4 -4 -158 -271 -341 -594 -184
-324 -334 -584 -334 -580 0 5 10 50 21 100 14 59 96 274 230 605 115 283 208
516 206 518 -2 2 -89 -201 -193 -451 -103 -251 -189 -454 -190 -453 -1 1 17
85 42 187 24 102 97 419 164 705 66 286 123 528 126 537 4 15 13 14 87 -11 45
-16 123 -45 172 -65z m-2228 -318 c45 -50 751 -996 886 -1188 33 -47 -88 88
-387 433 -185 213 -339 387 -342 387 -3 0 46 -60 108 -132 752 -879 804 -940
843 -1008 4 -8 -3 -6 -16 6 -22 19 -1004 892 -1094 973 l-40 36 40 -42 c22
-22 291 -269 598 -547 306 -278 553 -506 548 -506 -5 0 -263 174 -573 386
-310 213 -606 416 -658 452 -52 36 -88 58 -80 50 8 -8 278 -199 600 -423 322
-224 592 -414 600 -422 45 -41 -176 60 -532 243 -222 113 -491 252 -598 307
-107 55 -190 95 -185 90 6 -6 245 -133 532 -284 287 -150 521 -274 520 -275
-1 -1 -343 111 -760 249 -707 235 -757 252 -751 272 4 11 27 67 53 125 88 199
231 416 390 591 68 74 258 249 272 249 3 0 15 -10 26 -22z m-4412 -454 c145
-215 276 -532 330 -796 23 -118 53 -364 44 -372 -2 -2 -276 -6 -609 -9 l-605
-6 318 57 c175 31 314 58 308 60 -5 2 -173 -24 -373 -57 -335 -56 -377 -60
-545 -63 -100 -2 -176 0 -170 3 7 4 240 77 519 164 280 87 506 160 504 162 -2
2 -257 -73 -566 -166 -375 -114 -578 -171 -608 -171 -28 0 -42 4 -36 9 5 5
276 132 602 281 326 150 591 274 589 276 -2 2 -82 -32 -178 -75 -96 -43 -381
-172 -633 -285 -253 -114 -468 -206 -478 -204 -11 2 226 156 602 392 341 213
620 391 620 393 0 3 -10 -1 -22 -9 -160 -103 -1271 -779 -1274 -775 -5 5 21
27 684 570 259 213 472 390 472 393 0 3 -57 -41 -127 -98 -71 -56 -281 -226
-468 -376 -187 -151 -347 -280 -356 -286 -30 -22 125 119 714 648 l599 536 38
-48 c21 -27 69 -93 105 -148z m-2980 -415 c600 -507 900 -768 891 -776 -2 -2
-257 170 -567 383 -310 213 -607 416 -659 452 -52 36 -88 58 -80 50 8 -9 296
-212 639 -452 343 -240 616 -436 606 -436 -9 0 -295 142 -634 316 -710 365
-679 349 -666 337 9 -9 1126 -597 1202 -633 18 -8 32 -18 33 -22 1 -20 -126
21 -675 219 -330 118 -607 218 -615 221 -8 3 -12 2 -9 -1 5 -6 315 -122 919
-344 129 -48 239 -90 245 -95 5 -4 -28 -8 -72 -8 -67 0 -175 21 -604 115 -287
64 -526 114 -531 113 -5 -2 166 -43 379 -92 213 -49 431 -99 483 -111 l95 -23
-285 -4 c-157 -1 -364 -3 -460 -3 -96 -1 -310 -2 -475 -4 l-300 -2 3 88 c15
406 173 852 429 1211 l45 64 22 -20 c11 -11 300 -255 641 -543z m10873 -162
c132 -398 156 -771 76 -1167 -14 -69 -31 -137 -37 -151 l-12 -26 -572 191
c-315 104 -571 191 -569 193 1 1 134 -27 296 -62 285 -63 318 -70 309 -61 -2
2 -184 45 -404 95 -263 60 -462 112 -580 151 -99 32 -170 59 -157 59 12 1 282
-22 600 -49 317 -28 588 -50 602 -48 14 2 -279 32 -650 67 -371 35 -690 69
-710 75 l-35 11 35 2 c19 1 310 14 645 28 336 14 626 27 645 29 101 8 -173 4
-525 -9 -765 -28 -763 -28 -734 -11 14 8 305 64 645 123 340 59 610 109 599
111 -11 1 -270 -40 -575 -91 -305 -52 -557 -92 -559 -91 -2 2 48 28 110 57 83
39 251 96 607 207 270 84 490 155 488 157 -2 2 -197 -54 -432 -126 -236 -71
-429 -129 -431 -128 -3 4 1251 616 1263 616 6 1 34 -68 62 -152z m-2676 -585
c-4 -1 -246 50 -536 113 -290 64 -531 114 -534 111 -3 -3 -1 -6 4 -6 5 0 206
-45 447 -100 240 -55 439 -100 442 -100 3 0 5 -9 5 -20 0 -11 5 -20 10 -20 6
0 10 7 10 15 0 8 7 15 15 15 8 0 15 -7 15 -15 0 -18 27 -20 33 -2 3 9 7 9 20
-1 8 -7 21 -12 29 -11 7 1 20 0 28 -3 8 -3 56 -13 105 -23 50 -9 97 -21 105
-26 33 -19 -168 -7 -725 41 -318 28 -588 50 -599 48 -12 -2 188 -22 444 -46
506 -47 595 -59 440 -61 -52 0 -400 -8 -772 -18 -373 -9 -680 -14 -683 -12 -8
8 13 258 30 354 15 88 61 281 70 295 2 4 365 -113 805 -259 441 -146 797 -267
792 -269z m-4846 -229 c-27 -383 -165 -781 -384 -1109 -122 -182 -95 -179
-268 -33 -81 68 -197 166 -258 217 -61 52 -110 98 -109 103 2 4 -24 27 -57 49
-50 34 -202 159 -568 470 -38 32 -3 15 651 -320 152 -78 277 -139 277 -137 0
3 -233 127 -517 276 -337 177 -537 287 -571 316 -30 25 -50 45 -45 45 5 0 271
-95 592 -210 321 -116 585 -209 587 -207 2 2 -274 106 -613 231 -576 213 -672
251 -660 262 2 3 302 -61 667 -141 364 -80 664 -144 667 -141 2 2 -11 7 -29
11 -18 4 -316 72 -663 152 -346 79 -645 147 -663 150 -53 9 -49 25 5 18 115
-14 1330 -115 1348 -113 16 2 -719 76 -1313 131 -62 5 -111 11 -109 13 2 2
158 10 348 18 189 9 387 18 439 22 82 6 609 16 1104 22 l149 2 -7 -97z m-1667
73 c-2 -2 -89 -6 -194 -8 -104 -3 -179 -2 -165 2 24 8 368 14 359 6z m-824
-24 c26 -9 19 -10 -45 -11 -41 -1 -379 -15 -750 -31 -371 -16 -699 -30 -729
-30 -30 0 -52 -3 -48 -6 3 -3 151 -1 329 5 178 7 508 18 733 26 226 8 435 14
465 14 67 -1 14 -11 -838 -160 -327 -57 -590 -105 -585 -106 5 -2 335 51 733
117 398 66 728 119 733 117 5 -1 -306 -101 -692 -222 -385 -120 -699 -220
-697 -222 2 -2 296 84 652 192 357 108 658 199 669 202 16 5 18 3 8 -9 -7 -8
-289 -142 -628 -298 -338 -156 -614 -285 -612 -287 2 -1 240 103 528 233 288
130 549 247 579 260 l55 24 -65 -59 c-43 -39 -237 -167 -562 -372 -274 -171
-498 -314 -498 -316 0 -5 -55 -39 435 262 231 142 431 265 445 273 23 14 24
14 10 0 -8 -9 -238 -215 -510 -458 -272 -244 -511 -458 -531 -477 l-37 -35
-84 114 c-143 191 -229 347 -314 565 -74 188 -144 504 -144 647 l0 46 138 1
c75 1 385 5 687 9 658 9 1129 5 1170 -8z m8551 -216 c186 -63 458 -157 603
-210 145 -53 266 -94 268 -92 2 2 -19 12 -47 21 -28 9 -50 19 -47 21 3 3 667
-215 676 -222 7 -6 -70 -186 -126 -294 -106 -204 -275 -434 -427 -579 -37 -35
-68 -62 -70 -60 -2 2 -173 225 -381 494 -208 270 -385 499 -394 510 -15 19
-15 19 4 4 16 -13 462 -408 630 -558 22 -20 30 -25 18 -12 -12 14 -183 171
-380 350 -293 268 -373 346 -445 439 -49 61 -86 112 -84 112 2 0 194 -131 427
-291 591 -406 646 -444 629 -427 -8 9 -258 185 -555 393 -467 326 -603 428
-605 456 0 4 188 -90 418 -208 229 -118 518 -266 642 -330 124 -63 221 -111
215 -106 -5 6 -300 162 -655 348 -581 304 -676 355 -659 355 3 0 158 -51 345
-114z m-7371 -581 c390 -330 713 -603 719 -607 7 -5 -14 -33 -54 -74 -290
-297 -703 -522 -1125 -615 -106 -23 -297 -49 -361 -49 l-44 0 0 558 c0 306 -2
582 -5 612 -4 47 -3 50 5 20 5 -19 24 -188 42 -375 18 -187 34 -330 36 -319 3
20 -23 321 -63 724 -16 161 -31 518 -22 510 6 -6 36 -136 219 -943 45 -202 84
-364 86 -359 1 5 -29 155 -68 333 -191 874 -240 1103 -237 1112 2 6 115 -301
252 -682 136 -380 250 -689 252 -688 2 2 -24 82 -58 178 -33 96 -92 262 -129
369 -172 490 -280 799 -295 840 -9 25 -12 40 -7 35 5 -6 175 -338 377 -740
202 -401 372 -734 377 -740 6 -6 6 -1 0 11 -70 136 -731 1478 -730 1480 2 1
201 -293 443 -653 242 -360 444 -657 448 -660 8 -5 -49 83 -540 827 -326 496
-344 523 -326 505 6 -5 241 -275 523 -600 282 -324 526 -603 543 -620 39 -39
-13 23 -561 663 -481 561 -522 612 -456 551 21 -20 188 -168 369 -330 182
-161 432 -385 558 -497 125 -112 227 -201 227 -198 0 3 -246 229 -547 502
-302 273 -566 515 -588 537 -39 40 -39 40 -4 11 20 -16 355 -299 744 -629z
m6204 622 c-17 -13 -149 -67 -162 -67 -9 0 -17 -4 -17 -10 0 -5 -7 -10 -15
-10 -8 0 -15 5 -15 10 0 6 -7 10 -16 10 -10 0 -14 -7 -12 -20 3 -18 -51 -46
-434 -222 -241 -111 -436 -203 -435 -205 3 -3 402 175 776 346 74 34 136 60
138 58 2 -2 -52 -30 -119 -62 -68 -32 -366 -177 -662 -322 -297 -145 -543
-260 -547 -256 -12 12 -76 167 -103 247 -51 150 -118 447 -105 461 6 5 781 27
786 22 2 -2 -63 -15 -144 -28 -81 -13 -141 -25 -131 -27 9 -2 95 11 192 27
127 22 222 32 343 36 93 3 229 8 303 10 74 3 132 3 129 1 -3 -3 -85 -30 -183
-61 -113 -35 -187 -53 -202 -49 -18 5 -24 2 -24 -10 0 -9 -7 -16 -15 -16 -8 0
-15 5 -15 10 0 6 -7 10 -15 10 -8 0 -15 -8 -15 -17 0 -14 -36 -29 -175 -72
-97 -30 -173 -56 -171 -58 2 -2 102 26 223 62 120 37 229 67 242 67 14 0 32 7
40 16 10 10 16 11 19 3 5 -16 32 -13 32 4 0 20 26 19 34 -2 5 -13 9 -14 19 -4
9 9 9 14 -2 20 -9 6 14 17 75 35 49 15 109 34 134 43 51 18 271 36 249 20z
m359 -13 c-7 -15 -14 -21 -16 -15 -2 7 2 18 8 26 18 22 21 18 8 -11z m-18
-320 c-50 -187 -111 -411 -135 -499 -137 -505 -166 -617 -162 -621 2 -3 11 21
19 53 21 78 224 812 249 893 33 113 15 28 -105 -485 -64 -275 -140 -597 -167
-715 -28 -118 -52 -223 -55 -233 -8 -24 -38 -19 -199 34 -238 79 -532 243
-723 403 -104 87 -264 253 -342 355 -66 88 -184 270 -178 276 7 7 878 433 878
430 0 -2 -106 -70 -235 -151 -129 -80 -235 -148 -235 -151 0 -2 3 -2 8 0 4 3
144 89 312 192 224 138 368 218 540 302 129 63 226 105 215 95 -11 -11 -233
-194 -492 -406 -260 -213 -473 -390 -473 -392 0 -3 127 98 283 223 663 536
811 651 849 667 l41 15 -64 -67 c-35 -37 -219 -231 -409 -432 -189 -201 -383
-405 -430 -455 -47 -49 -76 -83 -66 -75 11 8 186 188 390 400 446 464 654 675
660 669 2 -2 -190 -267 -426 -589 -513 -698 -474 -645 -462 -638 5 4 207 272
449 597 242 325 445 591 452 591 8 0 6 -11 -6 -32 -34 -59 -687 -1232 -701
-1258 -7 -14 -8 -20 -3 -15 6 6 171 294 368 640 196 347 364 641 372 653 49
78 12 -18 -401 -1032 -69 -170 -124 -311 -123 -313 4 -3 576 1368 585 1400 2
10 6 16 9 14 2 -3 -37 -157 -87 -343z m390 314 l23 -33 -26 24 c-15 14 -27 28
-27 33 0 14 5 9 30 -24z m-8026 10 c-7 -12 -849 -1162 -913 -1247 -14 -19 -21
-32 -16 -29 6 4 221 290 480 636 259 347 471 629 472 628 2 -1 -151 -279 -340
-617 -392 -702 -434 -778 -420 -764 6 6 182 314 393 685 210 371 387 680 392
685 5 6 0 -12 -12 -40 -12 -27 -78 -189 -147 -360 -69 -170 -186 -458 -259
-639 -74 -181 -133 -331 -131 -333 2 -2 45 95 95 214 49 120 174 421 277 668
166 399 221 526 200 461 -3 -10 -39 -143 -80 -295 -40 -152 -96 -359 -124
-461 -165 -611 -192 -713 -188 -716 2 -2 49 162 105 364 57 202 143 511 192
687 50 176 95 339 101 363 7 23 13 41 16 38 2 -2 -44 -338 -102 -746 -58 -408
-104 -747 -102 -753 2 -6 11 41 20 104 31 216 177 1184 181 1199 2 8 4 -369 5
-837 l1 -853 -43 0 c-59 0 -256 25 -347 45 -378 80 -732 256 -1025 507 -126
109 -143 127 -129 136 6 4 293 261 639 572 704 633 739 663 644 564 -136 -143
-944 -1001 -993 -1055 -92 -100 543 556 999 1032 88 92 161 168 163 168 2 1 0
-5 -4 -11z m8160 -209 c120 -139 909 -1140 1025 -1301 16 -23 22 -18 -134
-121 -136 -91 -229 -142 -366 -200 -308 -131 -653 -197 -959 -184 -137 6 -296
24 -316 36 -8 4 9 95 56 296 37 160 76 325 85 368 10 43 19 76 21 74 2 -2 -5
-64 -16 -137 -12 -73 -19 -140 -18 -149 2 -9 20 99 41 239 23 151 62 357 97
505 32 138 64 277 71 310 21 102 28 95 23 -25 -9 -231 -25 -1212 -20 -1218 3
-3 6 28 6 68 0 76 13 541 30 1075 6 192 15 329 23 360 l13 50 6 -45 c4 -25 35
-328 70 -675 34 -346 64 -620 66 -608 2 12 -8 143 -22 290 -32 335 -106 1124
-106 1129 0 2 4 4 9 4 4 0 11 -15 14 -32 3 -18 49 -222 102 -453 52 -231 119
-522 147 -647 29 -125 54 -226 56 -224 2 2 -64 316 -148 697 -83 380 -149 696
-148 701 3 9 73 -182 399 -1090 61 -172 114 -311 116 -309 2 2 -53 163 -121
358 -157 446 -332 947 -357 1019 -10 30 -13 48 -6 39 6 -9 169 -328 361 -708
192 -380 351 -689 353 -687 2 1 -152 315 -341 697 -294 592 -357 725 -332 698
2 -2 198 -293 436 -646 237 -354 433 -643 436 -643 4 0 -50 83 -533 815 -170
259 -313 477 -318 485 -20 35 47 -36 199 -211z"/>
<path d="M7612 2839 c2 -6 8 -10 13 -10 5 0 11 4 13 10 2 6 -4 11 -13 11 -9 0
-15 -5 -13 -11z"/>
<path d="M2372 4390 c0 -14 2 -19 5 -12 2 6 2 18 0 25 -3 6 -5 1 -5 -13z"/>
<path d="M2383 4300 c0 -25 2 -35 4 -22 2 12 2 32 0 45 -2 12 -4 2 -4 -23z"/>
<path d="M2161 4294 c0 -11 3 -14 6 -6 3 7 2 16 -1 19 -3 4 -6 -2 -5 -13z"/>
<path d="M2171 4244 c0 -11 3 -14 6 -6 3 7 2 16 -1 19 -3 4 -6 -2 -5 -13z"/>
<path d="M1305 3970 c10 -11 20 -20 23 -20 3 0 -3 9 -13 20 -10 11 -20 20 -23
20 -3 0 3 -9 13 -20z"/>
<path d="M2831 4414 c0 -11 3 -14 6 -6 3 7 2 16 -1 19 -3 4 -6 -2 -5 -13z"/>
<path d="M2822 4330 c0 -14 2 -19 5 -12 2 6 2 18 0 25 -3 6 -5 1 -5 -13z"/>
<path d="M2812 4270 c0 -19 2 -27 5 -17 2 9 2 25 0 35 -3 9 -5 1 -5 -18z"/>
<path d="M10021 4484 c0 -11 3 -14 6 -6 3 7 2 16 -1 19 -3 4 -6 -2 -5 -13z"/>
<path d="M10481 4434 c0 -11 3 -14 6 -6 3 7 2 16 -1 19 -3 4 -6 -2 -5 -13z"/>
<path d="M10472 4380 c0 -14 2 -19 5 -12 2 6 2 18 0 25 -3 6 -5 1 -5 -13z"/>
<path d="M10032 4360 c0 -19 2 -27 5 -17 2 9 2 25 0 35 -3 9 -5 1 -5 -18z"/>
<path d="M9570 4365 c0 -5 5 -17 10 -25 5 -8 10 -10 10 -5 0 6 -5 17 -10 25
-5 8 -10 11 -10 5z"/>
<path d="M9811 4344 c0 -11 3 -14 6 -6 3 7 2 16 -1 19 -3 4 -6 -2 -5 -13z"/>
<path d="M10462 4305 c0 -16 2 -22 5 -12 2 9 2 23 0 30 -3 6 -5 -1 -5 -18z"/>
<path d="M9821 4304 c0 -11 3 -14 6 -6 3 7 2 16 -1 19 -3 4 -6 -2 -5 -13z"/>
<path d="M3256 4235 c-9 -26 -7 -32 5 -12 6 10 9 21 6 23 -2 3 -7 -2 -11 -11z"/>
<path d="M3465 4140 c-9 -16 -13 -30 -11 -30 3 0 12 14 21 30 9 17 13 30 11
30 -3 0 -12 -13 -21 -30z"/>
<path d="M3679 4043 c-13 -16 -12 -17 4 -4 16 13 21 21 13 21 -2 0 -10 -8 -17
-17z"/>
<path d="M3884 3918 l-29 -33 33 29 c17 17 32 31 32 33 0 8 -8 1 -36 -29z"/>
<path d="M10892 4245 c-17 -37 -14 -45 4 -12 9 16 14 31 11 33 -2 2 -9 -7 -15
-21z"/>
<path d="M11110 4180 c-6 -11 -8 -20 -6 -20 3 0 10 9 16 20 6 11 8 20 6 20 -3
0 -10 -9 -16 -20z"/>
<path d="M11329 4093 c-13 -16 -12 -17 4 -4 16 13 21 21 13 21 -2 0 -10 -8
-17 -17z"/>
<path d="M11530 3965 c-24 -25 -42 -45 -39 -45 3 0 25 20 49 45 24 25 42 45
39 45 -3 0 -25 -20 -49 -45z"/>
<path d="M11669 3763 c-13 -16 -12 -17 4 -4 16 13 21 21 13 21 -2 0 -10 -8
-17 -17z"/>
<path d="M11723 3519 c-35 -22 -46 -37 -15 -20 22 13 58 40 52 41 -3 0 -20
-10 -37 -21z"/>
<path d="M8980 3995 c13 -14 26 -25 28 -25 3 0 -5 11 -18 25 -13 14 -26 25
-28 25 -3 0 5 -11 18 -25z"/>
<path d="M8760 3876 c0 -2 8 -10 18 -17 15 -13 16 -12 3 4 -13 16 -21 21 -21
13z"/>
<path d="M4019 3713 c-13 -16 -12 -17 4 -4 9 7 17 15 17 17 0 8 -8 3 -21 -13z"/>
<path d="M3964 3668 l-19 -23 23 19 c12 11 22 21 22 23 0 8 -8 2 -26 -19z"/>
<path d="M4104 3484 c-18 -14 -18 -15 4 -4 12 6 22 13 22 15 0 8 -5 6 -26 -11z"/>
<path d="M4190 3270 c-8 -5 -10 -10 -5 -10 6 0 17 5 25 10 8 5 11 10 5 10 -5
0 -17 -5 -25 -10z"/>
<path d="M4248 3043 c7 -3 16 -2 19 1 4 3 -2 6 -13 5 -11 0 -14 -3 -6 -6z"/>
<path d="M4195 3030 c-13 -6 -15 -9 -5 -9 8 0 22 4 30 9 18 12 2 12 -25 0z"/>
<path d="M4378 2833 c7 -3 16 -2 19 1 4 3 -2 6 -13 5 -11 0 -14 -3 -6 -6z"/>
<path d="M4328 2823 c7 -3 16 -2 19 1 4 3 -2 6 -13 5 -11 0 -14 -3 -6 -6z"/>
<path d="M4258 2813 c6 -2 18 -2 25 0 6 3 1 5 -13 5 -14 0 -19 -2 -12 -5z"/>
<path d="M830 3150 c8 -5 20 -10 25 -10 6 0 3 5 -5 10 -8 5 -19 10 -25 10 -5
0 -3 -5 5 -10z"/>
<path d="M848 2903 c7 -3 16 -2 19 1 4 3 -2 6 -13 5 -11 0 -14 -3 -6 -6z"/>
<path d="M668 2693 c6 -2 18 -2 25 0 6 3 1 5 -13 5 -14 0 -19 -2 -12 -5z"/>
<path d="M763 2683 c15 -2 37 -2 50 0 12 2 0 4 -28 4 -27 0 -38 -2 -22 -4z"/>
<path d="M878 2673 c12 -2 30 -2 40 0 9 3 -1 5 -23 4 -22 0 -30 -2 -17 -4z"/>
<path d="M11935 3110 c-13 -6 -15 -9 -5 -9 8 0 22 4 30 9 18 12 2 12 -25 0z"/>
<path d="M11958 2873 c7 -3 16 -2 19 1 4 3 -2 6 -13 5 -11 0 -14 -3 -6 -6z"/>
<path d="M11893 2863 c9 -2 25 -2 35 0 9 3 1 5 -18 5 -19 0 -27 -2 -17 -5z"/>
<path d="M11838 2853 c6 -2 18 -2 25 0 6 3 1 5 -13 5 -14 0 -19 -2 -12 -5z"/>
<path d="M11928 2643 c28 -2 76 -2 105 0 28 2 5 3 -53 3 -58 0 -81 -1 -52 -3z"/>
<path d="M11948 2413 c12 -2 30 -2 40 0 9 3 -1 5 -23 4 -22 0 -30 -2 -17 -4z"/>
<path d="M12038 2403 c7 -3 16 -2 19 1 4 3 -2 6 -13 5 -11 0 -14 -3 -6 -6z"/>
<path d="M11848 2203 c6 -2 18 -2 25 0 6 3 1 5 -13 5 -14 0 -19 -2 -12 -5z"/>
<path d="M11898 2193 c7 -3 16 -2 19 1 4 3 -2 6 -13 5 -11 0 -14 -3 -6 -6z"/>
<path d="M11938 2183 c6 -2 18 -2 25 0 6 3 1 5 -13 5 -14 0 -19 -2 -12 -5z"/>
<path d="M11988 2173 c7 -3 16 -2 19 1 4 3 -2 6 -13 5 -11 0 -14 -3 -6 -6z"/>
<path d="M8458 2963 c6 -2 18 -2 25 0 6 3 1 5 -13 5 -14 0 -19 -2 -12 -5z"/>
<path d="M8508 2953 c7 -3 16 -2 19 1 4 3 -2 6 -13 5 -11 0 -14 -3 -6 -6z"/>
<path d="M8548 2943 c6 -2 18 -2 25 0 6 3 1 5 -13 5 -14 0 -19 -2 -12 -5z"/>
<path d="M8000 2815 c0 -9 5 -15 11 -13 6 2 11 8 11 13 0 5 -5 11 -11 13 -6 2
-11 -4 -11 -13z"/>
<path d="M8050 2805 c0 -8 7 -15 15 -15 8 0 15 7 15 15 0 8 -7 15 -15 15 -8 0
-15 -7 -15 -15z"/>
<path d="M8110 2805 c0 -8 5 -15 10 -15 6 0 10 7 10 15 0 8 -4 15 -10 15 -5 0
-10 -7 -10 -15z"/>
<path d="M8162 2799 c2 -6 8 -10 13 -10 5 0 11 4 13 10 2 6 -4 11 -13 11 -9 0
-15 -5 -13 -11z"/>
<path d="M8220 2794 c0 -17 22 -14 28 4 2 7 -3 12 -12 12 -9 0 -16 -7 -16 -16z"/>
<path d="M8277 2803 c-12 -11 -8 -23 8 -23 8 0 15 7 15 15 0 16 -12 20 -23 8z"/>
<path d="M8330 2784 c0 -17 22 -14 28 4 2 7 -3 12 -12 12 -9 0 -16 -7 -16 -16z"/>
<path d="M8380 2785 c0 -8 7 -15 15 -15 8 0 15 7 15 15 0 8 -7 15 -15 15 -8 0
-15 -7 -15 -15z"/>
<path d="M8440 2785 c0 -8 7 -15 15 -15 8 0 15 4 15 9 0 5 -7 11 -15 15 -9 3
-15 0 -15 -9z"/>
<path d="M8490 2775 c0 -8 7 -15 15 -15 8 0 15 7 15 15 0 8 -7 15 -15 15 -8 0
-15 -7 -15 -15z"/>
<path d="M8550 2776 c0 -9 7 -16 16 -16 9 0 14 5 12 12 -6 18 -28 21 -28 4z"/>
<path d="M8600 2770 c0 -5 7 -10 15 -10 8 0 15 5 15 10 0 6 -7 10 -15 10 -8 0
-15 -4 -15 -10z"/>
<path d="M8660 2765 c0 -8 7 -15 15 -15 8 0 15 7 15 15 0 8 -7 15 -15 15 -8 0
-15 -7 -15 -15z"/>
<path d="M8717 2773 c-12 -11 -8 -23 8 -23 8 0 15 7 15 15 0 16 -12 20 -23 8z"/>
<path d="M8770 2754 c0 -17 22 -14 28 4 2 7 -3 12 -12 12 -9 0 -16 -7 -16 -16z"/>
<path d="M8827 2763 c-12 -11 -8 -23 8 -23 8 0 15 7 15 15 0 16 -12 20 -23 8z"/>
<path d="M8880 2750 c0 -5 7 -10 15 -10 8 0 15 5 15 10 0 6 -7 10 -15 10 -8 0
-15 -4 -15 -10z"/>
<path d="M8932 2748 c6 -18 28 -21 28 -4 0 9 -7 16 -16 16 -9 0 -14 -5 -12
-12z"/>
<path d="M8990 2746 c0 -9 7 -16 16 -16 17 0 14 22 -4 28 -7 2 -12 -3 -12 -12z"/>
<path d="M9047 2744 c-8 -8 1 -24 14 -24 5 0 9 7 9 15 0 15 -12 20 -23 9z"/>
<path d="M9100 2735 c0 -8 7 -15 15 -15 8 0 15 7 15 15 0 8 -7 15 -15 15 -8 0
-15 -7 -15 -15z"/>
<path d="M9156 2743 c-11 -11 -6 -23 9 -23 8 0 15 4 15 9 0 13 -16 22 -24 14z"/>
<path d="M8448 2733 c12 -2 30 -2 40 0 9 3 -1 5 -23 4 -22 0 -30 -2 -17 -4z"/>
<path d="M9210 2725 c0 -8 7 -15 15 -15 8 0 15 7 15 15 0 8 -7 15 -15 15 -8 0
-15 -7 -15 -15z"/>
<path d="M9270 2725 c0 -8 5 -15 10 -15 6 0 10 7 10 15 0 8 -4 15 -10 15 -5 0
-10 -7 -10 -15z"/>
<path d="M9322 2719 c2 -6 8 -10 13 -10 5 0 11 4 13 10 2 6 -4 11 -13 11 -9 0
-15 -5 -13 -11z"/>
<path d="M9380 2715 c0 -8 5 -15 10 -15 6 0 10 7 10 15 0 8 -4 15 -10 15 -5 0
-10 -7 -10 -15z"/>
<path d="M9436 2723 c-11 -11 -6 -23 9 -23 8 0 15 4 15 9 0 13 -16 22 -24 14z"/>
<path d="M4263 2363 c15 -2 37 -2 50 0 12 2 0 4 -28 4 -27 0 -38 -2 -22 -4z"/>
<path d="M4388 2353 c6 -2 18 -2 25 0 6 3 1 5 -13 5 -14 0 -19 -2 -12 -5z"/>
<path d="M4228 2143 c6 -2 18 -2 25 0 6 3 1 5 -13 5 -14 0 -19 -2 -12 -5z"/>
<path d="M4278 2133 c7 -3 16 -2 19 1 4 3 -2 6 -13 5 -11 0 -14 -3 -6 -6z"/>
<path d="M4318 2123 c7 -3 16 -2 19 1 4 3 -2 6 -13 5 -11 0 -14 -3 -6 -6z"/>
<path d="M4170 1932 c8 -5 26 -13 40 -16 17 -5 20 -4 10 2 -8 5 -26 13 -40 16
-17 5 -20 4 -10 -2z"/>
<path d="M3836 1632 c111 -79 234 -162 234 -158 0 6 -256 186 -266 186 -4 0
11 -13 32 -28z"/>
<path d="M803 2223 c9 -2 23 -2 30 0 6 3 -1 5 -18 5 -16 0 -22 -2 -12 -5z"/>
<path d="M748 2213 c7 -3 16 -2 19 1 4 3 -2 6 -13 5 -11 0 -14 -3 -6 -6z"/>
<path d="M868 2003 c7 -3 16 -2 19 1 4 3 -2 6 -13 5 -11 0 -14 -3 -6 -6z"/>
<path d="M950 1795 c-14 -8 -20 -14 -15 -14 6 0 21 6 35 14 14 8 21 14 15 14
-5 0 -21 -6 -35 -14z"/>
<path d="M994 1554 c-18 -14 -18 -15 4 -4 12 6 22 13 22 15 0 8 -5 6 -26 -11z"/>
<path d="M11800 1992 c8 -5 26 -13 40 -16 17 -5 20 -4 10 2 -8 5 -26 13 -40
16 -17 5 -20 4 -10 -2z"/>
<path d="M11650 1275 c13 -14 26 -25 28 -25 3 0 -5 11 -18 25 -13 14 -26 25
-28 25 -3 0 5 -11 18 -25z"/>
<path d="M3940 1275 c19 -19 36 -35 39 -35 3 0 -10 16 -29 35 -19 19 -36 35
-39 35 -3 0 10 -16 29 -35z"/>
<path d="M3810 1066 c0 -2 8 -10 18 -17 15 -13 16 -12 3 4 -13 16 -21 21 -21
13z"/>
<path d="M2723 820 c0 -25 2 -35 4 -22 2 12 2 32 0 45 -2 12 -4 2 -4 -23z"/>
<path d="M3150 845 c0 -5 5 -17 10 -25 5 -8 10 -10 10 -5 0 6 -5 17 -10 25 -5
8 -10 11 -10 5z"/>
<path d="M2941 784 c0 -11 3 -14 6 -6 3 7 2 16 -1 19 -3 4 -6 -2 -5 -13z"/>
<path d="M2951 734 c0 -11 3 -14 6 -6 3 7 2 16 -1 19 -3 4 -6 -2 -5 -13z"/>
<path d="M2732 710 c0 -19 2 -27 5 -17 2 9 2 25 0 35 -3 9 -5 1 -5 -18z"/>
<path d="M2741 624 c0 -11 3 -14 6 -6 3 7 2 16 -1 19 -3 4 -6 -2 -5 -13z"/>
<path d="M8438 2273 c6 -2 18 -2 25 0 6 3 1 5 -13 5 -14 0 -19 -2 -12 -5z"/>
<path d="M9357 2273 c-13 -12 -7 -23 13 -23 13 0 18 5 14 15 -7 16 -17 19 -27
8z"/>
<path d="M9410 2265 c0 -10 7 -15 18 -13 21 4 19 22 -2 26 -10 2 -16 -3 -16
-13z"/>
<path d="M8398 2263 c7 -3 16 -2 19 1 4 3 -2 6 -13 5 -11 0 -14 -3 -6 -6z"/>
<path d="M9290 2255 c0 -8 7 -15 15 -15 8 0 15 7 15 15 0 8 -7 15 -15 15 -8 0
-15 -7 -15 -15z"/>
<path d="M8930 2225 c0 -8 7 -15 15 -15 8 0 15 7 15 15 0 8 -7 15 -15 15 -8 0
-15 -7 -15 -15z"/>
<path d="M8813 2215 c-3 -9 -3 -18 0 -21 9 -9 27 6 27 22 0 19 -19 18 -27 -1z"/>
<path d="M8870 2215 c0 -8 7 -15 15 -15 8 0 15 7 15 15 0 8 -7 15 -15 15 -8 0
-15 -7 -15 -15z"/>
<path d="M8750 2205 c0 -8 7 -15 15 -15 8 0 15 7 15 15 0 8 -7 15 -15 15 -8 0
-15 -7 -15 -15z"/>
<path d="M8630 2195 c0 -8 7 -15 15 -15 8 0 15 7 15 15 0 8 -7 15 -15 15 -8 0
-15 -7 -15 -15z"/>
<path d="M8690 2195 c0 -8 7 -15 15 -15 8 0 15 7 15 15 0 8 -7 15 -15 15 -8 0
-15 -7 -15 -15z"/>
<path d="M8510 2185 c0 -8 7 -15 15 -15 8 0 15 7 15 15 0 8 -7 15 -15 15 -8 0
-15 -7 -15 -15z"/>
<path d="M8570 2185 c0 -8 7 -15 15 -15 8 0 15 7 15 15 0 8 -7 15 -15 15 -8 0
-15 -7 -15 -15z"/>
<path d="M8390 2170 c0 -13 5 -20 13 -17 6 2 12 10 12 17 0 7 -6 15 -12 18 -8
2 -13 -5 -13 -18z"/>
<path d="M8450 2175 c0 -8 7 -15 15 -15 8 0 15 7 15 15 0 8 -7 15 -15 15 -8 0
-15 -7 -15 -15z"/>
<path d="M8330 2165 c0 -8 7 -15 15 -15 8 0 15 7 15 15 0 8 -7 15 -15 15 -8 0
-15 -7 -15 -15z"/>
<path d="M8210 2156 c0 -9 7 -16 16 -16 17 0 14 22 -4 28 -7 2 -12 -3 -12 -12z"/>
<path d="M8270 2154 c0 -17 22 -14 28 4 2 7 -3 12 -12 12 -9 0 -16 -7 -16 -16z"/>
<path d="M8086 2152 c-9 -14 9 -31 23 -23 7 5 10 14 7 20 -8 13 -23 14 -30 3z"/>
<path d="M8146 2145 c4 -8 12 -15 20 -15 8 0 14 7 14 15 0 8 -9 15 -20 15 -13
0 -18 -5 -14 -15z"/>
<path d="M8022 2138 c5 -15 28 -18 29 -3 0 6 -7 12 -17 13 -10 3 -15 -1 -12
-10z"/>
<path d="M8570 2075 c-19 -7 -28 -13 -20 -13 8 0 31 6 50 13 19 7 28 13 20 13
-8 0 -31 -6 -50 -13z"/>
<path d="M8734 1378 l-19 -23 23 19 c21 18 27 26 19 26 -2 0 -12 -10 -23 -22z"/>
<path d="M8900 1203 l-55 -58 58 55 c31 30 57 56 57 57 0 8 -10 -1 -60 -54z"/>
<path d="M9109 1093 c-13 -16 -12 -17 4 -4 9 7 17 15 17 17 0 8 -8 3 -21 -13z"/>
<path d="M9079 1053 c-13 -16 -12 -17 4 -4 9 7 17 15 17 17 0 8 -8 3 -21 -13z"/>
<path d="M9295 960 c-9 -16 -13 -30 -11 -30 3 0 12 14 21 30 9 17 13 30 11 30
-3 0 -12 -13 -21 -30z"/>
<path d="M9526 925 c-9 -26 -7 -32 5 -12 6 10 9 21 6 23 -2 3 -7 -2 -11 -11z"/>
<path d="M9736 864 c-4 -14 -5 -28 -3 -31 3 -2 8 8 11 23 4 14 5 28 3 31 -3 2
-8 -8 -11 -23z"/>
<path d="M1459 1043 c-13 -16 -12 -17 4 -4 16 13 21 21 13 21 -2 0 -10 -8 -17
-17z"/>
<path d="M1429 1003 c-13 -16 -12 -17 4 -4 16 13 21 21 13 21 -2 0 -10 -8 -17
-17z"/>
<path d="M1645 910 c-9 -16 -13 -30 -11 -30 3 0 12 14 21 30 9 17 13 30 11 30
-3 0 -12 -13 -21 -30z"/>
<path d="M1896 925 c-9 -26 -7 -32 5 -12 6 10 9 21 6 23 -2 3 -7 -2 -11 -11z"/>
<path d="M1876 875 c-9 -26 -7 -32 5 -12 6 10 9 21 6 23 -2 3 -7 -2 -11 -11z"/>
<path d="M2081 794 c0 -11 3 -14 6 -6 3 7 2 16 -1 19 -3 4 -6 -2 -5 -13z"/>
<path d="M2292 730 c0 -14 2 -19 5 -12 2 6 2 18 0 25 -3 6 -5 1 -5 -13z"/>
<path d="M2281 654 c0 -11 3 -14 6 -6 3 7 2 16 -1 19 -3 4 -6 -2 -5 -13z"/>
<path d="M10582 890 c0 -14 2 -19 5 -12 2 6 2 18 0 25 -3 6 -5 1 -5 -13z"/>
<path d="M10591 844 c0 -11 3 -14 6 -6 3 7 2 16 -1 19 -3 4 -6 -2 -5 -13z"/>
<path d="M10383 795 c0 -22 2 -30 4 -17 2 12 2 30 0 40 -3 9 -5 -1 -4 -23z"/>
<path d="M10601 804 c0 -11 3 -14 6 -6 3 7 2 16 -1 19 -3 4 -6 -2 -5 -13z"/>
<path d="M9942 765 c0 -16 2 -22 5 -12 2 9 2 23 0 30 -3 6 -5 -1 -5 -18z"/>
<path d="M9931 704 c0 -11 3 -14 6 -6 3 7 2 16 -1 19 -3 4 -6 -2 -5 -13z"/>
<path d="M10392 670 c0 -14 2 -19 5 -12 2 6 2 18 0 25 -3 6 -5 1 -5 -13z"/>
<path d="M7660 2105 c0 -8 7 -15 15 -15 8 0 15 7 15 15 0 8 -7 15 -15 15 -8 0
-15 -7 -15 -15z"/>
</g>
</svg>
