<?xml version="1.0" standalone="no"?>
<!DOCTYPE svg PUBLIC "-//W3C//DTD SVG 20010904//EN"
 "http://www.w3.org/TR/2001/REC-SVG-20010904/DTD/svg10.dtd">
<svg version="1.0" xmlns="http://www.w3.org/2000/svg"
 width="1280.000000pt" height="856.000000pt" viewBox="0 0 1280.000000 856.000000"
 preserveAspectRatio="xMidYMid meet">
<g transform="translate(0.000000,856.000000) scale(0.100000,-0.100000)"
fill="#000000" stroke="none">
<path d="M8312 8538 c-57 -23 -121 -78 -148 -130 -9 -18 -19 -62 -22 -98 -7
-107 44 -197 144 -251 27 -15 39 -45 192 -519 151 -465 162 -505 146 -517 -9
-7 -22 -22 -28 -33 -6 -12 -45 -36 -90 -55 -253 -109 -430 -279 -387 -371 l12
-27 104 5 c72 4 107 2 113 -6 17 -22 152 -348 152 -366 0 -10 -5 -22 -11 -25
-7 -5 -8 -24 -4 -54 5 -39 3 -50 -13 -64 -24 -22 -117 -37 -232 -37 -103 0
-333 -21 -610 -56 -898 -111 -1707 -346 -2293 -665 -90 -49 -116 -59 -157 -59
-58 0 -102 31 -120 85 -13 40 -32 48 -102 43 -63 -4 -76 16 -25 37 38 16 51
44 36 82 -9 23 -12 24 -58 18 -60 -8 -57 -12 -101 140 -18 61 -45 130 -61 154
-29 45 -45 100 -36 125 3 7 29 19 59 26 101 24 152 49 206 100 29 27 62 52 75
55 12 3 117 21 232 41 116 20 211 37 213 39 9 9 -23 49 -60 75 -79 57 -114 63
-428 65 -299 2 -342 6 -600 57 -106 21 -188 31 -260 32 -96 1 -110 -1 -162
-27 -109 -54 -165 -152 -175 -309 -4 -61 -2 -92 6 -102 17 -20 86 -33 211 -42
103 -6 106 -7 170 -50 79 -54 110 -56 258 -18 56 14 108 24 116 21 16 -6 36
-81 36 -138 0 -23 18 -100 41 -171 22 -72 38 -135 36 -142 -3 -7 -46 -27 -96
-45 -50 -18 -93 -37 -96 -42 -10 -15 15 -89 29 -89 7 0 33 7 56 15 54 19 53
20 45 -13 -4 -18 15 -111 54 -267 95 -380 112 -458 103 -467 -10 -10 -140 24
-240 63 -105 42 -189 89 -269 154 -112 90 -146 85 -233 -33 -103 -141 -181
-302 -220 -458 -14 -58 -26 -85 -46 -102 -23 -21 -28 -21 -48 -9 -12 8 -23 29
-26 48 -4 24 -16 42 -49 66 -40 31 -45 33 -61 18 -14 -13 -22 -14 -44 -4 -26
12 -30 19 -27 50 2 16 -81 79 -102 79 -6 0 -19 -7 -28 -16 -17 -15 -20 -15
-44 0 -16 10 -25 26 -25 42 0 21 -9 29 -57 50 -50 22 -58 23 -65 10 -16 -29
-78 -17 -78 15 0 39 -115 86 -132 55 -5 -9 -22 -16 -39 -16 -24 0 -32 6 -40
30 -9 23 -20 32 -52 40 -23 6 -50 13 -59 16 -10 3 -21 -3 -28 -16 -17 -31 -66
-27 -82 8 -11 22 -23 29 -67 36 -50 9 -56 8 -69 -12 -20 -31 -65 -29 -86 3
-14 22 -24 25 -74 25 -50 0 -59 -3 -67 -22 -14 -33 -50 -34 -76 -4 -36 41
-132 34 -143 -10 -8 -31 -57 -33 -86 -4 -19 19 -30 20 -107 4 -13 -2 -23 -13
-25 -26 -4 -32 -55 -49 -73 -25 -14 20 -39 21 -101 6 -37 -10 -44 -15 -44 -35
0 -35 -43 -54 -68 -31 -23 21 -36 21 -95 0 -41 -15 -47 -20 -45 -42 4 -36 -37
-56 -70 -35 -21 14 -28 13 -78 -7 -48 -20 -55 -26 -51 -47 8 -41 -32 -64 -72
-42 -14 7 -32 2 -70 -18 -48 -24 -52 -29 -47 -54 7 -36 -25 -61 -71 -52 -25 5
-41 0 -77 -26 -41 -27 -45 -34 -35 -51 16 -31 -15 -62 -56 -55 -26 5 -38 0
-73 -30 -38 -32 -42 -40 -37 -68 8 -40 -13 -61 -57 -58 -24 2 -38 -6 -68 -39
-32 -35 -36 -45 -27 -60 18 -29 -6 -70 -41 -67 -35 2 -43 -2 -76 -51 -24 -34
-26 -42 -15 -59 19 -31 -5 -72 -42 -72 -22 0 -35 -10 -59 -44 -35 -52 -35 -54
-14 -77 15 -17 15 -20 0 -44 -10 -16 -26 -25 -41 -25 -21 0 -30 -10 -53 -56
-26 -55 -27 -56 -8 -70 16 -11 18 -19 10 -42 -6 -17 -18 -28 -32 -30 -25 -4
-43 -28 -63 -85 -12 -35 -12 -40 4 -48 29 -17 19 -79 -13 -79 -25 0 -37 -18
-51 -74 -11 -46 -11 -50 10 -65 17 -13 21 -23 16 -44 -4 -14 -15 -29 -25 -32
-28 -9 -37 -26 -45 -82 -6 -46 -5 -52 14 -58 30 -9 28 -58 -3 -79 -13 -8 -27
-29 -30 -46 -18 -91 -19 -85 14 -97 40 -15 42 -59 5 -92 -23 -19 -26 -28 -23
-79 3 -48 6 -57 23 -61 40 -7 48 -60 14 -83 -20 -12 -21 -19 -14 -75 6 -57 9
-62 33 -65 22 -2 28 -9 30 -34 2 -19 -3 -36 -12 -44 -19 -15 -20 -36 -5 -96
10 -37 15 -44 33 -42 14 2 25 -5 34 -25 12 -25 12 -31 -2 -46 -20 -22 -20 -36
0 -95 11 -32 21 -46 33 -45 9 1 21 1 27 0 16 -1 27 -52 15 -64 -17 -17 -13
-54 9 -97 17 -32 26 -40 49 -40 36 0 52 -32 37 -73 -9 -24 -7 -35 15 -75 22
-39 31 -47 52 -44 36 4 64 -37 46 -66 -11 -17 -8 -27 21 -72 29 -45 36 -51 58
-45 37 9 64 -20 56 -61 -5 -28 -1 -40 27 -73 29 -35 38 -40 62 -35 40 8 68
-19 60 -57 -5 -25 1 -36 37 -70 30 -29 46 -37 53 -30 28 28 85 -9 73 -47 -5
-15 5 -30 40 -61 42 -37 48 -39 66 -27 16 11 26 12 44 4 13 -6 24 -16 25 -22
1 -6 2 -20 3 -30 0 -11 23 -35 49 -54 46 -33 48 -34 67 -17 27 25 70 7 70 -29
0 -27 30 -55 80 -76 26 -11 33 -10 49 4 26 24 66 7 74 -32 5 -23 16 -33 58
-51 l52 -21 22 20 c18 17 27 19 48 11 16 -6 27 -18 27 -30 0 -25 15 -35 72
-51 45 -12 49 -11 65 9 15 19 22 21 45 12 14 -5 29 -19 33 -30 12 -40 116 -54
144 -19 22 26 61 19 76 -14 7 -16 22 -25 54 -30 23 -4 52 -10 62 -13 14 -5 19
-1 19 12 0 49 56 57 88 13 20 -27 28 -30 76 -30 51 0 54 1 60 30 5 27 10 30
41 30 19 0 35 -4 35 -10 0 -20 39 -30 91 -22 46 6 54 11 59 32 7 30 58 41 72
16 6 -11 22 -16 46 -15 60 2 86 13 92 39 8 34 53 50 78 27 23 -21 36 -21 96
-1 38 13 46 20 44 37 -2 14 6 26 24 36 24 14 28 14 47 -3 20 -18 22 -18 73 1
46 18 53 24 56 50 3 34 46 63 66 43 15 -15 41 -12 91 12 41 20 45 25 40 50 -5
23 -2 29 24 42 19 10 32 12 36 6 11 -18 46 -10 90 20 39 27 44 34 39 59 -7 35
19 54 63 45 21 -4 38 2 71 27 38 28 42 35 37 61 -9 38 9 59 50 56 23 -1 43 7
73 32 45 36 47 41 32 69 -15 29 14 61 55 61 28 0 40 8 71 45 35 43 36 46 20
64 -15 17 -15 20 5 45 11 14 25 24 30 20 18 -11 47 7 73 46 28 43 33 66 14 73
-10 3 -10 11 -3 33 8 22 18 30 43 34 26 4 38 14 57 49 29 50 30 57 10 77 -24
24 3 74 39 74 16 0 28 12 44 45 26 54 27 71 6 83 -26 15 -10 61 26 74 24 8 33
20 47 65 16 52 16 56 0 68 -28 20 -22 62 13 80 32 17 44 45 45 112 0 52 -10
50 235 58 476 16 849 37 908 50 35 8 97 31 139 50 42 19 80 35 84 35 15 0 220
-241 214 -251 -4 -5 -14 -8 -23 -7 -14 2 -18 -7 -20 -47 l-3 -50 74 3 74 4 33
-41 c19 -24 42 -41 54 -41 11 0 42 18 68 41 47 40 50 41 113 37 l65 -3 0 50 0
50 -79 -3 -78 -3 -172 194 c-94 107 -171 198 -171 201 0 3 15 27 34 53 88 125
130 255 130 403 0 58 -6 130 -13 160 -13 49 -12 55 3 65 75 45 356 229 466
305 470 325 852 640 1215 1004 323 323 569 620 803 969 29 42 57 77 63 77 17
0 53 -90 40 -103 -6 -6 -11 -18 -11 -26 0 -28 144 -351 159 -356 8 -3 30 0 49
6 27 9 37 8 46 -2 15 -16 166 -446 166 -471 0 -9 -14 -26 -31 -39 -23 -16 -29
-27 -25 -44 9 -34 -23 -58 -67 -50 -30 6 -43 2 -76 -21 -36 -26 -40 -32 -35
-60 7 -39 -26 -70 -58 -53 -21 11 -34 5 -93 -45 -27 -22 -29 -27 -17 -46 11
-19 11 -25 -4 -41 -10 -11 -30 -19 -49 -19 -23 0 -41 -10 -70 -40 -35 -36 -38
-43 -27 -61 11 -17 11 -25 -3 -45 -10 -16 -25 -25 -38 -24 -39 4 -43 1 -76
-45 -27 -38 -30 -47 -19 -64 19 -31 -3 -69 -43 -73 -27 -2 -38 -12 -62 -51
-27 -45 -28 -49 -13 -66 22 -25 3 -71 -29 -71 -27 0 -49 -24 -70 -74 -15 -35
-15 -39 2 -51 24 -18 7 -69 -24 -73 -27 -4 -36 -15 -58 -74 -17 -47 -17 -48 4
-65 19 -15 21 -22 12 -45 -6 -16 -19 -28 -33 -30 -18 -2 -27 -15 -42 -60 l-18
-58 22 -18 c28 -22 22 -67 -10 -77 -11 -3 -24 -14 -29 -23 -14 -28 -23 -112
-12 -112 20 0 38 -29 34 -53 -3 -14 -16 -30 -29 -36 -17 -8 -24 -19 -24 -40 0
-15 -3 -42 -6 -59 -6 -27 -3 -32 20 -38 37 -9 37 -66 0 -101 -19 -17 -24 -30
-20 -46 3 -12 6 -36 6 -54 0 -25 5 -32 23 -35 31 -4 36 -53 7 -80 -18 -17 -20
-27 -15 -66 9 -66 11 -70 36 -74 33 -4 42 -47 15 -76 -19 -21 -19 -25 -5 -80
9 -36 19 -57 29 -58 8 -1 20 -2 26 -3 20 -2 27 -52 9 -70 -19 -22 -19 -36 1
-95 15 -42 19 -47 40 -42 17 5 26 1 34 -13 13 -25 13 -61 0 -61 -16 0 -12 -34
10 -84 18 -39 25 -46 49 -46 33 0 63 -42 43 -62 -18 -18 -15 -41 14 -91 23
-42 28 -46 54 -40 24 4 31 1 41 -20 8 -17 8 -30 0 -44 -8 -15 -6 -27 7 -50 37
-64 48 -74 76 -67 36 9 57 -19 50 -63 -5 -27 0 -38 33 -74 35 -37 42 -40 61
-30 18 9 24 8 41 -11 14 -15 19 -29 14 -45 -4 -20 3 -33 37 -68 37 -38 46 -42
65 -33 35 16 65 -5 65 -47 0 -28 8 -40 45 -71 44 -35 46 -36 65 -19 18 17 21
17 46 1 20 -14 24 -23 20 -42 -5 -20 1 -29 36 -55 58 -42 67 -45 83 -23 13 18
16 18 42 4 19 -11 28 -24 28 -40 0 -16 11 -32 34 -47 51 -34 79 -39 96 -17 13
18 16 18 42 4 15 -9 28 -23 28 -33 0 -23 22 -41 73 -61 42 -16 44 -16 60 4 14
18 22 20 43 11 15 -5 29 -20 33 -35 5 -20 18 -29 62 -43 l56 -17 17 23 c22 29
68 21 77 -15 11 -42 124 -61 144 -24 17 32 68 20 82 -20 2 -8 121 -44 123 -37
21 66 60 76 95 27 21 -29 26 -31 78 -28 51 3 57 5 62 28 8 34 54 40 82 10 17
-18 27 -20 66 -15 66 9 70 11 74 37 2 18 10 24 36 26 22 2 34 -2 38 -12 4 -11
19 -16 48 -15 66 2 91 12 92 38 2 40 44 54 76 24 17 -15 24 -15 76 -2 50 13
57 18 60 42 5 37 43 53 76 32 21 -14 28 -14 67 1 58 23 68 31 62 54 -6 24 42
59 60 41 17 -17 54 -13 97 12 31 17 40 28 40 48 0 37 22 53 65 45 29 -6 45 -2
81 21 40 25 44 31 38 56 -8 38 19 59 64 51 27 -5 39 0 77 31 36 29 43 40 35
51 -27 31 16 73 60 59 14 -4 32 5 64 35 41 38 43 43 33 70 -14 37 4 60 48 60
25 0 41 9 69 40 38 42 43 55 26 65 -31 19 4 70 48 70 19 0 34 13 60 48 33 46
34 48 17 67 -26 29 -4 68 39 72 26 2 36 11 58 53 25 46 26 51 11 68 -25 27 -7
71 31 75 23 3 32 13 51 55 23 51 23 52 4 73 -16 17 -18 26 -10 47 6 16 18 27
30 27 24 0 35 14 55 74 16 49 12 65 -16 66 -10 0 -10 42 0 55 4 6 18 17 31 26
17 11 28 31 36 67 12 50 11 52 -12 67 -29 19 -24 49 15 81 20 16 26 32 30 76
4 50 2 56 -17 61 -32 8 -28 53 9 87 26 24 30 35 30 78 0 47 -1 50 -30 56 -25
4 -30 10 -30 34 0 16 9 37 20 47 15 14 20 31 20 72 0 51 -2 55 -30 64 -25 9
-30 16 -30 44 0 20 6 35 15 39 16 6 20 50 9 104 -5 24 -12 32 -32 34 -36 4
-47 49 -21 79 11 12 17 29 15 38 -3 9 -10 35 -16 59 -9 35 -15 42 -36 42 -35
0 -54 42 -31 68 22 24 21 29 -4 91 -19 45 -24 50 -45 45 -33 -8 -53 35 -34 71
12 23 11 32 -13 81 -24 48 -30 54 -51 48 -19 -4 -28 0 -42 21 -13 20 -14 29
-5 38 18 18 13 46 -19 91 -23 35 -34 42 -52 39 -15 -3 -30 3 -43 17 -16 18
-17 24 -7 41 14 21 8 38 -32 92 -18 24 -26 27 -53 22 -25 -4 -35 -1 -47 16 -9
14 -12 28 -7 38 12 22 -1 51 -42 89 -31 30 -37 32 -55 21 -18 -11 -24 -10 -42
6 -15 14 -19 26 -15 43 5 19 -3 33 -40 70 -35 34 -48 43 -57 34 -28 -28 -82
-4 -78 35 4 33 0 39 -46 72 -44 30 -47 31 -65 15 -17 -15 -20 -16 -44 0 -16
10 -25 26 -25 41 0 19 -11 33 -47 55 -54 34 -59 35 -79 15 -25 -24 -74 3 -74
41 0 18 -11 29 -51 50 -52 26 -52 26 -72 6 -27 -28 -74 -12 -79 26 -3 23 -12
30 -61 47 -55 19 -59 19 -68 3 -18 -32 -73 -20 -80 17 -4 19 -30 32 -102 49
-24 6 -30 3 -34 -14 -4 -15 -14 -20 -39 -20 -27 0 -35 5 -40 24 -7 28 -16 33
-84 42 -47 6 -52 5 -57 -15 -7 -29 -69 -30 -78 -2 -3 11 -12 22 -20 25 -9 3
-15 18 -15 35 0 32 48 259 154 736 152 680 203 1014 213 1390 6 253 -8 402
-56 597 -117 469 -459 761 -1021 872 -69 14 -177 30 -240 36 -161 15 -497 27
-607 22 -64 -3 -93 -1 -93 7 0 12 6 13 138 11 85 -1 93 0 90 17 -3 17 -21 18
-218 23 -244 6 -273 14 -357 91 -52 48 -140 89 -186 88 -18 -1 -56 -10 -85
-21z m1353 -273 c624 -74 1000 -322 1159 -765 69 -190 102 -448 92 -710 -14
-390 -62 -680 -256 -1565 -54 -247 -104 -477 -110 -510 -13 -64 -21 -75 -57
-75 -16 0 -23 -6 -23 -20 0 -13 -9 -22 -26 -26 -20 -5 -31 -1 -50 20 -18 19
-35 26 -62 26 -57 0 -81 -10 -84 -34 -4 -30 -54 -34 -80 -6 -15 16 -27 19 -56
15 -78 -13 -82 -15 -82 -39 0 -35 -64 -53 -76 -21 -13 33 -139 6 -139 -30 0
-10 -12 -26 -27 -34 -24 -14 -28 -14 -46 2 -24 22 -40 21 -96 -3 -33 -14 -44
-23 -40 -35 8 -19 -13 -45 -36 -45 -10 0 -27 15 -38 33 -21 33 -172 450 -172
473 0 8 29 27 65 43 36 16 65 36 65 43 0 7 -26 78 -59 158 -32 80 -62 159 -67
175 -7 22 -24 38 -62 59 -30 15 -56 35 -59 45 -3 9 -44 112 -90 229 -54 135
-83 221 -80 235 3 12 26 72 51 132 66 162 108 344 121 527 10 137 -1 126 116
120 79 -4 103 -2 110 9 14 22 11 243 -3 257 -15 15 -136 16 -174 2 -37 -14
-44 -1 -44 80 0 146 -59 694 -109 1020 -20 124 -20 125 0 146 10 11 19 28 19
38 0 10 14 23 33 31 44 20 304 19 472 0z m-581 -83 c15 -25 105 -749 126
-1011 15 -206 14 -258 -9 -266 -28 -9 -49 4 -56 35 -12 55 -72 90 -155 90 -36
0 -49 4 -55 18 -8 22 -273 834 -315 966 -31 99 -31 100 -12 119 43 43 115 56
299 57 94 0 174 -4 177 -8z m134 -1517 c4 -84 -24 -287 -58 -421 -32 -124 -91
-276 -109 -282 -6 -2 -20 18 -31 45 -92 217 -123 280 -149 294 -21 12 -41 47
-84 148 -31 73 -57 139 -57 147 0 19 22 23 207 38 174 13 194 20 207 72 6 21
12 25 39 22 32 -3 32 -4 35 -63z m-4288 -630 c0 -8 -17 -23 -37 -34 -50 -25
-190 -64 -203 -56 -6 3 -10 17 -10 30 0 27 -4 25 135 55 112 23 115 23 115 5z
m-377 -87 c25 -38 -14 -58 -178 -93 -67 -14 -72 -13 -112 6 -24 12 -43 27 -43
35 0 15 0 15 146 39 56 9 115 20 130 25 35 10 45 8 57 -12z m3997 -283 c0 -16
-94 -173 -189 -314 -32 -47 -66 -101 -76 -120 -53 -103 -486 -641 -516 -641
-15 0 -10 27 6 40 9 7 14 15 11 17 -2 2 -73 -41 -157 -95 -682 -438 -1222
-712 -1858 -942 -283 -102 -259 -96 -271 -68 -15 34 -100 325 -100 342 0 7 34
39 76 69 154 111 351 306 367 364 12 40 -6 78 -50 106 l-38 24 7 153 c4 84 9
158 12 165 2 7 32 28 66 46 34 18 75 45 91 60 34 31 33 45 -7 138 -30 67 -30
86 -1 106 34 24 310 130 522 201 486 161 1004 270 1570 329 357 37 535 44 535
20z m-2932 -1088 c4 -153 8 -148 -141 -145 l-122 3 -9 58 c-8 49 -7 61 7 74
22 23 228 122 247 120 12 -2 16 -23 18 -110z m-1349 -51 c161 -97 317 -158
503 -196 31 -6 62 -18 68 -26 7 -7 24 -14 39 -14 35 0 87 -33 104 -67 16 -31
67 -203 67 -226 0 -16 -51 -67 -68 -67 -17 0 -15 8 9 46 23 38 14 44 -24 14
-25 -20 -47 -26 -47 -14 0 4 9 22 21 40 16 26 17 34 6 34 -7 0 -22 -9 -32 -20
-20 -22 -45 -27 -45 -9 0 6 9 24 21 41 28 39 16 48 -19 15 -50 -48 -68 -31
-31 29 25 41 12 44 -31 8 -40 -35 -50 -23 -22 27 27 46 12 52 -30 12 -37 -36
-48 -21 -20 29 27 51 21 60 -16 25 -49 -47 -70 -30 -31 25 28 39 16 48 -19 15
-50 -48 -68 -31 -31 30 17 27 19 36 9 48 -16 19 -39 19 -46 0 -9 -24 -38 -18
-69 15 -32 34 -51 37 -75 15 -14 -12 -23 -13 -46 -5 -30 12 -231 210 -213 210
6 0 37 -15 68 -34z m3441 14 c0 -9 -269 -291 -380 -399 -264 -255 -693 -595
-1058 -836 -83 -55 -151 -103 -151 -107 -1 -5 15 -31 35 -58 20 -28 34 -53 31
-56 -2 -3 -19 14 -36 38 -52 70 -169 166 -256 209 -95 46 -164 65 -275 75 -72
6 -83 9 -92 30 -6 12 -8 29 -5 36 2 8 114 53 247 102 496 181 860 349 1303
603 147 83 505 301 577 349 37 25 60 31 60 14z m-3512 -225 l114 0 24 -30 c27
-34 29 -47 12 -75 -12 -19 -10 -22 61 -77 13 -10 14 -15 4 -32 -18 -29 -16
-40 10 -62 29 -24 39 -24 67 6 43 46 69 24 30 -25 -36 -46 -20 -55 25 -14 39
36 55 17 25 -31 -29 -48 -20 -54 23 -15 43 37 57 24 27 -26 -28 -45 -18 -56
18 -21 49 47 70 30 31 -25 -28 -39 -16 -48 19 -15 50 48 67 33 31 -27 -24 -42
-20 -45 21 -14 38 28 48 17 27 -27 -9 -19 -14 -41 -11 -49 7 -18 -18 -31 -151
-81 -139 -52 -315 -105 -345 -104 -14 0 -19 3 -12 6 16 6 16 40 0 50 -7 4 -25
6 -40 4 -33 -3 -49 23 -42 70 4 28 0 41 -27 72 -26 32 -36 37 -57 32 -36 -9
-64 20 -57 59 5 26 -1 39 -39 84 -32 38 -45 60 -42 75 3 12 8 45 11 72 8 61
32 158 51 204 13 32 16 33 47 25 17 -5 83 -9 145 -9z m1303 -55 c12 -7 19 -21
19 -40 0 -24 -13 -40 -72 -90 -40 -33 -80 -60 -89 -60 -24 0 -65 149 -50 179
10 19 20 21 92 21 44 0 89 -5 100 -10z m-3298 -216 c141 -72 274 -191 322
-287 70 -145 87 -515 31 -701 -15 -50 -41 -123 -57 -163 -28 -67 -34 -74 -67
-82 -64 -17 -154 -31 -162 -26 -5 3 -34 42 -66 88 -79 114 -287 318 -400 392
-50 33 -175 107 -278 165 -103 58 -205 119 -225 137 -46 39 -79 107 -65 131
19 30 205 150 319 206 125 61 264 109 410 142 135 30 174 30 238 -2z m8163
-10 l64 -36 -6 -196 c-13 -368 30 -604 149 -835 42 -82 49 -102 41 -123 -12
-34 -76 -56 -151 -52 l-57 3 -68 90 c-83 109 -239 268 -330 336 -51 38 -70 60
-82 92 -9 23 -58 165 -110 316 -70 200 -92 278 -85 288 23 27 242 101 395 133
134 28 165 26 240 -16z m-7475 -44 c137 -45 305 -127 420 -206 96 -65 245
-188 264 -218 15 -25 35 -135 35 -194 0 -40 -2 -43 -47 -66 -62 -31 -166 -93
-323 -191 -157 -99 -218 -141 -251 -175 -21 -23 -44 -31 -144 -49 -65 -12
-122 -18 -126 -14 -5 5 -2 60 7 123 24 173 15 364 -30 628 -40 235 -43 295
-21 349 32 75 28 75 216 13z m8149 -2 c219 -75 425 -194 596 -345 84 -75 89
-81 102 -138 7 -33 14 -118 15 -190 2 -210 -29 -282 -197 -450 -138 -138 -274
-227 -435 -286 l-64 -23 -19 27 c-11 15 -29 27 -41 27 -26 0 -165 90 -172 111
-3 9 3 57 14 105 17 80 32 187 45 329 7 79 -11 262 -49 491 -19 117 -35 227
-35 245 0 49 17 102 40 127 25 26 41 24 200 -30z m-466 -110 c108 -110 134
-182 157 -427 8 -92 8 -148 -1 -223 -13 -113 -53 -265 -76 -288 -14 -13 -17
-13 -30 5 -59 78 -123 267 -149 442 -17 110 -24 498 -10 542 11 35 35 24 109
-51z m-1060 -237 c24 -70 35 -116 30 -121 -6 -6 -31 4 -67 26 -43 27 -64 48
-82 85 -14 26 -25 53 -25 58 0 13 82 72 95 68 5 -2 27 -54 49 -116z m-4437
-20 c98 -82 133 -129 133 -177 0 -16 -57 -44 -89 -44 -19 0 -201 199 -201 220
0 10 67 49 87 50 7 0 38 -22 70 -49z m-344 -95 c5 -13 -3 -82 -14 -126 -3 -12
8 -16 49 -18 34 -2 52 1 48 7 -15 24 18 20 45 -5 34 -32 35 -40 11 -53 -29
-16 -321 -91 -350 -91 -15 1 -45 13 -66 29 -30 21 -42 39 -53 77 -26 92 -35
83 132 141 162 55 190 61 198 39z m-3300 -193 c245 -118 420 -280 550 -509 69
-122 69 -123 4 -195 l-56 -61 -198 -3 c-301 -4 -382 -22 -758 -173 -213 -86
-247 -97 -300 -97 -33 1 -71 7 -84 14 -24 13 -24 14 -17 127 12 222 78 470
175 663 86 172 89 175 181 210 74 29 153 52 220 65 14 2 64 3 111 2 78 -2 94
-6 172 -43z m3767 32 c0 -9 -9 -15 -25 -15 -26 0 -34 15 -12 23 23 10 37 7 37
-8z m4362 -24 c77 -36 58 1 184 -361 42 -124 84 -233 92 -242 8 -10 28 -18 43
-18 23 0 34 -10 63 -57 20 -32 35 -65 34 -72 -2 -12 -24 -15 -96 -17 -127 -4
-311 -29 -424 -58 -52 -14 -179 -59 -284 -101 -326 -132 -358 -140 -431 -110
l-36 15 7 108 c18 267 92 522 218 749 46 84 55 94 102 116 126 59 253 88 371
83 77 -2 101 -8 157 -35z m-5966 -192 c-9 -58 -42 -118 -69 -124 -12 -3 -66
-14 -121 -25 -163 -33 -184 -24 -88 37 100 65 257 153 271 153 10 0 12 -10 7
-41z m2263 -50 c41 -14 35 -33 -12 -37 -27 -2 -39 1 -44 13 -4 13 8 33 23 35
1 0 15 -5 33 -11z m6234 -91 c105 -249 154 -550 133 -811 l-8 -87 -74 -79
c-118 -126 -253 -209 -365 -226 -105 -16 -400 31 -532 84 -135 54 -338 186
-345 224 -2 11 11 33 33 54 34 33 39 35 50 20 26 -36 62 -7 40 33 -8 14 -14
39 -15 57 0 31 4 34 108 87 133 68 265 155 357 236 39 33 149 147 245 252 184
201 230 238 300 238 38 0 38 0 73 -82z m-5859 -8 c5 -19 2 -16 -13 10 -11 19
-20 39 -21 45 0 16 27 -28 34 -55z m-1002 -37 c14 -16 33 -43 43 -61 19 -38
22 -31 -63 -137 -59 -73 -77 -79 -97 -31 -29 68 -10 177 40 230 31 33 45 33
77 -1z m5291 -204 c20 -5 37 -15 37 -21 0 -16 -51 -88 -62 -88 -16 0 -57 48
-64 75 -11 43 18 54 89 34z m-4464 -80 c27 -79 -8 -210 -66 -247 -20 -13 -25
-10 -72 40 -28 29 -51 56 -51 61 0 17 144 177 160 177 11 0 22 -12 29 -31z
m4782 -121 c11 -27 10 -32 -6 -44 -10 -8 -40 -14 -67 -14 -59 0 -61 13 -17 84
l30 48 24 -22 c13 -12 29 -36 36 -52z m-5515 -83 c57 -160 56 -173 -9 -161
-97 18 -221 178 -165 212 19 12 79 22 116 21 32 -2 34 -5 58 -72z m234 -77
c30 -15 89 -32 130 -39 122 -19 142 -59 59 -115 -34 -23 -63 -33 -110 -37 -89
-10 -121 13 -179 125 -32 61 -38 103 -17 111 12 4 23 0 117 -45z m-3945 -18
c60 -6 140 -18 177 -26 55 -13 69 -20 72 -37 3 -12 10 -52 16 -89 l12 -67 -62
-68 c-74 -82 -187 -248 -240 -352 -61 -122 -86 -190 -161 -440 -38 -129 -79
-250 -90 -268 -30 -48 -83 -86 -109 -78 -31 10 -229 210 -297 300 -134 178
-263 429 -263 511 0 85 97 302 174 390 96 110 390 216 641 233 11 0 69 -4 130
-9z m8264 -16 c46 -8 87 -17 91 -19 4 -2 10 -36 12 -74 3 -41 12 -81 22 -96
17 -25 16 -26 -52 -108 -77 -91 -178 -241 -223 -329 -50 -100 -89 -206 -155
-433 -72 -241 -91 -283 -146 -328 -35 -28 -40 -29 -64 -16 -47 25 -221 205
-296 306 -40 54 -93 132 -117 173 -57 96 -141 287 -141 321 0 67 68 239 136
341 54 81 99 118 196 162 252 114 475 144 737 100z m209 -66 c3 -13 -3 -18
-22 -18 -20 0 -26 5 -26 21 0 15 5 20 22 17 13 -2 24 -11 26 -20z m77 -27 c0
-21 -53 -57 -65 -45 -7 7 -4 19 11 38 22 28 54 32 54 7z m684 -41 c35 -30 37
-55 6 -67 -20 -7 -85 53 -85 79 0 28 40 22 79 -12z m-516 -182 c6 -18 -7 -103
-15 -100 -5 1 -12 2 -18 2 -10 0 -40 52 -40 69 0 9 46 40 61 41 4 0 9 -6 12
-12z m325 -51 c36 -38 32 -50 -23 -60 -50 -9 -68 8 -61 56 4 22 9 44 12 49 7
11 33 -5 72 -45z m-8570 -60 c20 -12 50 -29 66 -37 27 -14 30 -22 47 -118 22
-132 77 -298 144 -437 50 -103 109 -195 294 -462 78 -112 105 -179 94 -234 -7
-38 -26 -46 -168 -66 -230 -32 -557 -4 -772 68 -58 19 -67 26 -108 84 -55 76
-128 230 -145 304 -18 77 -7 173 35 298 50 152 123 294 201 391 76 95 227 232
255 232 11 0 36 -10 57 -23z m8087 -11 c11 -7 45 -16 75 -20 30 -4 60 -10 67
-14 6 -4 16 -43 23 -87 16 -103 62 -264 111 -383 49 -121 116 -234 264 -442
138 -195 155 -226 162 -295 5 -48 3 -54 -18 -68 -77 -50 -519 -61 -724 -18
-147 31 -237 60 -263 84 -34 32 -115 163 -150 243 -65 149 -66 226 -3 414 81
242 170 381 344 539 72 65 81 69 112 47z m-6317 -13 c-4 -23 -131 -90 -195
-103 -72 -15 -283 3 -410 35 -94 24 -124 38 -110 51 6 7 461 30 635 33 73 1
83 -1 80 -16z m7025 -57 c131 -63 266 -110 392 -136 105 -22 147 -26 434 -45
200 -13 218 -16 269 -42 90 -46 91 -52 24 -171 -79 -141 -160 -248 -277 -367
-104 -106 -287 -250 -332 -261 -39 -10 -180 4 -268 26 -166 42 -243 99 -347
254 -139 208 -195 372 -213 618 -9 119 1 140 73 162 86 27 122 21 245 -38z
m-8141 -2 c81 -41 218 -91 320 -118 118 -30 219 -43 495 -60 177 -12 230 -18
265 -34 51 -23 88 -56 88 -79 0 -21 -79 -158 -145 -253 -113 -161 -272 -318
-432 -427 l-82 -56 -93 6 c-178 10 -340 68 -421 150 -94 95 -229 333 -271 479
-27 95 -49 268 -44 348 4 66 7 68 161 69 97 1 113 -2 159 -25z"/>
</g>
</svg>
