<?xml version="1.0" standalone="no"?>
<!DOCTYPE svg PUBLIC "-//W3C//DTD SVG 20010904//EN"
 "http://www.w3.org/TR/2001/REC-SVG-20010904/DTD/svg10.dtd">
<svg version="1.0" xmlns="http://www.w3.org/2000/svg"
 width="1280.000000pt" height="818.000000pt" viewBox="0 0 1280.000000 818.000000"
 preserveAspectRatio="xMidYMid meet">
<g transform="translate(0.000000,818.000000) scale(0.100000,-0.100000)"
fill="#000000" stroke="none">
<path d="M4295 7914 c-121 -146 -219 -271 -217 -277 2 -7 51 -101 109 -210
l105 -198 -348 -1060 c-192 -583 -352 -1066 -356 -1072 -5 -8 -44 7 -130 49
-329 164 -643 237 -1018 237 -263 1 -442 -28 -691 -110 -143 -46 -365 -149
-484 -223 -233 -146 -527 -413 -684 -624 -304 -406 -493 -881 -550 -1381 -5
-49 -15 -135 -22 -190 -31 -268 44 -785 163 -1120 169 -474 470 -909 831
-1201 282 -227 644 -404 967 -472 164 -35 426 -65 520 -59 531 32 987 203
1391 522 117 93 337 320 431 445 121 163 188 272 278 455 202 410 290 794 290
1265 0 494 -103 922 -324 1345 -130 250 -289 466 -491 668 -65 65 -115 123
-115 134 0 39 97 308 111 308 8 0 560 -681 1227 -1513 l1214 -1514 -11 -64
c-21 -118 17 -242 100 -325 40 -40 148 -99 181 -99 9 0 19 -4 22 -9 4 -5 42
-163 86 -352 63 -267 78 -344 68 -351 -7 -4 -37 -8 -65 -8 l-53 0 0 -90 c0
-79 2 -90 18 -90 60 1 494 29 496 32 2 1 0 39 -3 83 l-6 80 -85 5 -85 5 -62
320 c-34 176 -62 334 -62 350 -1 25 11 41 67 91 39 36 79 83 96 115 16 30 30
55 31 57 4 6 701 142 727 142 25 0 29 -5 43 -57 136 -487 374 -902 710 -1238
371 -371 842 -615 1316 -679 63 -9 144 -21 181 -26 98 -15 185 -12 358 10 209
27 329 53 490 106 333 111 658 314 922 577 323 322 562 730 697 1195 85 290
137 739 112 957 -7 55 -17 141 -22 190 -47 416 -192 830 -412 1181 -109 173
-205 293 -367 455 -219 221 -398 351 -663 480 -530 259 -1125 296 -1707 107
-168 -54 -352 -140 -510 -236 -19 -12 -42 -22 -50 -22 -12 1 -778 1033 -813
1096 -5 9 12 78 49 187 66 199 78 227 102 227 9 0 80 16 157 35 236 60 367
135 504 291 114 130 139 213 78 258 -27 20 -40 21 -210 19 -170 -1 -1680 -76
-1794 -89 -89 -9 -154 -70 -139 -129 13 -51 80 -102 229 -175 175 -84 350
-148 527 -191 74 -18 139 -36 144 -40 10 -9 -29 -154 -47 -176 -13 -17 -3422
-19 -3432 -3 -4 6 48 225 115 488 l122 477 -98 197 -98 196 79 94 c43 51 85
99 94 106 11 9 111 12 423 12 l408 0 0 78 c0 42 -3 107 -7 145 l-6 67 -466 0
-466 0 -220 -266z m3415 -2064 c0 -14 -887 -2980 -900 -3009 -6 -14 -15 -20
-19 -15 -11 12 -44 281 -37 300 4 9 21 14 52 14 l47 0 -7 61 c-3 34 -6 75 -6
90 l0 29 -220 0 -220 0 1 -32 c0 -18 4 -55 7 -83 l7 -50 55 -5 55 -5 6 -45
c14 -93 22 -300 12 -300 -8 0 -856 1048 -2095 2587 l-227 282 21 73 c11 40 24
83 29 96 l9 22 1715 0 c1118 0 1715 -3 1715 -10z m714 -665 c163 -214 296
-396 296 -403 0 -7 -39 -57 -86 -110 -287 -322 -481 -672 -599 -1083 -82 -285
-107 -469 -111 -834 -3 -227 -7 -302 -16 -307 -11 -6 -715 -88 -756 -88 -6 0
-12 9 -12 20 0 27 940 3191 953 3208 8 11 13 11 23 0 7 -7 146 -188 308 -403z
m-5735 -311 c245 -36 466 -114 689 -242 45 -27 62 -42 62 -57 0 -31 -103 -345
-150 -460 -148 -355 -301 -576 -617 -892 -181 -182 -195 -193 -250 -209 -76
-22 -126 -56 -162 -111 -103 -155 -31 -380 136 -429 113 -33 213 13 270 124
22 42 33 78 33 105 0 38 5 45 78 111 141 128 386 380 467 481 206 257 379 572
500 910 19 53 39 91 48 93 31 6 241 -264 340 -438 201 -352 301 -737 301
-1155 0 -351 -56 -633 -188 -940 -348 -811 -1116 -1313 -1923 -1254 -789 57
-1470 618 -1743 1436 -159 477 -162 1002 -10 1478 239 744 838 1304 1535 1434
143 27 153 28 329 29 91 1 190 -4 255 -14z m8006 -14 c499 -99 935 -395 1247
-845 157 -226 286 -528 347 -808 70 -324 68 -706 -5 -1035 -96 -428 -340 -863
-641 -1142 -694 -642 -1657 -699 -2405 -143 -365 271 -645 677 -773 1119 -15
52 -22 91 -16 97 5 5 112 30 237 57 126 27 528 112 894 189 l665 140 57 -16
c115 -32 226 20 283 132 26 50 30 70 30 134 0 129 -64 228 -171 266 -27 9 -55
20 -63 24 -20 10 -1071 1552 -1071 1571 0 33 227 142 415 199 230 70 389 91
660 86 157 -2 224 -7 310 -25z m-1169 -1222 c285 -408 518 -751 518 -762 1
-23 90 -5 -1028 -206 -340 -61 -625 -109 -634 -105 -13 5 -14 29 -8 198 24
713 177 1145 551 1555 31 34 63 62 70 62 7 0 246 -334 531 -742z"/>
</g>
</svg>
