<?xml version="1.0" standalone="no"?>
<!DOCTYPE svg PUBLIC "-//W3C//DTD SVG 20010904//EN"
 "http://www.w3.org/TR/2001/REC-SVG-20010904/DTD/svg10.dtd">
<svg version="1.0" xmlns="http://www.w3.org/2000/svg"
 width="1280.000000pt" height="871.000000pt" viewBox="0 0 1280.000000 871.000000"
 preserveAspectRatio="xMidYMid meet">
<g transform="translate(0.000000,871.000000) scale(0.100000,-0.100000)"
fill="#000000" stroke="none">
<path d="M9032 8695 c-87 -26 -109 -74 -93 -200 6 -52 6 -84 0 -91 -5 -7 -94
-47 -196 -91 -161 -68 -189 -83 -209 -113 -29 -42 -30 -52 -4 -75 18 -16 23
-17 82 -2 68 17 98 10 98 -23 0 -11 7 -20 15 -20 23 0 18 -21 -12 -52 -22 -23
-24 -30 -13 -43 20 -25 6 -40 -88 -94 l-90 -51 -84 6 -83 7 -68 -44 c-94 -61
-103 -105 -28 -127 31 -10 42 -19 47 -39 4 -15 2 -33 -5 -42 -41 -58 -35 -93
20 -101 32 -5 34 -7 67 -110 30 -95 33 -110 24 -156 -6 -28 -8 -68 -6 -90 4
-24 1 -46 -8 -57 -8 -11 -199 -86 -488 -192 -261 -95 -682 -249 -935 -343
-253 -93 -581 -213 -730 -267 -148 -53 -501 -180 -784 -282 -566 -203 -569
-204 -595 -140 -31 76 -30 83 19 117 50 35 55 52 23 74 -17 12 -35 14 -69 10
l-47 -6 -16 48 c-8 27 -76 258 -151 513 -74 255 -139 469 -145 476 -5 6 -27
17 -49 23 -43 14 -69 36 -51 47 6 4 54 11 106 16 92 8 102 12 221 75 l125 66
92 -1 c68 -1 129 -10 242 -38 147 -36 153 -36 178 -19 81 53 36 152 -97 211
-82 36 -199 52 -546 75 -403 28 -618 53 -755 89 -61 17 -147 40 -191 51 -160
43 -256 26 -294 -52 -28 -59 -27 -86 3 -98 18 -6 26 -19 31 -49 7 -40 42 -81
70 -81 7 0 32 -18 57 -40 58 -50 206 -136 261 -150 23 -7 59 -22 79 -36 21
-13 42 -24 47 -24 15 0 82 -69 116 -120 l31 -45 71 0 c39 0 76 -4 81 -10 12
-12 292 -939 292 -966 0 -14 -16 -26 -55 -43 -53 -24 -54 -25 -45 -55 13 -48
18 -51 74 -51 l52 0 28 -88 c26 -80 27 -92 16 -127 -15 -47 -252 -305 -280
-305 -10 0 -23 -12 -30 -29 -18 -43 -216 -226 -273 -252 -14 -6 -30 -22 -36
-35 -16 -36 -56 -52 -79 -31 -50 46 -63 57 -91 71 -16 9 -37 16 -45 16 -8 0
-19 6 -23 14 -4 7 -29 23 -55 35 -26 12 -64 32 -83 45 -20 14 -49 27 -65 31
-17 4 -30 10 -30 15 0 16 -201 99 -277 115 -10 2 -38 11 -63 20 -74 27 -254
65 -455 95 -85 12 -401 16 -520 6 -55 -4 -163 -21 -240 -36 -126 -25 -169 -37
-325 -85 -78 -24 -184 -66 -200 -79 -8 -7 -34 -19 -58 -26 -24 -7 -45 -17 -48
-21 -3 -5 -26 -18 -52 -29 -67 -30 -251 -139 -290 -172 -18 -15 -39 -28 -46
-28 -8 0 -21 -11 -30 -24 -9 -14 -48 -51 -88 -83 -84 -66 -313 -296 -333 -333
-8 -14 -38 -54 -69 -90 -31 -36 -79 -110 -107 -165 -65 -127 -87 -168 -121
-228 -16 -26 -28 -58 -28 -72 0 -13 -4 -27 -10 -30 -12 -7 -37 -62 -43 -95 -3
-14 -14 -47 -25 -75 -50 -124 -120 -430 -128 -565 -1 -19 -3 -70 -4 -114 0
-43 -5 -87 -11 -98 -6 -12 -7 -24 -1 -31 5 -7 10 -67 10 -134 1 -68 6 -131 12
-142 5 -11 10 -37 10 -58 0 -52 28 -179 85 -388 60 -219 229 -552 384 -755
145 -189 381 -416 576 -551 111 -78 401 -233 475 -254 14 -4 30 -11 35 -15 6
-4 57 -22 115 -39 58 -18 141 -44 185 -57 107 -34 207 -44 470 -49 351 -7 593
10 725 50 25 7 65 19 90 26 25 7 52 19 61 26 8 7 22 13 30 13 18 0 86 24 95
33 4 4 15 7 24 7 16 0 59 17 102 41 10 5 24 9 32 9 7 0 19 7 26 15 7 8 20 15
30 15 10 0 23 7 30 15 7 8 18 15 25 15 7 0 37 16 66 35 30 19 59 35 66 35 7 0
13 4 13 9 0 9 15 19 80 53 14 7 32 20 42 28 21 19 48 39 118 90 30 21 59 43
63 49 44 47 191 181 200 181 4 0 7 6 7 14 0 8 8 21 18 28 19 13 174 202 204
248 9 14 37 54 62 90 25 36 46 69 46 74 0 4 14 28 30 53 17 24 30 47 30 51 0
4 19 43 42 87 22 44 51 109 63 145 25 73 45 83 78 38 l20 -27 -23 -60 c-16
-45 -20 -70 -15 -98 8 -47 18 -59 67 -84 25 -13 40 -28 44 -47 7 -34 25 -82
31 -82 2 0 20 9 41 19 32 16 39 26 50 74 11 47 10 62 -2 98 -17 49 -24 35 69
139 110 124 198 210 216 210 11 0 24 -10 30 -23 8 -18 17 -22 38 -19 17 2 32
-2 40 -12 8 -9 28 -16 46 -16 18 0 38 -6 44 -14 9 -11 18 -12 42 -3 23 9 34 9
50 -1 16 -10 24 -10 35 -1 8 7 27 9 45 5 21 -4 35 -1 46 10 11 10 26 14 44 10
19 -3 32 1 44 14 12 13 25 18 40 14 16 -4 26 1 39 20 10 16 26 26 41 26 15 0
25 6 25 14 0 19 29 41 54 41 13 0 22 8 26 25 3 14 16 29 28 35 15 7 22 18 22
38 0 20 7 30 24 37 18 7 22 14 19 33 -4 19 1 29 20 42 23 15 25 19 14 42 -10
22 -8 28 12 45 18 14 21 22 13 30 -17 17 -15 38 5 60 13 14 14 21 5 30 -16 16
-15 51 1 67 10 10 9 14 -5 22 -20 11 -24 49 -7 66 8 8 6 14 -9 22 -25 14 -34
38 -22 60 7 15 4 21 -17 30 -21 9 -24 17 -21 41 3 21 0 30 -9 30 -37 0 -19 37
77 160 163 209 290 360 304 360 28 0 66 -41 66 -70 0 -23 7 -33 32 -46 32 -16
32 -16 59 17 25 31 26 35 12 52 -9 9 -21 27 -27 39 -6 12 -29 31 -51 42 -33
18 -42 29 -53 70 l-14 49 82 121 c123 181 1000 1446 1245 1796 204 291 221
311 357 443 140 135 299 257 335 257 24 0 63 -28 63 -45 0 -7 13 -23 29 -34
19 -14 32 -35 40 -67 7 -26 23 -68 36 -94 23 -45 27 -48 73 -54 46 -6 51 -9
75 -54 14 -26 35 -72 47 -102 12 -30 27 -62 34 -70 15 -18 186 -517 186 -543
0 -10 -12 -23 -27 -30 -16 -6 -34 -17 -41 -24 -7 -7 -19 -13 -27 -13 -16 0
-73 -29 -93 -47 -7 -7 -19 -13 -26 -13 -8 0 -20 -7 -27 -16 -7 -9 -22 -20 -34
-25 -42 -20 -69 -38 -77 -53 -5 -9 -13 -16 -19 -16 -14 0 -112 -79 -124 -100
-5 -10 -28 -32 -49 -49 -22 -18 -46 -41 -53 -51 -8 -11 -21 -20 -29 -20 -8 0
-15 -6 -15 -12 -1 -7 -2 -17 -3 -23 0 -5 -26 -35 -57 -65 -31 -30 -80 -84
-108 -120 -28 -36 -65 -82 -82 -103 -18 -21 -41 -56 -52 -78 -10 -21 -23 -39
-27 -39 -11 0 -70 -87 -70 -102 0 -6 -7 -20 -17 -30 -18 -20 -31 -42 -63 -108
-12 -25 -33 -67 -46 -93 -13 -27 -24 -55 -24 -62 0 -7 -8 -28 -17 -47 -30 -61
-33 -68 -33 -86 0 -9 -6 -27 -14 -38 -16 -22 -56 -169 -56 -203 0 -12 -4 -29
-9 -39 -13 -26 -29 -82 -36 -132 -4 -25 -12 -53 -17 -63 -18 -34 -7 -602 13
-639 5 -10 11 -39 13 -65 5 -65 35 -224 47 -245 5 -10 9 -25 9 -35 0 -9 4 -30
10 -47 58 -182 72 -224 80 -241 5 -11 23 -51 39 -88 17 -38 31 -70 31 -72 0
-2 16 -27 35 -56 19 -30 35 -58 35 -64 0 -6 9 -16 20 -23 11 -7 20 -19 20 -27
0 -20 38 -82 55 -89 8 -3 15 -14 15 -24 0 -11 7 -25 15 -32 8 -7 15 -23 15
-35 0 -20 109 -154 175 -215 8 -8 60 -58 113 -110 54 -52 134 -124 178 -158
43 -35 94 -75 112 -90 19 -15 46 -33 60 -41 15 -7 36 -21 47 -30 22 -19 104
-68 207 -125 37 -20 70 -41 73 -46 3 -6 13 -10 21 -10 8 0 42 -14 76 -30 33
-17 65 -30 71 -30 6 0 18 -6 26 -14 20 -17 202 -76 236 -76 13 0 26 -4 30 -9
7 -13 132 -38 220 -46 117 -10 653 -7 775 4 206 19 284 38 445 107 94 40 158
64 169 64 8 0 19 7 26 15 7 8 21 15 30 15 17 0 175 76 202 97 7 6 33 21 58 34
24 13 52 32 62 41 10 10 23 18 28 18 11 0 15 3 65 44 17 14 68 55 114 92 73
58 154 130 186 164 6 6 33 35 60 64 28 29 62 67 77 85 15 17 32 31 38 31 5 0
16 15 24 32 8 18 26 45 40 60 14 15 26 34 26 41 0 8 7 20 16 27 8 8 27 34 41
59 15 25 37 59 50 74 26 32 153 288 153 308 0 8 11 36 24 64 39 81 82 217 96
301 4 28 15 65 24 83 10 18 14 41 11 51 -3 11 -1 28 5 39 18 35 38 207 43 371
2 77 -18 356 -33 455 -6 39 -15 95 -19 125 -4 30 -12 65 -19 77 -7 12 -12 34
-12 50 -1 15 -9 46 -20 68 -11 22 -20 49 -20 60 0 11 -9 38 -20 60 -11 22 -19
47 -20 56 0 9 -11 36 -23 60 -13 24 -30 62 -37 83 -7 21 -23 54 -36 74 -13 19
-24 40 -24 46 0 6 -11 27 -24 46 -13 19 -26 45 -30 57 -8 25 -61 109 -98 157
-13 17 -28 41 -35 55 -6 14 -48 64 -93 111 -44 47 -88 97 -97 111 -8 14 -28
34 -44 44 -15 11 -33 29 -39 40 -6 12 -45 50 -86 86 -41 35 -94 83 -119 107
-24 23 -50 42 -58 42 -7 0 -23 11 -35 25 -12 13 -39 33 -62 45 -22 11 -40 24
-40 29 0 5 -21 19 -47 32 -27 12 -57 30 -68 40 -11 10 -37 25 -57 33 -20 9
-54 27 -74 41 -21 14 -49 28 -63 32 -13 3 -40 17 -59 30 -19 12 -47 23 -62 23
-15 0 -33 7 -40 15 -7 8 -28 17 -49 20 -36 6 -158 40 -196 55 -19 8 -55 16
-101 24 -11 1 -26 6 -32 10 -6 3 -35 7 -64 7 -29 1 -57 5 -63 9 -22 18 -182
33 -385 35 -219 3 -324 -5 -440 -32 -36 -8 -76 -16 -90 -17 -14 -1 -32 -5 -40
-8 -79 -28 -80 -28 -91 0 -14 37 -1 75 99 272 45 91 78 160 73 155 -20 -21
-114 -193 -138 -252 -27 -67 -48 -80 -59 -37 -7 26 -7 26 -91 22 -53 -3 -86 0
-92 6 -21 28 -110 314 -109 351 1 22 -9 84 -21 138 -22 95 -24 99 -58 113 -39
17 -39 37 -1 42 18 2 31 -4 41 -18 8 -12 18 -17 21 -12 7 12 -3 44 -18 54 -18
13 -79 9 -136 -8 l-54 -16 -22 27 c-19 23 -21 36 -17 84 7 70 -10 153 -38 192
-25 36 -18 49 29 51 l37 1 -33 4 c-18 3 -35 10 -38 17 -3 7 -15 11 -27 9 -18
-4 -27 5 -50 52 -16 32 -24 62 -20 69 5 7 44 45 88 84 106 95 128 96 81 4 -13
-26 -29 -67 -36 -90 -6 -24 -14 -51 -17 -60 -3 -9 11 -1 31 18 38 36 106 146
118 190 13 52 48 133 64 151 9 10 18 29 19 43 2 13 26 61 53 107 28 47 63 122
78 168 26 81 28 83 73 103 25 10 56 17 68 15 12 -2 24 1 26 8 3 6 41 21 86 34
92 25 166 54 175 70 12 20 -39 12 -165 -24 -89 -26 -125 -32 -135 -25 -9 9
-13 6 -16 -12 -2 -17 -11 -24 -30 -26 -24 -3 -28 0 -28 20 0 28 25 66 36 56 4
-5 12 1 18 11 6 10 30 43 52 73 41 53 43 54 95 55 72 2 205 -41 242 -79 16
-15 37 -28 47 -28 25 0 135 -110 194 -195 57 -81 74 -100 56 -65 -21 41 -114
163 -169 219 -28 29 -51 59 -51 66 0 8 -6 12 -14 9 -19 -7 -127 42 -143 66 -9
13 -26 20 -47 20 -19 0 -39 6 -45 13 -6 8 -23 12 -39 9 -17 -2 -35 2 -43 10
-8 8 -20 13 -28 10 -7 -2 -31 1 -52 8 -41 14 -57 41 -45 78 4 13 1 22 -9 26
-21 8 -19 40 6 62 l21 19 -24 5 c-17 5 -23 13 -23 34 0 57 72 62 95 6 13 -31
50 -43 50 -15 0 18 21 20 38 3 15 -15 16 -45 1 -50 -7 -2 -7 -12 2 -31 11 -23
9 -33 -15 -79 l-26 -53 30 35 c25 30 31 33 41 20 8 -12 9 -8 5 15 -19 94 -19
102 9 148 14 26 24 51 20 57 -9 14 -76 48 -169 85 -57 22 -84 39 -95 58 -17
28 -122 87 -157 87 -28 0 -74 37 -74 59 0 10 -8 26 -19 35 -14 13 -20 35 -23
94 -5 88 -19 116 -68 142 -31 15 -40 16 -78 5z m258 -566 c0 -24 -23 -21 -28
4 -2 10 3 17 12 17 10 0 16 -9 16 -21z m70 -158 c53 -50 36 -67 -31 -29 -39
22 -50 42 -26 51 22 9 27 7 57 -22z m-31 -50 c38 -31 35 -51 -6 -51 -31 0 -63
26 -63 50 0 38 24 39 69 1z m-70 -35 c8 -10 9 -16 1 -21 -13 -8 -30 3 -30 21
0 18 14 18 29 0z m-44 -37 c0 -8 -10 -15 -22 -17 -25 -4 -33 22 -10 31 18 8
32 2 32 -14z m79 -68 c9 -15 -23 -36 -36 -23 -5 5 -7 15 -4 21 9 13 33 14 40
2z m96 -36 c14 -17 3 -70 -29 -135 -10 -19 -30 -61 -46 -93 -43 -89 -124 -200
-141 -193 -10 4 -14 -2 -14 -19 0 -16 -24 -51 -67 -101 -75 -86 -242 -236
-258 -231 -5 2 -32 71 -60 154 -47 143 -53 154 -100 200 -45 44 -54 60 -83
152 -25 80 -30 107 -21 117 7 9 20 12 31 8 11 -3 59 -7 107 -9 53 -2 120 -13
176 -29 111 -31 142 -32 171 -5 l23 22 45 -29 c25 -16 47 -35 48 -42 5 -23 48
16 48 44 0 13 17 48 37 77 20 28 46 66 57 82 34 49 54 57 76 30z m-576 -41
c18 -47 -4 -71 -49 -54 -31 12 -31 17 -3 47 25 27 43 29 52 7z m434 3 c13 -15
-33 -117 -52 -117 -20 0 -66 54 -66 77 0 16 11 25 43 36 53 19 62 20 75 4z
m142 -160 c0 -17 -38 -52 -47 -44 -10 11 15 57 32 57 8 0 15 -6 15 -13z m-25
-109 c-9 -43 -44 -100 -56 -92 -12 7 -1 72 17 102 8 12 21 22 30 22 12 0 14
-7 9 -32z m-126 -154 c-10 -42 -21 -79 -24 -83 -11 -10 -35 31 -35 59 0 30 45
100 64 100 11 0 10 -15 -5 -76z m-4649 16 c0 -5 -14 -17 -32 -26 -39 -20 -192
-32 -202 -16 -8 13 4 16 114 36 94 17 120 19 120 6z m4590 -100 c2 -49 -17
-108 -46 -145 -40 -53 -225 -215 -246 -215 -10 0 -22 16 -32 47 l-16 48 123
120 c68 66 138 137 156 158 28 33 35 37 47 25 8 -7 14 -25 14 -38z m-50 -199
c0 -5 -7 -14 -15 -21 -12 -10 -15 -10 -15 2 0 8 3 18 7 21 9 10 23 9 23 -2z
m-973 -358 c5 -15 -31 -26 -57 -18 -25 8 -26 22 -2 28 27 8 55 3 59 -10z m-27
-47 c0 -24 -703 -1001 -723 -1004 -12 -3 -20 4 -24 17 -3 12 -9 21 -14 21 -14
0 -11 38 6 70 14 27 14 33 0 59 -12 24 -25 32 -67 41 -272 59 -654 -34 -779
-190 -19 -23 -115 -158 -214 -301 -99 -142 -270 -388 -380 -546 -313 -448
-392 -569 -399 -608 -9 -46 -25 -41 -52 16 -12 25 -33 62 -47 83 -14 20 -31
53 -37 72 -12 35 -12 35 49 91 134 121 139 207 36 551 -73 241 -141 397 -197
450 -37 34 -123 60 -216 65 -87 4 -105 13 -100 51 3 21 52 42 318 131 96 33
193 67 215 76 113 49 1260 439 1291 439 8 0 25 6 37 14 12 8 169 71 349 139
328 125 708 248 780 251 21 1 44 8 50 14 18 18 118 16 118 -2z m-3390 -1201
c0 -9 7 -15 17 -13 24 4 85 -200 77 -254 -5 -31 -2 -41 19 -60 23 -22 67 -140
67 -182 0 -25 -26 -19 -50 12 -16 19 -20 21 -15 7 4 -11 10 -39 12 -62 7 -51
26 -72 49 -53 12 11 17 11 29 -1 21 -22 54 -150 48 -188 -5 -27 -1 -37 16 -50
17 -13 55 -126 176 -531 85 -282 155 -523 155 -536 0 -19 -6 -22 -62 -27 -35
-2 -67 -1 -73 4 -5 5 -13 9 -17 9 -12 0 -10 -88 2 -95 6 -4 26 5 45 19 41 32
57 33 53 4 -2 -12 -23 -37 -48 -56 -96 -71 -153 -130 -202 -210 -28 -45 -55
-85 -60 -88 -14 -9 -9 14 14 61 l22 45 -21 15 c-17 12 -21 25 -21 72 -1 32 -6
81 -11 108 -6 28 -13 72 -16 98 -2 27 -8 53 -11 59 -7 10 -32 112 -41 166 -3
18 -9 35 -14 38 -5 3 -9 15 -9 28 0 12 -4 26 -8 32 -5 5 -14 29 -22 54 -7 25
-23 69 -36 98 -13 29 -24 61 -24 72 0 11 -4 20 -10 20 -5 0 -13 12 -16 28 -4
15 -21 52 -37 82 -16 30 -44 82 -61 115 -17 33 -37 64 -43 68 -7 4 -13 12 -13
17 0 6 -18 36 -40 67 -22 32 -40 64 -40 71 0 6 -4 12 -10 12 -5 0 -12 11 -16
24 -3 14 -17 32 -30 41 -13 8 -24 22 -24 29 0 8 -54 68 -120 135 -66 66 -120
124 -120 129 0 21 508 581 528 582 6 0 12 -7 12 -15z m5740 -320 c8 -5 31 -8
51 -6 60 4 330 -63 474 -118 110 -42 148 -67 142 -91 -5 -18 -3 -18 19 -4 22
15 28 13 116 -39 51 -30 112 -69 136 -86 37 -27 41 -34 32 -52 -10 -18 -10
-19 9 -7 27 17 43 7 161 -97 95 -84 110 -106 88 -132 -12 -15 -11 -15 10 -2
22 13 26 11 69 -36 76 -83 153 -190 153 -213 0 -13 6 -22 15 -22 18 0 66 -75
120 -188 l40 -84 -24 -20 -25 -19 27 6 c22 6 29 2 47 -27 21 -34 90 -236 90
-263 0 -9 -7 -18 -17 -22 -14 -5 -13 -7 5 -14 14 -5 26 -25 36 -59 21 -71 39
-215 33 -260 -3 -21 0 -43 5 -48 14 -14 6 -295 -9 -313 -7 -9 -8 -20 -3 -28 4
-8 6 -30 4 -50 -11 -78 -47 -227 -61 -250 -8 -13 -17 -42 -18 -65 -4 -41 -46
-160 -85 -236 -18 -34 -24 -40 -43 -34 -18 5 -20 4 -9 -7 6 -7 12 -21 12 -32
0 -20 -98 -197 -135 -243 -22 -27 -25 -28 -56 -17 l-32 12 23 -24 c26 -28 28
-24 -61 -131 -91 -110 -125 -137 -150 -123 -18 9 -19 9 -7 -11 12 -20 8 -26
-50 -80 -91 -84 -188 -146 -206 -131 -12 10 -13 9 -9 -7 6 -24 -66 -79 -177
-133 -90 -44 -110 -47 -117 -19 -8 29 -19 25 -18 -7 0 -34 -31 -52 -162 -100
-66 -23 -108 -33 -130 -30 -17 3 -33 1 -35 -5 -5 -15 -100 -37 -217 -51 -84
-9 -105 -9 -109 1 -3 10 -7 10 -18 1 -34 -28 -300 -22 -329 7 -8 9 -16 10 -20
4 -3 -5 -18 -10 -32 -10 -49 0 -278 51 -294 66 -9 8 -23 12 -31 9 -30 -12
-308 107 -308 131 0 8 -6 11 -15 8 -26 -10 -285 145 -285 171 0 8 -6 12 -14 9
-16 -6 -163 115 -251 208 -113 118 -225 260 -225 286 0 6 -14 25 -31 43 -18
19 -56 83 -85 143 -43 86 -51 112 -43 127 8 16 6 19 -9 19 -15 0 -26 19 -50
83 -51 133 -68 205 -54 228 10 15 9 19 -3 19 -8 0 -18 16 -24 38 -15 56 -41
225 -42 274 -4 180 -2 336 5 353 5 11 8 30 7 41 -5 55 50 302 70 315 7 4 9 14
6 24 -14 34 99 305 126 305 10 0 13 7 10 20 -6 21 18 67 100 193 48 75 52 78
80 73 29 -6 30 -6 13 13 -21 23 -19 25 43 101 69 84 144 160 158 160 7 0 13 6
13 14 0 16 87 96 105 96 6 0 25 -16 42 -35 35 -39 45 -42 64 -19 12 14 8 21
-26 50 l-40 34 35 30 c19 16 46 35 59 42 14 7 35 22 48 34 27 25 101 60 109
51 10 -10 104 -300 111 -342 3 -22 12 -50 20 -61 17 -26 133 -359 133 -381 0
-9 7 -24 15 -32 16 -18 145 -383 145 -411 0 -34 -99 -67 -116 -39 -7 12 -17
88 -39 294 l-14 130 5 -111 c4 -74 2 -114 -5 -118 -7 -5 -6 -17 5 -39 24 -45
31 -205 9 -213 -21 -8 -19 -23 6 -43 16 -12 23 -35 30 -96 5 -44 14 -91 19
-105 5 -14 6 -51 2 -86 -6 -49 -15 -70 -41 -99 -20 -23 -31 -45 -29 -58 3 -20
9 -22 66 -21 l63 1 12 -44 c6 -24 28 -64 48 -88 20 -24 40 -60 43 -79 7 -37
75 -107 132 -136 16 -8 48 -27 71 -43 69 -46 106 -56 210 -60 54 -2 104 -7
111 -11 8 -5 51 11 112 43 54 28 106 51 114 51 9 0 16 4 16 9 0 5 14 14 30 20
17 5 30 14 30 19 0 5 8 12 19 15 12 3 28 29 45 76 15 39 39 79 52 90 13 10 27
34 30 52 9 48 22 69 42 69 14 0 13 3 -6 18 -21 16 -22 23 -18 107 3 72 -1 103
-18 155 -11 36 -25 67 -30 69 -22 9 -46 43 -46 65 0 25 -73 116 -94 116 -12 0
-115 63 -125 77 -3 5 -24 18 -47 30 -34 18 -53 21 -125 18 -46 -1 -103 2 -127
7 l-42 10 -50 162 c-28 88 -56 175 -62 191 -83 233 -107 309 -113 351 -4 27
-14 59 -22 72 -20 32 -160 476 -168 534 -6 40 -4 48 13 57 27 14 82 14 82 0 0
-6 8 -2 18 9 20 23 116 47 235 57 74 7 79 6 84 -14 6 -24 23 -29 23 -6 0 29
33 36 170 32 75 -2 142 -7 150 -12z m-7793 -68 c7 -4 47 -9 90 -11 74 -4 180
-25 231 -46 15 -7 22 -18 22 -37 l0 -28 13 25 c18 34 43 30 192 -29 82 -33
123 -54 131 -69 7 -15 14 -18 21 -11 7 7 27 2 64 -16 95 -48 169 -96 169 -110
0 -8 -34 -40 -75 -71 -41 -31 -75 -58 -75 -61 0 -5 84 52 132 90 38 30 77 32
61 3 -5 -9 -112 -122 -239 -253 -127 -131 -273 -283 -324 -338 -360 -383 -390
-413 -423 -412 -36 2 -50 33 -23 52 13 10 14 18 5 44 -6 17 -15 31 -21 31 -16
0 -78 52 -72 61 3 5 -1 9 -9 9 -8 0 -18 -11 -21 -25 -3 -13 -19 -31 -35 -39
-16 -9 -31 -21 -34 -29 -3 -7 -23 -19 -46 -27 -23 -7 -41 -18 -42 -24 -1 -21
-66 -101 -85 -105 -21 -4 -44 -20 -44 -31 0 -4 13 -13 30 -20 38 -16 52 -33
44 -54 -7 -18 -81 -59 -126 -70 -16 -3 -28 -12 -28 -20 0 -17 -30 -43 -55 -48
-11 -2 -20 -10 -21 -18 -2 -35 -5 -40 -24 -40 -11 0 -20 -7 -20 -15 0 -19 -13
-24 -185 -70 -77 -20 -142 -39 -145 -42 -2 -2 13 -19 34 -37 35 -29 38 -34 27
-54 -6 -12 -16 -22 -21 -22 -10 0 -80 -121 -80 -136 1 -5 11 11 24 35 30 57
133 161 210 211 68 45 92 49 101 20 8 -24 -2 -60 -16 -60 -7 0 -8 -12 -4 -31
4 -19 2 -41 -5 -55 -10 -18 -10 -26 -1 -38 10 -11 9 -19 -1 -36 -11 -18 -11
-23 5 -34 10 -8 17 -26 17 -45 0 -17 10 -45 21 -60 12 -16 18 -34 14 -41 -4
-7 1 -13 14 -17 29 -7 36 -35 36 -148 0 -80 4 -105 18 -127 23 -33 19 -71 -7
-76 -10 -2 -21 0 -25 6 -4 6 -24 5 -55 -3 -54 -14 -92 -7 -160 27 -52 27 -166
140 -166 166 0 11 -7 25 -15 32 -28 23 -17 -12 21 -68 19 -30 33 -60 30 -68
-4 -9 2 -14 15 -14 12 0 34 -9 50 -21 16 -11 64 -36 106 -56 43 -20 80 -39 83
-43 11 -14 73 -30 84 -21 7 6 27 6 51 1 55 -13 53 -14 63 23 6 23 15 33 33 35
13 2 30 8 36 14 20 16 43 1 43 -29 1 -32 21 -63 41 -63 8 0 23 7 33 15 26 20
70 20 63 1 -4 -9 3 -16 18 -20 14 -4 29 -15 35 -26 7 -13 21 -20 38 -20 33 0
72 -33 72 -59 0 -10 -11 -26 -25 -35 -14 -9 -25 -22 -25 -29 0 -8 -11 -24 -25
-37 -14 -13 -25 -29 -25 -35 0 -7 -10 -24 -22 -39 -13 -14 -41 -49 -63 -76
-22 -28 -64 -75 -92 -106 -29 -31 -53 -62 -53 -71 0 -8 -5 -23 -11 -34 -9 -17
-19 -20 -57 -17 -45 3 -47 2 -50 -24 -3 -23 3 -30 37 -47 39 -20 72 -58 85
-96 7 -23 85 -65 120 -65 14 0 37 5 53 11 15 5 41 12 58 14 16 2 55 11 85 20
30 9 62 17 70 16 8 0 38 6 65 14 96 27 131 34 205 47 41 6 81 18 88 25 7 7 22
13 32 13 11 0 45 7 77 16 56 15 74 20 173 42 68 16 305 81 335 92 15 6 39 10
55 10 16 0 31 4 34 9 3 5 20 11 38 14 18 2 58 12 88 21 74 23 128 36 170 43
19 3 42 11 50 18 14 11 95 35 119 35 19 0 12 -26 -19 -69 -23 -31 -36 -41 -49
-36 -15 4 -17 1 -14 -17 3 -16 -8 -39 -33 -73 -56 -76 -156 -175 -176 -175
-11 0 -18 -7 -18 -19 0 -34 -220 -216 -252 -208 -11 3 -18 0 -18 -8 0 -20 -64
-66 -174 -125 -83 -45 -102 -51 -117 -41 -15 9 -19 8 -19 -4 0 -19 -74 -56
-178 -89 -92 -29 -128 -32 -135 -13 -3 7 -6 5 -6 -5 -1 -22 -71 -43 -210 -64
-91 -14 -105 -14 -118 -1 -13 13 -18 12 -35 -5 -19 -19 -30 -20 -158 -16 -76
3 -143 8 -149 13 -7 4 -49 9 -94 10 -108 5 -236 37 -258 64 -12 14 -19 17 -22
9 -7 -23 -307 86 -307 111 0 6 -10 11 -22 11 -24 0 -221 108 -256 140 -12 12
-20 26 -16 32 4 6 -1 8 -13 4 -15 -5 -35 5 -72 34 -28 22 -51 43 -51 46 0 3
23 27 52 54 35 33 49 52 45 64 -10 26 -26 19 -77 -34 -27 -27 -51 -50 -54 -50
-16 0 -96 85 -96 101 0 12 -7 19 -18 19 -21 0 -56 36 -141 144 -47 59 -62 85
-58 103 3 17 0 23 -14 23 -38 0 -172 256 -248 473 -22 65 -41 122 -41 127 0 5
12 16 28 24 l27 15 -26 1 c-15 0 -32 6 -38 14 -29 35 -66 454 -52 591 6 57 8
60 36 66 l30 6 -27 11 c-16 7 -28 19 -28 29 0 40 31 193 55 273 55 181 66 213
95 277 29 64 30 65 62 59 l32 -6 -23 24 -23 24 46 89 c25 48 64 109 86 135 37
42 43 46 66 38 43 -17 50 -11 19 14 l-29 24 28 41 c37 53 151 182 170 193 10
6 26 2 43 -9 28 -17 28 -17 11 3 -10 11 -18 26 -18 32 0 15 71 82 158 149 64
50 76 55 93 45 17 -11 19 -9 19 12 0 19 14 33 66 66 84 53 190 101 208 94 7
-3 18 -15 25 -27 11 -22 11 -22 10 3 -1 14 -1 31 0 38 2 26 224 112 288 112
11 0 25 -10 31 -22 10 -22 11 -21 11 9 1 29 4 32 49 42 67 15 185 31 226 31
31 0 38 -5 50 -32 l14 -33 1 31 c1 17 4 34 9 38 9 10 293 3 309 -7z m1233
-574 c8 -18 22 -33 31 -33 28 0 209 -217 209 -251 0 -10 6 -22 14 -26 29 -16
156 -246 156 -282 0 -11 5 -21 10 -23 16 -5 88 -193 105 -272 8 -39 19 -87 25
-107 6 -20 17 -78 24 -130 18 -116 13 -123 -79 -114 -33 4 -87 8 -120 10 -96
5 -214 15 -299 24 -44 5 -85 7 -92 4 -7 -3 -18 -1 -25 3 -7 4 -53 9 -103 10
-50 2 -111 6 -136 9 -25 3 -92 7 -150 10 -204 9 -430 33 -447 47 -7 6 -13 18
-13 28 0 10 -7 20 -15 24 -8 3 -15 12 -15 20 0 8 -20 27 -45 42 -25 14 -45 31
-45 37 0 15 101 117 116 117 6 0 16 11 22 25 7 14 23 30 37 37 14 6 25 17 25
25 0 21 90 113 111 113 11 0 25 14 35 33 19 37 183 207 200 207 13 0 148 -198
181 -265 11 -22 37 -84 57 -138 l38 -97 63 4 c60 5 135 37 135 59 0 4 -15 47
-34 95 -57 148 -154 326 -240 437 -39 51 -42 60 -25 70 6 4 8 13 5 20 -7 18
232 267 253 263 9 -2 23 -18 31 -35z m1560 -485 c25 -41 25 -48 1 -48 -18 0
-31 25 -31 63 0 25 8 21 30 -15z m169 -67 c28 -38 90 -106 137 -150 78 -73 91
-81 126 -81 31 0 41 -5 50 -24 13 -30 -2 -97 -37 -165 -35 -66 -55 -88 -97
-105 -47 -20 -52 -13 -78 95 -13 51 -49 143 -92 231 -59 121 -69 150 -59 162
10 12 10 20 -3 38 -17 24 -22 68 -7 68 4 0 31 -31 60 -69z m-85 -193 c26 -119
30 -148 18 -148 -12 0 -72 174 -72 208 0 14 6 22 18 22 14 0 21 -17 36 -82z
m-2974 -20 c0 -45 -52 -98 -96 -98 -59 0 -57 45 4 81 20 13 41 29 45 36 4 7
17 13 27 13 16 0 20 -7 20 -32z m3500 14 c0 -21 -86 -152 -100 -152 -15 0 -13
143 2 158 7 7 31 12 55 12 34 0 43 -4 43 -18z m-415 -117 c24 -77 30 -125 16
-125 -24 0 -99 199 -84 223 10 17 52 -44 68 -98z m4726 -37 c22 -12 39 -25 39
-30 0 -5 12 -13 26 -18 14 -6 46 -24 70 -41 41 -28 45 -34 42 -67 -3 -30 -8
-37 -33 -44 -16 -5 -56 -6 -88 -2 -53 6 -57 5 -55 -14 4 -26 1 -26 -68 -12
-45 10 -59 17 -75 43 -10 18 -19 39 -19 48 0 9 -9 24 -20 34 -26 23 -25 55 0
88 33 42 121 49 181 15z m-627 -90 c6 -18 6 -40 -3 -67 -18 -63 -68 -76 -75
-20 -2 13 -8 37 -15 52 -6 16 -11 32 -11 36 0 18 28 32 60 29 27 -2 37 -9 44
-30z m-6850 -69 c27 -21 33 -43 15 -55 -11 -6 -79 52 -79 68 0 15 37 8 64 -13z
m7745 -105 c26 -30 46 -89 35 -106 -4 -6 -6 -49 -6 -97 1 -47 -2 -91 -6 -98
-4 -7 -26 -15 -49 -19 -63 -10 -76 12 -77 123 l-1 88 -47 44 c-69 63 -64 74
32 84 86 9 96 7 119 -19z m-7369 -16 c58 -6 132 -12 165 -14 166 -8 251 -17
263 -26 8 -7 20 -8 35 -1 14 6 52 7 102 1 44 -4 114 -10 155 -12 41 -2 98 -7
125 -11 28 -3 117 -10 198 -14 81 -4 152 -12 157 -17 13 -13 22 -87 12 -102
-6 -9 -101 -5 -458 24 -247 19 -507 37 -579 40 -71 2 -141 7 -155 11 -14 3
-28 6 -33 5 -14 -4 -176 40 -192 52 -8 6 -18 25 -21 43 -6 29 -4 32 22 36 16
3 45 3 64 0 19 -2 82 -9 140 -15z m1920 -14 c0 -21 -69 -84 -92 -84 -30 0 -20
26 24 64 45 39 68 45 68 20z m4665 -65 c19 -17 35 -34 35 -38 0 -11 -47 -31
-70 -31 -17 0 -20 7 -20 43 0 38 5 57 16 57 2 0 19 -14 39 -31z m-4575 -93 c0
-2 3 -11 6 -19 6 -17 -21 -47 -42 -47 -23 0 -28 29 -9 50 16 18 45 28 45 16z
m148 -73 c-3 -33 -7 -38 -31 -41 -38 -5 -46 22 -17 54 35 36 52 31 48 -13z
m4581 -19 c50 -41 36 -84 -26 -84 -22 0 -36 -6 -43 -20 -9 -17 -21 -20 -70
-20 -51 0 -64 4 -92 28 -19 18 -29 35 -26 44 6 14 174 77 210 78 9 0 30 -12
47 -26z m543 -115 c15 -29 28 -62 28 -72 0 -23 -62 -87 -83 -87 -8 0 -38 -16
-67 -35 -29 -19 -58 -35 -66 -35 -8 0 -25 -7 -39 -16 -18 -12 -28 -13 -44 -5
-36 20 -35 47 6 129 31 61 44 78 63 80 14 2 29 8 35 13 5 5 17 9 26 9 10 0 34
18 55 40 21 22 43 39 49 37 5 -2 22 -28 37 -58z m-4428 8 c7 -19 7 -37 -1 -58
-10 -24 -9 -35 5 -59 18 -32 9 -65 -19 -65 -20 0 -42 51 -31 72 6 11 6 23 0
33 -7 10 -8 36 -4 64 6 36 11 46 24 44 9 -2 21 -16 26 -31z m-2958 -6 c6 -1
16 -12 22 -26 10 -22 9 -27 -6 -31 -9 -3 -34 -12 -55 -20 -37 -14 -97 -19 -97
-8 0 3 12 25 26 49 24 41 28 44 62 40 20 -2 42 -4 48 -4z m7047 -30 c24 -11
47 -27 50 -35 14 -36 -42 -166 -72 -166 -10 0 -21 -7 -25 -15 -4 -10 -19 -15
-48 -15 -36 0 -61 12 -156 73 -118 76 -140 103 -108 135 9 9 31 17 48 19 18 1
71 8 118 17 99 17 131 15 193 -13z m-6683 -9 c71 -15 24 -27 -95 -23 -120 3
-144 9 -130 31 8 13 149 7 225 -8z m22 -60 c16 -13 185 -47 338 -68 63 -9 120
-19 126 -22 51 -30 245 -165 251 -175 5 -7 33 -20 65 -30 31 -10 59 -24 62
-32 11 -30 -91 -288 -118 -298 -9 -4 -13 -13 -10 -21 8 -22 -32 -92 -67 -117
-17 -12 -48 -26 -68 -30 -20 -4 -58 -13 -86 -19 -55 -11 -147 -38 -269 -77
-43 -13 -89 -23 -102 -20 -13 2 -29 -2 -35 -9 -6 -8 -26 -14 -43 -14 -18 0
-37 -5 -42 -10 -9 -9 -113 -37 -259 -70 -27 -7 -68 -18 -90 -25 -22 -7 -67
-18 -100 -25 -33 -7 -70 -16 -83 -21 -32 -13 -79 -11 -88 3 -5 8 -11 5 -20 -7
-21 -28 -125 -63 -209 -70 -22 -1 -51 -7 -65 -13 -42 -16 -129 -34 -138 -28
-9 6 4 56 21 83 10 16 -3 95 -19 114 -12 13 -6 28 42 107 31 50 78 115 105
144 42 45 49 59 49 93 0 25 11 60 30 94 28 50 29 57 18 95 -6 23 -12 79 -13
126 -2 93 10 120 51 120 13 0 26 5 29 10 3 6 14 10 23 10 17 0 102 78 102 94
0 21 51 74 77 79 15 3 55 13 87 22 33 9 73 14 90 12 17 -3 40 -1 51 4 27 12
291 5 307 -9z m691 -7 c109 -8 202 -17 207 -20 6 -4 10 -15 10 -26 0 -18 -8
-19 -137 -19 -95 1 -151 5 -178 15 -22 8 -64 18 -93 21 -29 4 -63 15 -75 25
-22 18 -22 18 23 19 25 0 134 -7 243 -15z m201 -105 c12 -12 -20 -160 -39
-179 -11 -12 -28 -6 -111 38 -129 69 -214 128 -214 148 0 14 18 15 177 9 98
-4 182 -11 187 -16z m566 4 c27 -6 31 -10 27 -31 -3 -16 2 -27 15 -34 16 -9
19 -18 15 -45 -4 -25 -2 -34 8 -34 19 0 35 -32 29 -57 -4 -15 0 -22 15 -26 29
-7 27 -16 -16 -71 l-37 -48 -98 4 c-53 1 -102 8 -107 13 -10 10 -8 22 17 95 3
8 7 24 8 35 9 64 32 163 43 183 12 23 28 26 81 16z m1040 -104 c0 -19 -5 -30
-14 -30 -17 0 -28 24 -20 45 11 27 34 17 34 -15z m-20 -58 c0 -25 -67 -110
-92 -118 -30 -9 -44 10 -30 41 8 17 20 25 37 25 21 0 25 5 25 29 0 29 10 39
43 40 10 1 17 -6 17 -17z m-3702 -65 c2 -10 -3 -17 -11 -17 -16 0 -30 24 -19
34 10 10 27 1 30 -17z m3562 -47 c13 -9 13 -11 0 -20 -19 -13 -37 -13 -45 0
-15 24 17 38 45 20z m-3234 -61 c9 -16 -12 -33 -31 -25 -14 5 -15 9 -5 21 15
18 26 19 36 4z m3075 -10 c44 -14 58 -38 33 -56 -22 -16 -44 -16 -80 -2 -22 8
-35 6 -60 -7 -27 -15 -37 -16 -58 -6 -14 6 -26 18 -26 27 0 23 46 48 80 43 17
-3 33 -1 36 4 7 11 30 10 75 -3z m-752 -28 c46 -9 49 -26 9 -47 -47 -25 -99
-26 -106 -2 -3 12 -10 17 -22 13 -24 -8 -36 26 -15 41 15 12 57 10 134 -5z
m-2307 -46 c0 -5 -5 -11 -11 -13 -6 -2 -11 4 -11 13 0 9 5 15 11 13 6 -2 11
-8 11 -13z m-116 -150 c7 -17 -54 -142 -102 -207 -43 -60 -134 -103 -134 -63
0 8 4 15 9 15 5 0 13 10 16 23 4 12 20 36 36 52 77 83 89 96 89 106 0 13 62
89 73 89 4 0 10 -7 13 -15z"/>
<path d="M4732 5305 c0 -16 2 -22 5 -12 2 9 2 23 0 30 -3 6 -5 -1 -5 -18z"/>
<path d="M4810 4991 c0 -6 4 -13 10 -16 6 -3 7 1 4 9 -7 18 -14 21 -14 7z"/>
<path d="M11170 1948 c-20 -13 -43 -27 -52 -33 -8 -5 -35 -24 -59 -41 -78 -55
-194 -112 -319 -159 -67 -24 -134 -46 -148 -48 -43 -6 -49 -27 -30 -118 20
-94 32 -113 67 -106 69 14 282 98 406 160 103 52 305 198 305 220 0 13 -117
147 -129 147 -3 0 -22 -10 -41 -22z"/>
<path d="M3345 4464 c-27 -18 -58 -34 -67 -34 -10 0 -18 -4 -18 -10 0 -5 -41
-37 -92 -71 -110 -73 -276 -197 -338 -252 -87 -77 -240 -229 -240 -238 0 -15
25 1 40 25 42 69 309 291 519 434 149 101 251 173 251 178 0 6 -1 5 -55 -32z"/>
<path d="M2032 3330 c1 -13 9 -25 16 -28 17 -5 15 23 -4 39 -14 11 -15 10 -12
-11z"/>
<path d="M1945 2960 c-3 -5 -1 -10 4 -10 6 0 11 5 11 10 0 6 -2 10 -4 10 -3 0
-8 -4 -11 -10z"/>
<path d="M1661 2859 c-14 -40 -15 -196 -1 -204 7 -4 8 19 4 72 -4 47 -2 94 5
117 13 49 8 59 -8 15z"/>
<path d="M10167 2773 c-4 -3 -7 -11 -7 -17 0 -6 5 -5 12 2 6 6 9 14 7 17 -3 3
-9 2 -12 -2z"/>
<path d="M9691 7864 c0 -11 3 -14 6 -6 3 7 2 16 -1 19 -3 4 -6 -2 -5 -13z"/>
<path d="M9601 7364 c0 -11 3 -14 6 -6 3 7 2 16 -1 19 -3 4 -6 -2 -5 -13z"/>
<path d="M10195 7354 c63 -153 86 -259 88 -409 0 -68 4 -107 8 -90 11 48 10
163 -2 234 -12 74 -77 268 -92 278 -7 4 -8 -1 -2 -13z"/>
<path d="M9612 7320 c0 -14 2 -19 5 -12 2 6 2 18 0 25 -3 6 -5 1 -5 -13z"/>
<path d="M9623 7255 c0 -22 2 -30 4 -17 2 12 2 30 0 40 -3 9 -5 -1 -4 -23z"/>
<path d="M10251 6714 c0 -11 3 -14 6 -6 3 7 2 16 -1 19 -3 4 -6 -2 -5 -13z"/>
<path d="M10240 6681 c0 -21 -60 -151 -113 -245 -27 -49 -96 -158 -153 -242
-57 -85 -102 -154 -100 -154 5 0 114 148 188 256 87 125 203 372 184 391 -3 3
-6 1 -6 -6z"/>
<path d="M9210 6670 c-34 -7 -34 -7 -5 -8 17 0 39 3 50 8 24 10 4 10 -45 0z"/>
</g>
</svg>
