<?xml version="1.0" standalone="no"?>
<!DOCTYPE svg PUBLIC "-//W3C//DTD SVG 20010904//EN"
 "http://www.w3.org/TR/2001/REC-SVG-20010904/DTD/svg10.dtd">
<svg version="1.0" xmlns="http://www.w3.org/2000/svg"
 width="1280.000000pt" height="1270.000000pt" viewBox="0 0 1280.000000 1270.000000"
 preserveAspectRatio="xMidYMid meet">
<metadata>
Created by potrace 1.15, written by Peter Selinger 2001-2017
</metadata>
<g transform="translate(0.000000,1270.000000) scale(0.100000,-0.100000)"
fill="#000000" stroke="none">
<path d="M7590 12690 c-144 -18 -310 -69 -438 -134 -127 -64 -509 -335 -490
-347 7 -5 31 -11 53 -15 36 -7 38 -8 14 -13 l-27 -6 34 -135 c60 -236 124
-337 230 -361 30 -7 54 -13 54 -14 0 -1 -9 -28 -20 -60 -25 -73 -56 -236 -65
-340 l-7 -81 -67 -24 c-81 -29 -307 -141 -585 -289 -114 -61 -210 -111 -212
-111 -2 0 -144 -69 -316 -154 -407 -200 -595 -319 -953 -601 -408 -322 -621
-517 -766 -705 -93 -120 -325 -466 -393 -587 -58 -103 -160 -327 -172 -379 -3
-16 -32 -94 -64 -174 -179 -447 -192 -661 -54 -871 83 -126 218 -227 401 -299
143 -57 203 -87 203 -104 0 -13 97 -301 359 -1067 50 -146 91 -271 91 -277 0
-6 -131 -217 -291 -467 l-291 -455 -52 30 c-807 480 -1859 452 -2643 -70 -223
-148 -407 -315 -564 -512 -224 -280 -377 -575 -465 -897 -161 -589 -108 -1204
150 -1746 317 -664 920 -1161 1631 -1345 211 -55 376 -74 620 -74 251 1 413
21 639 78 621 160 1177 575 1504 1124 l54 89 45 -5 c31 -3 110 -37 247 -107
111 -56 225 -111 254 -123 28 -11 52 -27 52 -34 0 -7 -7 -38 -15 -68 -8 -30
-13 -55 -12 -56 1 -1 88 -15 192 -31 198 -31 205 -30 205 15 0 27 -1 27 102 1
121 -30 325 -37 403 -15 120 36 158 120 97 217 -51 79 -182 183 -387 305 l-99
59 48 7 c228 32 444 184 550 387 54 105 77 192 83 316 8 172 -27 301 -118 441
l-50 77 34 36 c18 20 145 158 282 306 136 149 284 307 329 351 44 45 99 104
121 130 33 40 1018 1109 1659 1802 88 95 163 169 167 165 4 -5 49 -147 100
-317 86 -288 91 -310 75 -320 -931 -556 -1404 -1580 -1210 -2621 46 -253 102
-421 214 -650 118 -242 278 -464 475 -660 389 -389 860 -625 1425 -712 151
-23 506 -23 665 0 544 77 1017 303 1398 667 669 639 929 1584 682 2484 -203
739 -768 1362 -1495 1649 -534 210 -1140 224 -1705 40 -60 -19 -134 -46 -164
-59 -30 -13 -56 -23 -58 -21 -2 2 -51 161 -109 353 -93 306 -106 357 -105 417
1 61 -2 71 -26 95 -18 18 -35 57 -55 122 -57 196 -217 774 -215 776 2 2 721
104 735 104 5 0 49 -48 98 -107 170 -208 243 -289 313 -347 39 -32 71 -62 71
-66 0 -4 -39 -48 -86 -99 -158 -167 -303 -259 -529 -333 -129 -42 -150 -56
-171 -104 -24 -57 6 -119 69 -143 54 -21 300 58 452 146 170 97 300 212 458
404 75 92 92 108 124 114 56 10 249 91 323 135 92 54 141 100 174 160 26 48
28 59 24 127 -4 64 -12 88 -51 165 l-46 90 22 19 c98 84 100 87 94 136 -4 37
-12 54 -38 76 -32 29 -34 29 -113 23 -45 -3 -102 -10 -128 -14 -45 -8 -52 -6
-98 25 -27 18 -73 42 -102 54 -210 82 -389 217 -542 407 -52 64 -84 114 -331
512 -126 204 -211 322 -318 440 -116 130 -413 390 -445 390 -12 0 -13 3 -4 12
8 8 -11 35 -77 107 -355 388 -462 584 -595 1088 -18 72 -39 139 -44 150 -9 16
-3 26 47 69 l58 50 79 -8 c162 -17 290 12 324 74 12 22 12 39 2 108 l-11 81
41 52 c71 90 87 160 47 211 l-20 26 89 -6 c88 -7 90 -6 106 19 15 22 16 29 2
59 -8 18 -44 69 -81 113 -98 118 -120 170 -120 275 1 81 28 225 45 235 7 4
101 -7 263 -30 28 -4 37 -2 37 9 0 24 -83 233 -128 321 -83 165 -251 357 -405
463 -182 126 -358 181 -587 187 -80 2 -174 0 -210 -5z m-803 -516 c-3 -3 -12
-4 -19 -1 -8 3 -5 6 6 6 11 1 17 -2 13 -5z m828 -3516 l199 -137 64 34 c34 19
67 35 72 35 11 0 123 -148 250 -330 295 -424 339 -475 611 -720 107 -95 268
-247 359 -338 146 -145 163 -165 145 -172 -11 -5 -204 -35 -430 -66 -225 -31
-411 -58 -413 -59 -3 -3 9 -102 24 -192 3 -23 11 -33 26 -35 20 -3 29 -27 79
-208 31 -113 56 -206 55 -208 -3 -2 -822 -118 -1111 -157 -60 -9 -120 -18
-133 -20 -19 -5 -12 9 43 89 77 112 145 249 177 361 18 65 23 104 22 205 0
109 -3 135 -28 208 -39 118 -111 221 -214 303 -85 68 -268 169 -380 209 -44
16 -61 27 -57 37 3 7 8 19 11 27 6 15 -54 42 -281 128 -249 95 -581 197 -962
298 -46 12 -83 25 -83 29 1 3 110 74 243 158 530 332 727 444 962 543 117 49
159 86 242 207 l56 82 126 -87 c69 -47 216 -148 326 -224z m-995 -2118 c0 -3
-21 -18 -48 -35 -149 -95 -406 -332 -542 -503 -49 -62 -68 -78 -76 -69 -6 7
-84 138 -174 292 -90 154 -170 290 -178 303 l-14 22 516 -2 c284 -2 516 -5
516 -8z m-2213 -167 c130 -200 393 -647 386 -654 -13 -11 -186 -30 -195 -21
-4 4 -58 154 -119 332 -61 179 -122 355 -134 393 -13 37 -22 67 -19 67 2 0 39
-53 81 -117z m4355 -474 c21 -73 38 -140 38 -147 0 -10 -1102 -1210 -1830
-1993 -35 -37 -36 -38 -85 -29 -27 5 -91 9 -142 9 -253 2 -387 54 -476 183
-21 30 -74 135 -118 233 -93 209 -114 247 -165 298 l-38 38 114 114 c63 63
123 131 132 152 10 22 18 63 18 97 0 55 3 62 47 115 89 105 198 214 413 409
118 108 274 250 345 317 l130 121 555 78 c305 43 656 93 780 111 124 18 229
32 234 31 5 -1 27 -63 48 -137z m-3757 -536 c43 -76 79 -140 81 -142 1 -2 17
7 34 19 17 12 33 21 35 19 12 -13 68 -220 68 -253 0 -27 -14 -75 -41 -136 -22
-53 -62 -170 -87 -260 -25 -91 -50 -174 -54 -184 -5 -13 -61 140 -188 510
-141 414 -177 530 -165 532 33 8 179 29 209 31 30 1 34 -4 108 -136z m-322
-636 l178 -522 -86 -152 c-47 -84 -95 -179 -107 -213 -11 -34 -21 -60 -23 -58
-1 2 -33 48 -70 103 -135 201 -293 377 -470 523 -49 41 -92 76 -94 78 -5 5
480 764 488 764 3 0 86 -235 184 -523z m5481 91 c3 -46 10 -265 16 -488 13
-497 28 -1041 34 -1215 4 -123 4 -128 -11 -95 -15 35 -631 1710 -640 1742 -4
13 11 22 79 43 132 40 353 82 500 94 13 1 17 -13 22 -81z m374 71 c111 -12
343 -56 355 -68 4 -4 -109 -394 -252 -867 -142 -472 -269 -894 -281 -936 l-23
-77 -31 6 c-17 3 -32 6 -32 7 -3 2 -54 1815 -54 1884 l0 62 110 0 c61 0 154
-5 208 -11z m540 -125 c170 -63 500 -240 490 -263 -2 -4 -261 -366 -577 -805
-502 -697 -576 -795 -589 -783 -12 13 2 69 116 449 100 331 391 1298 428 1421
7 24 22 22 132 -19z m-1363 -574 c114 -311 263 -717 331 -903 68 -186 124
-342 124 -348 0 -24 -20 -3 -62 64 -255 405 -465 864 -662 1444 l-85 252 72
30 c39 16 73 29 73 28 1 -1 95 -256 209 -567z m-7250 508 c9 -56 225 -1686
225 -1702 0 -13 -14 -16 -77 -16 -50 -1 -98 -8 -133 -20 -30 -10 -58 -16 -61
-12 -4 4 -14 32 -22 62 -9 30 -124 408 -257 840 -132 432 -238 790 -236 796 9
23 346 81 483 83 l72 1 6 -32z m381 7 c51 -8 115 -20 144 -26 49 -10 52 -13
47 -38 -3 -14 -65 -395 -138 -846 -73 -451 -134 -822 -136 -824 -2 -2 -6 -2
-9 1 -6 7 -234 1696 -234 1737 l0 24 118 -6 c64 -4 158 -14 208 -22z m356 -85
c144 -47 294 -114 290 -131 -2 -8 -106 -258 -232 -557 -215 -510 -234 -551
-321 -687 -51 -79 -94 -143 -95 -142 -3 2 163 1035 237 1480 6 37 15 67 20 67
5 0 50 -14 101 -30z m-1134 -717 c123 -401 234 -764 247 -807 14 -44 21 -75
16 -70 -16 16 -912 1408 -914 1419 -4 20 362 184 413 185 12 0 68 -171 238
-727z m7282 132 c29 -77 83 -211 120 -297 37 -87 66 -158 64 -158 -5 0 -704
762 -704 768 1 10 126 107 233 180 l91 62 72 -207 c39 -115 95 -271 124 -348z
m-5739 403 c33 -18 59 -36 59 -41 0 -10 -444 -706 -448 -702 -3 3 321 775 326
775 3 0 31 -15 63 -32z m8115 -50 c54 -45 134 -117 176 -161 78 -80 164 -185
157 -191 -21 -19 -1591 -1186 -1595 -1186 -3 0 -3 7 0 16 9 23 1148 1604 1156
1604 4 0 51 -37 106 -82z m-9910 -666 c248 -383 450 -698 448 -700 -4 -6
-1333 1053 -1334 1063 0 11 35 43 165 149 82 67 252 186 265 186 3 0 208 -314
456 -698z m7383 140 l411 -447 99 -180 c54 -99 97 -181 95 -183 -3 -5 -1333
892 -1334 899 -1 18 296 359 314 359 2 0 188 -201 415 -448z m-5251 337 c45
-38 70 -65 65 -72 -4 -7 -174 -203 -377 -437 -490 -563 -506 -581 -506 -576 0
3 149 238 331 523 183 285 347 542 365 571 19 28 37 52 42 52 5 0 41 -27 80
-61z m187 -176 c82 -91 173 -207 230 -294 41 -61 46 -73 34 -83 -9 -6 -91 -70
-185 -142 -93 -73 -315 -244 -493 -382 l-323 -250 -112 -7 c-61 -3 -153 -5
-204 -3 l-94 3 533 613 c294 336 538 612 544 612 5 0 37 -30 70 -67z m-2544
-539 c385 -307 698 -558 696 -560 -2 -2 -152 54 -333 125 -181 71 -569 222
-861 336 -293 115 -533 212 -533 218 0 16 70 126 145 226 67 90 171 211 182
211 2 0 319 -250 704 -556z m10576 413 c79 -119 155 -262 209 -395 24 -58 42
-107 40 -109 -2 -3 -1175 -402 -1629 -555 -147 -50 -270 -89 -272 -87 -2 2 -6
15 -10 29 -7 28 -120 -59 1110 859 259 193 475 351 480 351 6 0 38 -42 72 -93z
m-2998 -486 l716 -484 48 -75 c26 -41 46 -77 43 -79 -3 -3 -119 33 -258 80
-776 261 -1533 519 -1537 523 -2 2 13 48 34 102 64 165 207 426 229 419 5 -2
331 -221 725 -486z m-4668 87 c43 -86 119 -271 119 -291 0 -8 -156 -80 -378
-175 l-378 -162 -187 2 -188 3 473 366 c422 327 474 365 486 350 8 -9 31 -51
53 -93z m351 63 c4 -3 3 -26 -3 -51 -22 -103 -17 -103 -65 -1 -24 52 -44 95
-44 97 0 4 103 -38 112 -45z m-3434 -360 l881 -344 -27 -32 c-15 -17 -38 -48
-51 -69 -20 -31 -27 -36 -50 -32 -14 3 -424 64 -911 136 -487 71 -898 133
-913 136 -26 5 -28 9 -21 37 26 128 184 523 204 515 4 -2 404 -158 888 -347z
m4177 229 c66 -11 123 -20 128 -20 12 0 8 -53 -18 -265 -14 -110 -25 -201 -25
-202 0 -2 -15 -3 -32 -3 -18 0 -50 -4 -70 -9 l-37 -9 -66 197 c-72 210 -72
210 -36 304 12 32 5 32 156 7z m839 -106 c64 -3 116 -10 116 -14 0 -7 -388
-430 -395 -430 -2 0 0 12 5 28 5 15 34 113 65 217 68 232 62 218 79 212 7 -3
66 -9 130 -13z m6035 -111 c32 -131 54 -274 65 -420 6 -80 6 -83 -16 -87 -38
-7 -1989 -39 -1995 -32 -13 12 14 24 177 79 91 30 392 133 670 227 962 327
1055 359 1061 359 3 1 20 -56 38 -126z m-3634 -118 c347 -118 707 -239 800
-271 94 -31 174 -61 179 -65 6 -5 -14 -9 -45 -9 -29 0 -403 -20 -829 -45 -426
-25 -799 -45 -829 -45 l-53 0 6 98 c13 192 42 372 82 510 13 48 17 52 37 46
12 -3 306 -102 652 -219z m-4162 -69 c15 -62 27 -123 27 -135 l0 -21 -347 0
-348 0 310 135 c171 74 315 134 321 135 6 0 22 -51 37 -114z m-3443 -216 c487
-72 900 -133 917 -138 31 -7 32 -8 20 -32 l-12 -24 -935 -88 c-514 -48 -941
-87 -949 -88 -12 0 -13 22 -7 130 6 120 29 322 41 361 3 10 13 15 23 13 9 -2
415 -62 902 -134z m4074 108 c10 -38 7 -48 -14 -48 -11 0 -20 6 -20 13 0 23
12 57 20 57 4 0 10 -10 14 -22z m-1699 -157 c-6 -4 -68 -33 -140 -64 -109 -46
-142 -56 -202 -59 -40 -2 -73 -1 -73 2 0 3 33 30 73 60 61 47 80 56 127 61 90
9 225 10 215 0z m1093 -18 c-3 -24 -8 -28 -38 -31 -113 -8 -1154 -61 -1156
-59 -2 2 56 28 129 60 l132 56 468 1 468 0 -3 -27z m-1449 13 c-34 -29 -153
-116 -160 -116 -5 0 -9 6 -9 13 0 8 -11 35 -24 60 l-23 47 110 0 c61 0 108 -2
106 -4z m6747 -54 c6 -4 14 -27 17 -52 l6 -45 -920 -309 c-533 -179 -924 -305
-929 -300 -13 13 -55 182 -74 295 -16 91 -36 300 -30 307 3 4 1772 109 1864
111 30 0 60 -3 66 -7z m-5316 -51 c0 -11 -31 -165 -34 -168 -4 -5 -1299 97
-1304 102 -3 3 15 5 39 6 24 0 310 15 634 33 701 40 665 38 665 27z m7856 -88
c-10 -131 -25 -249 -42 -333 -24 -122 -67 -270 -79 -270 -19 0 -1915 635
-1915 642 0 12 171 18 905 28 407 6 749 13 760 14 11 2 100 4 199 5 l178 1 -6
-87z m-10386 -41 l0 -37 -893 -298 c-490 -163 -897 -297 -903 -297 -19 0 -70
257 -80 406 l-7 90 229 22 c126 12 425 40 664 62 239 22 545 51 680 64 338 33
310 34 310 -12z m7889 24 c-4 -3 -1142 -849 -1416 -1052 l-152 -113 -61 94
c-87 136 -235 446 -219 459 2 2 416 141 919 310 503 169 916 309 919 311 2 3
7 3 9 0 3 -3 3 -7 1 -9z m1422 -327 c514 -171 936 -313 938 -315 7 -7 -50
-143 -105 -251 -51 -98 -175 -296 -193 -307 -5 -3 -359 258 -787 580 -769 578
-803 604 -793 604 3 0 426 -140 940 -311z m-1362 277 c10 -12 -89 -155 -525
-763 -296 -411 -555 -772 -576 -801 l-39 -53 -52 41 c-105 83 -229 204 -312
303 -47 56 -85 107 -85 112 1 6 158 127 351 270 508 376 704 522 974 724 132
99 243 180 246 180 4 1 12 -5 18 -13z m1164 -599 c438 -329 797 -601 797 -604
0 -13 -134 -165 -206 -233 -102 -97 -233 -202 -247 -197 -18 6 -1178 1627
-1172 1638 4 5 12 6 18 2 7 -4 371 -276 810 -606z m-291 -252 c316 -440 577
-806 581 -812 10 -16 -98 -86 -251 -164 -116 -59 -259 -116 -267 -107 -6 6
-53 141 -404 1166 -133 386 -244 710 -248 720 -4 11 -3 14 4 7 6 -5 269 -370
585 -810z m-751 244 c3 -305 7 -758 8 -1007 l1 -453 -62 6 c-153 15 -249 28
-333 46 -135 29 -236 61 -232 73 2 6 134 432 292 946 158 514 289 939 292 943
3 4 10 6 16 4 9 -3 14 -151 18 -558z m119 519 c6 -18 137 -397 290 -843 153
-445 294 -857 314 -914 21 -59 33 -108 28 -113 -14 -14 -236 -65 -352 -82 -58
-8 -155 -18 -216 -22 l-112 -6 -6 353 c-3 195 -9 648 -12 1007 l-6 652 30 0
c25 0 32 -6 42 -32z m-8652 -296 c-216 -159 -548 -402 -737 -540 -189 -139
-347 -250 -352 -247 -4 3 -30 45 -57 93 -92 164 -191 409 -169 418 61 23 1685
563 1695 563 8 1 -163 -129 -380 -287z m490 236 c16 -52 59 -121 103 -166 l32
-33 -139 -142 c-77 -78 -370 -376 -651 -661 l-512 -519 -71 69 c-72 68 -201
220 -273 321 l-38 52 93 68 c894 657 1434 1052 1438 1053 3 0 11 -19 18 -42z
m7676 -798 c-140 -454 -265 -862 -279 -907 l-25 -82 -39 14 c-178 63 -509 250
-497 281 6 17 1089 1525 1092 1521 1 -1 -112 -373 -252 -827z m-5979 760 c374
-28 690 -53 703 -56 12 -2 22 -11 22 -20 0 -12 -11 -15 -59 -13 -39 2 -66 -2
-76 -11 -32 -26 -138 -183 -186 -275 -58 -110 -82 -205 -69 -274 4 -25 7 -47
5 -49 -4 -4 -1196 567 -1210 580 -6 5 -5 15 3 26 7 9 27 48 45 85 l32 68 55
-5 c30 -2 361 -28 735 -56z m-842 -294 c38 -71 67 -129 65 -131 -4 -4 -267
178 -267 185 0 9 114 78 124 76 6 -1 41 -60 78 -130z m739 -255 c629 -302 705
-341 673 -341 -11 1 -194 16 -406 34 l-386 34 -209 147 c-115 81 -217 154
-226 163 -16 13 -168 292 -168 306 0 4 30 -9 68 -27 37 -19 331 -161 654 -316z
m-1369 325 c9 -7 17 -16 17 -19 0 -3 -16 -32 -35 -64 l-36 -58 6 55 c12 106
15 111 48 86z m-107 -147 l-15 -114 -387 -660 c-213 -363 -388 -661 -390 -663
-3 -5 -103 47 -174 91 -88 55 -270 190 -270 200 0 10 1242 1269 1247 1264 1
-2 -4 -55 -11 -118z m386 82 c4 -4 127 -368 273 -810 147 -441 268 -808 271
-815 6 -15 -125 -57 -266 -85 -111 -22 -289 -46 -296 -39 -2 3 -36 383 -74
844 -38 461 -72 858 -74 881 l-6 42 83 -6 c45 -3 85 -8 89 -12z m368 -174
l115 -82 63 -119 c34 -66 60 -121 58 -123 -4 -4 -258 15 -292 22 -15 3 -28 21
-42 57 -77 197 -162 419 -162 423 0 5 70 -43 260 -178z m-520 -668 c38 -453
70 -844 72 -869 l3 -45 -65 -3 c-66 -4 -340 15 -365 24 -8 3 -12 11 -10 17 2
7 41 347 86 757 l82 745 60 103 c33 56 62 101 64 98 2 -2 35 -375 73 -827z
m-272 426 c-76 -688 -147 -1297 -152 -1302 -18 -19 -356 79 -489 141 l-67 31
357 607 c196 334 357 607 358 605 1 -1 -2 -38 -7 -82z m1197 -44 l90 -64 -70
7 c-38 3 -80 6 -92 6 -17 0 -32 19 -67 84 -25 46 -46 87 -46 91 0 6 41 -21
185 -124z m-300 -132 c88 -7 169 -15 180 -20 15 -5 82 -123 218 -381 108 -206
197 -377 197 -380 0 -17 -281 -170 -408 -221 l-61 -25 -170 511 c-94 282 -171
518 -171 525 0 9 9 12 28 8 15 -3 99 -10 187 -17z m604 -81 c26 -18 134 -94
239 -168 105 -74 192 -139 192 -143 0 -27 -381 -371 -394 -356 -6 7 -365 694
-371 709 -5 14 10 15 141 3 141 -11 148 -13 193 -45z m327 2 c131 -11 256 -23
276 -26 l37 -6 -17 -26 c-43 -69 -145 -202 -154 -202 -8 0 -309 207 -383 264
-25 19 -41 20 241 -4z"/>
</g>
</svg>
